<svg width="1392" height="1392" viewBox="0 0 1392 1392" fill="none" xmlns="http://www.w3.org/2000/svg">
<path d="M1392 696C1392 1080.39 1080.39 1392 696 1392C311.61 1392 0 1080.39 0 696C0 311.61 311.61 0 696 0C1080.39 0 1392 311.61 1392 696Z" fill="#FFEDEF"/>
<path d="M879.915 1298.89C827.166 1225.62 785.894 1047.35 781.01 976.527L530.084 868.463L425.684 1298.89H879.915Z" fill="#FC909F"/>
<path fill-rule="evenodd" clip-rule="evenodd" d="M525.009 858.301L788.011 971.566L788.318 976.023C790.714 1010.76 802.121 1072.51 819.567 1134.82C837.062 1197.29 860.293 1259.09 885.86 1294.6L894.217 1306.21H416.367L525.009 858.301ZM535.157 878.625L434.999 1291.56H866.216C842.266 1253.11 821.318 1195.41 805.457 1138.77C788.566 1078.44 777.136 1018.16 774.044 981.505L535.157 878.625Z" fill="black"/>
<mask id="mask0" mask-type="alpha" maskUnits="userSpaceOnUse" x="425" y="868" width="455" height="431">
<path d="M879.915 1298.89C827.166 1225.62 785.894 1047.35 781.01 976.527L530.084 868.463L425.684 1298.89H879.915Z" fill="#FFEDEF"/>
</mask>
<g mask="url(#mask0)">
<path d="M986.264 861.264C986.264 970.511 889.501 1059.07 770.138 1059.07C650.775 1059.07 554.012 970.511 554.012 861.264C554.012 752.016 650.775 663.453 770.138 663.453C889.501 663.453 986.264 752.016 986.264 861.264Z" fill="black"/>
</g>
<g clip-path="url(#clip0)">
<path d="M880.032 1262.38C827.283 1189.12 786.011 1047.48 781.127 976.654L530.201 868.59L425.801 1262.38H880.032Z" fill="#E8A084"/>
<path fill-rule="evenodd" clip-rule="evenodd" d="M525.294 858.5L788.127 971.692L788.434 976.15C790.82 1010.74 802.175 1063.22 819.59 1116.32C837.014 1169.44 860.238 1222.35 885.976 1258.1L894.333 1269.71H416.277L525.294 858.5ZM535.104 878.678L435.321 1255.05H866.172C842.432 1218.37 821.546 1169.3 805.667 1120.88C788.75 1069.31 777.272 1017.73 774.164 981.632L535.104 878.678Z" fill="black"/>
<mask id="mask1" mask-type="alpha" maskUnits="userSpaceOnUse" x="425" y="868" width="456" height="432">
<path d="M880.032 1299.01C827.283 1225.75 786.011 1047.48 781.127 976.654L530.201 868.59L425.801 1299.01H880.032Z" fill="#F9C9B6"/>
</mask>
<g mask="url(#mask1)">
<g style="mix-blend-mode:multiply">
<path d="M986.264 861.264C986.264 970.511 889.501 1059.07 770.138 1059.07C650.775 1059.07 554.012 970.511 554.012 861.264C554.012 752.016 650.775 663.453 770.138 663.453C889.501 663.453 986.264 752.016 986.264 861.264Z" fill="black"/>
</g>
</g>
<path fill-rule="evenodd" clip-rule="evenodd" d="M989.513 644.836C989.414 644.411 989.313 643.986 989.211 643.561C989.109 643.136 989.007 642.712 988.903 642.288L928.838 391.591C928.78 391.344 928.721 391.097 928.662 390.849C928.602 390.602 928.543 390.355 928.483 390.109L928.216 388.993L928.211 388.994C890.78 237.175 737.746 143.825 585.453 180.313C433.16 216.801 339.045 369.366 374.478 521.664L374.471 521.665L436.713 781.449L436.764 781.436C475.604 931.276 627.504 1022.99 778.675 986.77C929.845 950.55 1023.69 799.959 990.412 648.787L990.458 648.776L989.513 644.836Z" fill="#E8A084"/>
</g>
<path fill-rule="evenodd" clip-rule="evenodd" d="M714.736 809.66C673.694 803.18 641.721 778.698 636.512 743.276L651.008 741.145C654.957 767.996 679.763 789.304 717.021 795.187C753.997 801.025 801.942 791.164 848.164 756.497L856.956 768.219C807.936 804.984 756.06 816.185 714.736 809.66Z" fill="black"/>
<path fill-rule="evenodd" clip-rule="evenodd" d="M833.965 418.402C817.033 416.694 800.962 421.015 791.573 425.434C787.911 427.157 783.547 425.585 781.824 421.924C780.101 418.263 781.672 413.899 785.334 412.176C796.702 406.826 815.431 401.806 835.435 403.823C855.724 405.868 877.345 415.192 893.389 438.456C895.687 441.787 894.849 446.349 891.518 448.646C888.187 450.944 883.624 450.106 881.327 446.775C868.066 427.546 850.614 420.08 833.965 418.402Z" fill="black"/>
<path fill-rule="evenodd" clip-rule="evenodd" d="M543.791 478.768C530.703 489.647 522.519 504.137 519.088 513.93C517.75 517.749 513.57 519.76 509.752 518.422C505.933 517.085 503.922 512.904 505.259 509.086C509.414 497.228 518.963 480.352 534.424 467.5C550.106 454.465 571.911 445.582 599.749 450.448C603.735 451.145 606.401 454.941 605.705 458.926C605.008 462.912 601.212 465.578 597.226 464.882C574.217 460.859 556.658 468.072 543.791 478.768Z" fill="black"/>
<path d="M634.967 545.822C637.354 565.912 624.632 583.939 606.551 586.088C588.47 588.236 571.878 573.692 569.49 553.602C567.103 533.513 579.825 515.485 597.906 513.336C615.987 511.188 632.579 525.732 634.967 545.822Z" fill="black"/>
<path d="M869.554 509.462C871.765 529.572 858.886 547.488 840.787 549.478C822.688 551.468 806.224 536.78 804.012 516.67C801.801 496.56 814.68 478.644 832.779 476.654C850.878 474.664 867.342 489.352 869.554 509.462Z" fill="black"/>
<path fill-rule="evenodd" clip-rule="evenodd" d="M746.019 619.774C737.09 603.829 727.144 581.172 723.411 554.609L737.921 552.57C741.325 576.792 750.448 597.695 758.803 612.614C762.97 620.054 766.914 625.95 769.798 629.963C771.239 631.968 772.411 633.499 773.211 634.512C773.61 635.019 773.916 635.396 774.115 635.638C774.214 635.759 774.287 635.846 774.331 635.899L774.376 635.952L774.377 635.954L774.379 635.956L774.381 635.958L777.275 639.351L775.584 643.484L768.804 640.709C775.584 643.484 775.582 643.488 775.58 643.493L775.576 643.503L775.567 643.525L775.546 643.575C775.531 643.611 775.513 643.653 775.492 643.701C775.45 643.797 775.398 643.914 775.333 644.053C775.205 644.331 775.029 644.693 774.801 645.126C774.346 645.992 773.68 647.148 772.763 648.489C770.93 651.171 768.077 654.617 763.88 657.95C755.347 664.729 741.826 670.594 721.448 669.415L722.294 654.787C739.212 655.766 749.156 650.934 754.766 646.477C757.082 644.637 758.757 642.783 759.916 641.259C759.31 640.453 758.634 639.537 757.899 638.513C754.746 634.127 750.495 627.765 746.019 619.774ZM762.058 637.851C762.059 637.849 762.058 637.85 762.057 637.853L762.058 637.851Z" fill="black"/>
<path d="M158.453 1344.8H1185.97C1110.75 1234.02 1006.41 1152.49 828.747 1137.83C770.731 1124.51 731.173 1102.81 660.241 1102.81C579.679 1102.81 510.773 1109.51 451.441 1123.04C307.09 1155.95 219.416 1229.27 158.453 1344.8Z" fill="#515151"/>
<path fill-rule="evenodd" clip-rule="evenodd" d="M828.747 1137.83C810.802 1133.71 794.623 1128.79 778.736 1123.96C743.258 1113.16 709.233 1102.81 660.241 1102.81C579.679 1102.81 510.773 1109.51 451.441 1123.04C313.29 1154.54 227.052 1223.05 166.459 1330.15C163.739 1334.96 161.072 1339.84 158.453 1344.8H1185.97C1182.62 1339.86 1179.2 1334.97 1175.73 1330.15C1101.29 1226.87 998.482 1151.83 828.747 1137.83ZM1157.55 1330.15C1085.82 1234.32 987.678 1165.64 827.542 1152.44L826.493 1152.35L825.467 1152.11C807.208 1147.92 789.917 1142.67 773.558 1137.71C763.876 1134.77 754.521 1131.93 745.484 1129.46C720.336 1122.61 694.05 1117.47 660.241 1117.47C580.451 1117.47 512.686 1124.11 454.699 1137.33C323.806 1167.17 241.722 1230.71 183.368 1330.15H1157.55Z" fill="black"/>
<path d="M410.889 1138.13L444.418 1066.34C445.219 1064.63 447.209 1063.81 448.993 1064.45C587.924 1113.62 714.312 1110.16 831.44 1077.56C832.914 1077.15 834.489 1077.69 835.392 1078.92L886.428 1148.72C887.831 1150.63 887.116 1153.34 884.904 1154.21C761.796 1202.55 530.793 1194.33 412.664 1142.98C410.79 1142.16 410.024 1139.98 410.889 1138.13Z" fill="white"/>
<path fill-rule="evenodd" clip-rule="evenodd" d="M829.477 1070.5C833.878 1069.27 838.596 1070.89 841.308 1074.6L835.402 1078.92L841.308 1074.6L892.345 1144.39C896.431 1149.98 894.504 1158.31 887.584 1161.03C824.736 1185.71 735.097 1195.75 646.717 1193.3C558.322 1190.86 470.001 1175.89 409.746 1149.7C403.901 1147.15 401.732 1140.43 404.253 1135.03L437.782 1063.24L437.782 1063.24C440.206 1058.06 446.158 1055.67 451.44 1057.54L448.995 1064.44L451.44 1057.54C588.806 1106.16 713.645 1102.74 829.477 1070.5ZM830.972 1085.29C714.105 1117.38 587.971 1120.69 449.658 1072.44L419.143 1137.78C476.958 1162.01 561.478 1176.29 647.122 1178.65C732.368 1181.01 817.601 1171.54 877.662 1149.14L830.972 1085.29Z" fill="black"/>
<path d="M965.254 233.736C933.523 380.398 558.504 400.993 482.925 400.993C284.57 422.78 379.778 652.307 416.2 766.755C387.604 770.431 391.417 803.515 280.843 540.681C192.385 330.414 442.913 202.259 629.041 158.757C815.17 115.254 886.411 54 886.411 54C965.254 85.2388 984.085 146.696 965.254 233.736Z" fill="black"/>
<path d="M946.024 504.106L885.71 307.662L923.984 274.054C964.994 410.389 966.869 489.556 946.024 504.106Z" fill="black"/>
<path d="M468.902 669.722C447.55 569.735 393.916 587.625 358.329 592.526L320.2 430.782L474.944 399.557C477.81 398.675 480.878 398.049 484.154 397.698L474.944 399.557C405.735 420.853 453.485 591.774 510.844 662.37L468.902 669.722Z" fill="black"/>
<path d="M259.153 292.429C292.88 276.056 332.71 285.534 348.41 292.319L303.529 347.019C315.103 329.166 278.767 303.187 259.153 292.429Z" fill="black"/>
<path d="M202 355.424C246.229 330.428 289.061 338.882 304.948 346.234L287.79 403.214C283.214 372.335 228.69 358.488 202 355.424Z" fill="black"/>
<path fill-rule="evenodd" clip-rule="evenodd" d="M458.746 705.375C452.158 721.3 442.271 733.607 429.265 736.832C411.844 741.152 397.987 737.24 392.193 718.268C390.686 713.336 390.468 708.743 391.298 704.581C379.078 697.389 369.128 682.876 362.459 658.727C350.474 615.33 368.853 585.656 397.695 578.505C409.635 575.544 422.005 576.968 432.961 582.317L458.746 705.375ZM445.753 571.968L473.916 706.37L472.12 710.713C464.892 728.183 452.297 746.208 432.27 751.173C421.955 753.731 410.558 754.427 400.213 749.861C389.324 745.056 382.114 735.561 378.297 723.064C377.198 719.466 376.54 715.845 376.344 712.246C363.648 701.726 354.518 685.105 348.454 663.147C341.743 638.849 343.08 616.659 351.784 598.818C360.572 580.805 376.171 568.755 394.69 564.163C410.04 560.358 425.806 562.23 439.602 568.966L445.753 571.968Z" fill="black"/>
<path fill-rule="evenodd" clip-rule="evenodd" d="M466.458 634.722C466.151 632.285 465.742 629.834 465.227 627.378C457.371 589.888 426.298 571.413 397.754 578.49C369.211 585.567 351.07 615.155 363.017 658.511C369.664 682.636 379.542 697.149 391.653 704.356C390.84 708.509 391.065 713.094 392.565 718.021C398.337 736.976 412.063 740.912 429.303 736.637C459.511 729.147 472.612 671.676 466.458 634.722Z" fill="#E8A084"/>
<path fill-rule="evenodd" clip-rule="evenodd" d="M389.204 603.795C399.5 596.838 411.291 597.489 418.805 599.873L414.06 613.983C409.201 612.442 402.36 612.371 396.974 616.01C391.964 619.396 386.128 627.444 385.86 646.692L371.325 646.968C371.634 624.872 378.532 611.006 389.204 603.795Z" fill="black"/>
<path fill-rule="evenodd" clip-rule="evenodd" d="M408.594 669.563C405.059 641.965 390.006 626.017 383.962 621.95L392.261 609.555C401.5 615.771 418.922 635.267 423.01 667.185L408.594 669.563Z" fill="black"/>
<defs>
<clipPath id="clip0">
<rect width="732.632" height="1172.21" fill="white" transform="translate(315.906 92)"/>
</clipPath>
</defs>
</svg>
