<svg width="1392" height="1392" viewBox="0 0 1392 1392" fill="none" xmlns="http://www.w3.org/2000/svg">
<g id="Avatar1">
<g id="Background/3">
<circle id="Background/1" cx="696" cy="696" r="696" fill="#FFEDEF"/>
</g>
<mask id="mask0" mask-type="alpha" maskUnits="userSpaceOnUse" x="0" y="0" width="1392" height="1392">
<circle id="Mask" cx="696" cy="696" r="696" fill="#FFEDEF"/>
</mask>
<g mask="url(#mask0)">
<g id="Body">
<g id="Neck/2">
<path id="Neck/1" d="M885.918 1376.88C833.169 1303.62 791.897 1125.35 787.013 1054.53L536.087 946.461L431.687 1376.88H885.918Z" fill="#FC909F" stroke="black" stroke-width="14.6526"/>
<g id="Mask Group">
<mask id="mask1" mask-type="alpha" maskUnits="userSpaceOnUse" x="431" y="946" width="455" height="431">
<path id="Neck/1_2" d="M885.918 1376.88C833.169 1303.62 791.897 1125.35 787.013 1054.53L536.087 946.461L431.687 1376.88H885.918Z" fill="#FFEDEF"/>
</mask>
<g mask="url(#mask1)">
<ellipse id="Ellipse 42" cx="776.138" cy="939.264" rx="216.126" ry="197.811" fill="black"/>
</g>
</g>
</g>
<g id="Base/1" clip-path="url(#clip0)">
<g id="Neck">
<path id="Neck/1_3" d="M886.032 1340.38C833.283 1267.12 792.011 1125.48 787.127 1054.65L536.201 946.59L431.801 1340.38H886.032Z" fill="#E8A084" stroke="black" stroke-width="14.6526"/>
<mask id="mask2" mask-type="alpha" maskUnits="userSpaceOnUse" x="431" y="946" width="456" height="432">
<path id="Mask_2" d="M886.032 1377.01C833.283 1303.75 792.011 1125.48 787.127 1054.65L536.201 946.59L431.801 1377.01H886.032Z" fill="#F9C9B6"/>
</mask>
<g mask="url(#mask2)">
<g id="Ellipse 42_2" style="mix-blend-mode:multiply">
<ellipse cx="776.138" cy="939.264" rx="216.126" ry="197.811" fill="black"/>
</g>
</g>
</g>
<g id="Head">
<mask id="path-9-inside-1" fill="white">
<path fill-rule="evenodd" clip-rule="evenodd" d="M995.466 722.641C995.382 722.281 995.296 721.922 995.21 721.562C995.124 721.203 995.037 720.844 994.95 720.485L934.837 469.586C934.778 469.34 934.72 469.094 934.661 468.847C934.602 468.601 934.542 468.355 934.483 468.109L934.215 466.991L934.21 466.992C896.779 315.173 743.745 221.823 591.452 258.311C439.159 294.799 345.044 447.364 380.477 599.662L380.47 599.663L442.712 859.447L442.762 859.435C481.6 1009.28 633.502 1100.99 784.674 1064.77C935.845 1028.55 1029.69 877.959 996.411 726.785L996.457 726.774L995.466 722.641Z"/>
</mask>
<path fill-rule="evenodd" clip-rule="evenodd" d="M995.466 722.641C995.382 722.281 995.296 721.922 995.21 721.562C995.124 721.203 995.037 720.844 994.95 720.485L934.837 469.586C934.778 469.34 934.72 469.094 934.661 468.847C934.602 468.601 934.542 468.355 934.483 468.109L934.215 466.991L934.21 466.992C896.779 315.173 743.745 221.823 591.452 258.311C439.159 294.799 345.044 447.364 380.477 599.662L380.47 599.663L442.712 859.447L442.762 859.435C481.6 1009.28 633.502 1100.99 784.674 1064.77C935.845 1028.55 1029.69 877.959 996.411 726.785L996.457 726.774L995.466 722.641Z" fill="#E8A084"/>
<path d="M995.466 722.641L981.204 726L981.21 726.027L981.217 726.055L995.466 722.641ZM994.95 720.485L980.7 723.899L980.707 723.926L980.714 723.953L994.95 720.485ZM934.837 469.586L920.578 472.962L920.583 472.981L920.587 473L934.837 469.586ZM934.661 468.847L920.411 472.26L920.411 472.26L934.661 468.847ZM934.483 468.109L920.234 471.524L920.238 471.541L920.242 471.559L934.483 468.109ZM934.215 466.991L948.464 463.577L945.045 449.308L930.781 452.746L934.215 466.991ZM934.21 466.992L919.983 470.5L923.473 484.653L937.644 481.237L934.21 466.992ZM591.452 258.311L594.866 272.561L594.866 272.561L591.452 258.311ZM380.477 599.662L383.909 613.907L398.043 610.501L394.748 596.341L380.477 599.662ZM380.47 599.663L377.038 585.418L362.811 588.846L366.22 603.077L380.47 599.663ZM442.712 859.447L428.462 862.861L431.877 877.114L446.13 873.695L442.712 859.447ZM442.762 859.435L456.946 855.758L453.335 841.83L439.344 845.186L442.762 859.435ZM996.411 726.785L992.999 712.535L979.007 715.885L982.101 729.936L996.411 726.785ZM996.457 726.774L999.868 741.024L1014.12 737.612L1010.71 723.36L996.457 726.774ZM1009.73 719.282C1009.64 718.902 1009.55 718.525 1009.46 718.149L980.961 724.976C981.043 725.319 981.124 725.66 981.204 726L1009.73 719.282ZM1009.46 718.149C1009.37 717.77 1009.28 717.393 1009.19 717.017L980.714 723.953C980.797 724.295 980.879 724.636 980.961 724.976L1009.46 718.149ZM920.587 473L980.7 723.899L1009.2 717.071L949.086 466.172L920.587 473ZM949.095 466.21C949.033 465.949 948.972 465.69 948.91 465.435L920.411 472.26C920.468 472.497 920.524 472.731 920.578 472.962L949.095 466.21ZM948.91 465.435C948.848 465.174 948.786 464.916 948.724 464.66L920.242 471.559C920.299 471.795 920.356 472.028 920.411 472.26L948.91 465.435ZM919.966 470.405L920.234 471.524L948.732 464.695L948.464 463.577L919.966 470.405ZM937.644 481.237L937.649 481.235L930.781 452.746L930.776 452.747L937.644 481.237ZM948.436 463.485C909.079 303.85 748.169 205.696 588.038 244.062L594.866 272.561C739.321 237.95 884.48 326.497 919.983 470.5L948.436 463.485ZM588.038 244.062C427.907 282.428 328.948 442.845 366.205 602.982L394.748 596.341C361.139 451.884 450.411 307.171 594.866 272.561L588.038 244.062ZM383.902 613.908L383.909 613.907L377.045 585.417L377.038 585.418L383.902 613.908ZM456.961 856.033L394.719 596.249L366.22 603.077L428.462 862.861L456.961 856.033ZM439.344 845.186L439.294 845.198L446.13 873.695L446.18 873.683L439.344 845.186ZM428.578 863.111C469.417 1020.67 629.135 1117.1 788.088 1079.02L781.26 1050.52C637.87 1084.88 493.784 997.883 456.946 855.758L428.578 863.111ZM788.088 1079.02C947.041 1040.94 1045.72 882.594 1010.72 723.635L982.101 729.936C1013.67 873.323 924.65 1016.17 781.26 1050.52L788.088 1079.02ZM993.045 712.524L992.999 712.535L999.822 741.035L999.868 741.024L993.045 712.524ZM981.217 726.055L982.207 730.188L1010.71 723.36L1009.72 719.227L981.217 726.055Z" fill="black" mask="url(#path-9-inside-1)"/>
</g>
</g>
<g id="Mouth/Smile">
<path id="Vector 52" d="M649.759 820.211C658.917 882.485 763.317 911.79 858.559 840.358" stroke="black" stroke-width="14.6526"/>
</g>
<g id="Eyebrows/Up">
<g id="Group 13">
<path id="Vector 34" d="M794.453 496.807C815.211 487.038 864.053 478.124 893.358 520.617" stroke="black" stroke-width="14.6526" stroke-linecap="round"/>
<path id="Vector 35" d="M518.174 589.508C525.759 567.857 553.641 526.777 604.488 535.665" stroke="black" stroke-width="14.6526" stroke-linecap="round"/>
</g>
</g>
<g id="Eyes/Round">
<g id="Group 9">
<ellipse id="Ellipse 40" cx="608.228" cy="627.712" rx="32.9684" ry="36.6316" transform="rotate(-6.77646 608.228 627.712)" fill="black"/>
<ellipse id="Ellipse 41" cx="842.782" cy="591.066" rx="32.9684" ry="36.6316" transform="rotate(-6.27568 842.782 591.066)" fill="black"/>
</g>
</g>
<g id="Nose/Pointed">
<path id="Vector 27" d="M736.666 631.587C743.803 682.372 774.804 718.706 774.804 718.706C774.804 718.706 765.166 742.255 727.871 740.098" stroke="black" stroke-width="14.6526"/>
</g>
<g id="Shirt/Crew">
<path id="Vector 36" d="M1177.96 1415.47H176.751C236.459 1307.99 321.385 1239.58 459.071 1208.18C517.73 1194.81 586.066 1188.14 666.242 1188.14C700.88 1188.14 727.833 1193.42 753.412 1200.39C762.887 1202.98 772.411 1205.87 782.154 1208.83C798.28 1213.73 815.008 1218.81 833.108 1222.97L833.621 1223.09L834.145 1223.13C1003.11 1237.07 1104.43 1312.12 1177.96 1415.47Z" fill="#515151" stroke="black" stroke-width="14.6526"/>
<path id="Vector 71" d="M416.889 1216.13L450.418 1144.34C451.219 1142.63 453.209 1141.81 454.993 1142.44C593.924 1191.62 720.313 1188.16 837.44 1155.55C838.914 1155.14 840.489 1155.69 841.392 1156.92L892.429 1226.71C893.831 1228.63 893.117 1231.34 890.905 1232.21C767.796 1280.55 536.793 1272.33 418.664 1220.97C416.791 1220.16 416.024 1217.98 416.889 1216.13Z" fill="white" stroke="black" stroke-width="14.6526"/>
</g>
</g>
<g id="Vector">
<path d="M976.254 301.736C944.523 448.398 569.504 468.993 493.925 468.993C295.57 490.78 390.778 720.307 427.2 834.755C398.604 838.431 402.417 871.515 291.843 608.681C203.385 398.414 453.913 270.259 640.041 226.757C826.17 183.254 897.411 122 897.411 122C976.254 153.239 995.085 214.696 976.254 301.736Z" fill="black"/>
<path d="M957.024 572.106L896.71 375.662L934.984 342.054C975.994 478.389 977.869 557.556 957.024 572.106Z" fill="black"/>
<path d="M479.902 737.722C458.55 637.735 404.916 655.625 369.329 660.526L331.2 498.782L485.944 467.557C488.81 466.675 491.878 466.049 495.154 465.698L485.944 467.557C416.735 488.853 464.485 659.774 521.844 730.37L479.902 737.722Z" fill="black"/>
<path d="M270.153 360.429C303.88 344.056 343.71 353.534 359.41 360.319L314.529 415.019C326.103 397.166 289.767 371.187 270.153 360.429Z" fill="black"/>
<path d="M213 423.424C257.229 398.428 300.061 406.882 315.948 414.234L298.79 471.214C294.214 440.335 239.69 426.488 213 423.424Z" fill="black"/>
</g>
<g id="Ear/Detached">
<path id="Union" d="M446.072 658.553L445.357 655.142L442.282 653.641C429.906 647.599 415.838 645.95 402.193 649.333C385.723 653.417 372.021 664.045 364.276 679.92C356.573 695.709 355.105 715.938 361.457 738.936C367.736 761.674 377.133 777.374 389.577 786.425C389.421 790.396 389.973 794.5 391.245 798.665C394.602 809.657 400.664 817.265 409.291 821.072C417.647 824.76 427.255 824.361 436.768 822.002C453.285 817.907 464.526 802.741 471.434 786.043L472.332 783.872L471.858 781.611L446.072 658.553Z" stroke="black" stroke-width="14.6526"/>
<path id="Union_2" fill-rule="evenodd" clip-rule="evenodd" d="M472.459 712.722C472.152 710.285 471.743 707.834 471.228 705.378C463.372 667.888 432.299 649.413 403.755 656.49C375.212 663.567 357.071 693.155 369.018 736.511C375.665 760.636 385.543 775.149 397.654 782.356C396.841 786.509 397.066 791.094 398.566 796.021C404.338 814.976 418.064 818.912 435.304 814.637C465.512 807.147 478.613 749.677 472.459 712.722Z" fill="#E8A084"/>
<path id="Vector 22" d="M422.431 684.928C410.059 681.002 385.169 683.486 384.592 724.829" stroke="black" stroke-width="14.6526"/>
<path id="Vector 23" d="M394.109 693.752C401.752 698.893 417.989 716.615 421.801 746.374" stroke="black" stroke-width="14.6526"/>
</g>
</g>
</g>
<defs>
<clipPath id="clip0">
<rect width="732.632" height="1172.21" fill="white" transform="translate(321.906 170)"/>
</clipPath>
</defs>
</svg>
