<svg width="1392" height="1392" viewBox="0 0 1392 1392" fill="none" xmlns="http://www.w3.org/2000/svg">
<g id="Avatar3">
<g id="Background/3">
<circle id="Background/1" cx="696" cy="696" r="696" fill="#FFEDEF"/>
</g>
<mask id="mask0" mask-type="alpha" maskUnits="userSpaceOnUse" x="0" y="0" width="1392" height="1392">
<circle id="Mask" cx="696" cy="696" r="696" fill="#FFEDEF"/>
</mask>
<g mask="url(#mask0)">
<g id="Body">
<g id="Neck/2">
<path id="Neck/1" d="M893.696 1364.4C840.947 1291.14 799.675 1112.86 794.791 1042.04L543.865 933.979L439.465 1364.4H893.696Z" fill="#FC909F" stroke="black" stroke-width="14.6526"/>
<g id="Mask Group">
<mask id="mask1" mask-type="alpha" maskUnits="userSpaceOnUse" x="439" y="933" width="455" height="432">
<path id="Neck/1_2" d="M893.696 1364.4C840.947 1291.14 799.675 1112.86 794.791 1042.04L543.865 933.979L439.465 1364.4H893.696Z" fill="#FFEDEF"/>
</mask>
<g mask="url(#mask1)">
<ellipse id="Ellipse 42" cx="783.916" cy="926.781" rx="216.126" ry="197.811" fill="black"/>
</g>
</g>
</g>
<g id="Base/1" clip-path="url(#clip0)">
<g id="Neck">
<path id="Neck/1_3" d="M893.811 1327.9C841.061 1254.63 799.79 1112.99 794.905 1042.17L543.979 934.105L439.579 1327.9H893.811Z" fill="#F9C9B6" stroke="black" stroke-width="14.6526"/>
<mask id="mask2" mask-type="alpha" maskUnits="userSpaceOnUse" x="439" y="934" width="455" height="431">
<path id="Mask_2" d="M893.811 1364.53C841.061 1291.26 799.79 1112.99 794.905 1042.17L543.979 934.105L439.579 1364.53H893.811Z" fill="#F9C9B6"/>
</mask>
<g mask="url(#mask2)">
<g id="Ellipse 42_2" style="mix-blend-mode:multiply">
<ellipse cx="783.916" cy="926.779" rx="216.126" ry="197.811" fill="black"/>
</g>
</g>
</g>
<g id="Head">
<mask id="path-9-inside-1" fill="white">
<path fill-rule="evenodd" clip-rule="evenodd" d="M1003.24 710.156C1003.16 709.797 1003.07 709.438 1002.99 709.078C1002.9 708.719 1002.82 708.359 1002.73 708.001L942.615 457.102C942.557 456.856 942.498 456.609 942.439 456.363C942.38 456.117 942.321 455.871 942.261 455.625L941.993 454.506L941.988 454.508C904.558 302.689 751.523 209.339 599.23 245.827C446.937 282.315 352.822 434.88 388.255 587.177L388.248 587.179L450.49 846.962L450.54 846.95C489.379 996.792 641.281 1088.51 792.452 1052.29C943.624 1016.07 1037.47 865.474 1004.19 714.301L1004.23 714.29L1003.24 710.156Z"/>
</mask>
<path fill-rule="evenodd" clip-rule="evenodd" d="M1003.24 710.156C1003.16 709.797 1003.07 709.438 1002.99 709.078C1002.9 708.719 1002.82 708.359 1002.73 708.001L942.615 457.102C942.557 456.856 942.498 456.609 942.439 456.363C942.38 456.117 942.321 455.871 942.261 455.625L941.993 454.506L941.988 454.508C904.558 302.689 751.523 209.339 599.23 245.827C446.937 282.315 352.822 434.88 388.255 587.177L388.248 587.179L450.49 846.962L450.54 846.95C489.379 996.792 641.281 1088.51 792.452 1052.29C943.624 1016.07 1037.47 865.474 1004.19 714.301L1004.23 714.29L1003.24 710.156Z" fill="#F9C9B6"/>
<path d="M1003.24 710.156L988.982 713.515L988.989 713.543L988.995 713.57L1003.24 710.156ZM1002.73 708.001L988.479 711.415L988.485 711.442L988.492 711.469L1002.73 708.001ZM942.615 457.102L928.357 460.477L928.361 460.497L928.366 460.516L942.615 457.102ZM942.439 456.363L928.189 459.775L928.189 459.776L942.439 456.363ZM942.261 455.625L928.012 459.039L928.016 459.057L928.02 459.075L942.261 455.625ZM941.993 454.506L956.242 451.092L952.823 436.823L938.559 440.262L941.993 454.506ZM941.988 454.508L927.761 458.015L931.251 472.168L945.422 468.752L941.988 454.508ZM599.23 245.827L602.644 260.076L602.644 260.076L599.23 245.827ZM388.255 587.177L391.687 601.422L405.821 598.017L402.527 583.857L388.255 587.177ZM388.248 587.179L384.816 572.934L370.589 576.362L373.999 590.593L388.248 587.179ZM450.49 846.962L436.241 850.376L439.656 864.63L453.908 861.211L450.49 846.962ZM450.54 846.95L464.724 843.274L461.114 829.346L447.122 832.702L450.54 846.95ZM1004.19 714.301L1000.78 700.051L986.786 703.4L989.879 717.451L1004.19 714.301ZM1004.23 714.29L1007.65 728.54L1021.9 725.128L1018.48 710.876L1004.23 714.29ZM1017.51 706.798C1017.42 706.418 1017.33 706.04 1017.24 705.664L988.739 712.492C988.821 712.835 988.902 713.176 988.982 713.515L1017.51 706.798ZM1017.24 705.664C1017.15 705.286 1017.06 704.909 1016.96 704.533L988.492 711.469C988.575 711.81 988.657 712.151 988.739 712.492L1017.24 705.664ZM928.366 460.516L988.479 711.415L1016.98 704.587L956.864 453.688L928.366 460.516ZM956.873 453.726C956.812 453.465 956.75 453.206 956.689 452.951L928.189 459.776C928.246 460.013 928.302 460.247 928.357 460.477L956.873 453.726ZM956.689 452.951C956.626 452.69 956.564 452.431 956.502 452.175L928.02 459.075C928.078 459.311 928.134 459.544 928.189 459.775L956.689 452.951ZM927.744 457.921L928.012 459.039L956.51 452.211L956.242 451.092L927.744 457.921ZM945.422 468.752L945.427 468.751L938.559 440.262L938.554 440.263L945.422 468.752ZM956.215 451C916.857 291.366 755.948 193.211 595.816 231.577L602.644 260.076C747.099 225.466 892.258 314.012 927.761 458.015L956.215 451ZM595.816 231.577C435.685 269.944 336.727 430.36 373.984 590.498L402.527 583.857C368.918 439.4 458.19 294.686 602.644 260.076L595.816 231.577ZM391.68 601.424L391.687 601.422L384.823 572.932L384.816 572.934L391.68 601.424ZM464.739 843.548L402.497 583.765L373.999 590.593L436.241 850.376L464.739 843.548ZM447.122 832.702L447.072 832.714L453.908 861.211L453.958 861.199L447.122 832.702ZM436.356 850.627C477.195 1008.19 636.913 1104.62 795.866 1066.54L789.038 1038.04C645.648 1072.39 501.562 985.399 464.724 843.274L436.356 850.627ZM795.866 1066.54C954.819 1028.45 1053.5 870.109 1018.5 711.15L989.879 717.451C1021.45 860.839 932.428 1003.68 789.038 1038.04L795.866 1066.54ZM1000.82 700.04L1000.78 700.051L1007.6 728.551L1007.65 728.54L1000.82 700.04ZM988.995 713.57L989.986 717.704L1018.48 710.876L1017.49 706.743L988.995 713.57Z" fill="black" mask="url(#path-9-inside-1)"/>
</g>
</g>
<g id="Mouth/Smile">
<path id="Vector 52" d="M657.538 807.727C666.695 870 771.095 899.306 866.338 827.874" stroke="black" stroke-width="14.6526"/>
</g>
<g id="Eyebrows/Up">
<g id="Group 13">
<path id="Vector 34" d="M802.231 484.324C822.989 474.556 871.831 465.642 901.136 508.135" stroke="black" stroke-width="14.6526" stroke-linecap="round"/>
<path id="Vector 35" d="M525.953 577.026C533.538 555.375 561.419 514.294 612.266 523.183" stroke="black" stroke-width="14.6526" stroke-linecap="round"/>
</g>
</g>
<g id="Hair/Danny Phantom">
<path id="Vector 40" d="M669.58 177.62L669.86 177.65L670.141 177.658C767.835 180.531 843.779 219.41 897.523 266.856C949.012 312.312 979.758 365.299 989.785 401.413C974.913 409.902 949.437 417.206 916.943 423.197C881.5 429.731 838.944 434.503 795.522 437.905C708.681 444.708 618.995 445.984 577.105 445.073L554.859 444.59L572.466 458.195C581.615 465.265 593.793 470.185 606.674 473.645C619.647 477.13 633.851 479.269 647.45 480.484C661.458 481.735 675.115 482.03 686.429 481.741C647.647 511.639 598.286 534.629 549.615 551.669C493.399 571.35 438.731 582.88 403.715 588.012L395.842 589.166L397.64 596.917C409.902 649.771 432.443 742.164 447.561 804.133C454.269 831.626 459.515 853.13 461.755 862.537C465.727 879.218 478.232 902.997 492.506 924.914C505.667 945.123 521.022 964.802 533.98 976.913L505.268 1093.45H396.982C427.524 1046.88 433.971 993.07 427.743 935.999C421.002 874.223 399.312 807.771 376.448 741.238C374.197 734.688 371.935 728.138 369.674 721.589C348.853 661.297 328.089 601.171 316.84 543.546C304.381 479.719 303.825 419.984 327.217 367.463C365.09 282.427 432.227 233.047 499.382 205.835C566.695 178.558 633.526 173.778 669.58 177.62Z" fill="#77311D" stroke="black" stroke-width="14.6526"/>
</g>
<g id="Eyes/Round">
<g id="Group 9">
<ellipse id="Ellipse 40" cx="616.007" cy="615.228" rx="32.9684" ry="36.6316" transform="rotate(-6.77646 616.007 615.228)" fill="black"/>
<ellipse id="Ellipse 41" cx="850.561" cy="578.582" rx="32.9684" ry="36.6316" transform="rotate(-6.27568 850.561 578.582)" fill="black"/>
</g>
</g>
<g id="Nose/Pointed">
<path id="Vector 27" d="M744.444 619.102C751.581 669.887 782.581 706.221 782.581 706.221C782.581 706.221 772.944 729.771 735.649 727.614" stroke="black" stroke-width="14.6526"/>
</g>
<g id="Ear/Detached">
<path id="Union" d="M479.874 667.608V663.508L476.379 661.364C462.702 652.971 446.069 648.379 428.883 648.379C408.221 648.379 388.878 654.78 375.099 667.775C361.166 680.916 353.649 700.13 355.645 724.082C357.59 747.422 365.426 764.601 378.422 776.015C377.354 779.675 377.039 783.621 377.534 787.774C378.96 799.746 385.012 808.373 394.366 813.689C403.281 818.756 414.692 820.547 426.847 820.547C446.918 820.547 464.517 809.751 477.918 795.312L479.874 793.204V790.328V667.608Z" stroke="black" stroke-width="14.6526"/>
<path id="Union_2" fill-rule="evenodd" clip-rule="evenodd" d="M501.751 725.236C502.012 722.852 502.146 720.431 502.146 717.979C502.146 680.551 467.322 655.705 428.883 655.705C390.444 655.705 359.283 679.516 362.946 723.474C364.984 747.935 373.738 764.033 387.31 773.722C385.154 777.473 384.21 781.88 384.809 786.91C387.114 806.258 403.63 813.223 426.847 813.223C467.532 813.223 499.721 761.756 501.751 725.236Z" fill="#F9C9B6"/>
<path id="Vector 22" d="M445.074 686.842C430.421 680.126 398.185 676.585 386.463 716.147" stroke="black" stroke-width="14.6526"/>
<path id="Vector 23" d="M406.611 688.674C414.548 695.39 429.689 716.148 426.758 745.453" stroke="black" stroke-width="14.6526"/>
</g>
<g id="Shirt/Crew">
<path id="Vector 36" d="M1185.74 1402.99H184.529C244.238 1295.51 329.163 1227.09 466.849 1195.7C525.509 1182.33 593.845 1175.65 674.021 1175.65C708.658 1175.65 735.612 1180.94 761.19 1187.91C770.665 1190.49 780.189 1193.39 789.932 1196.35C806.059 1201.25 822.786 1206.33 840.886 1210.49L841.399 1210.61L841.924 1210.65C1010.89 1224.58 1112.21 1299.64 1185.74 1402.99Z" fill="#DCDCDC" stroke="black" stroke-width="14.6526"/>
<path id="Vector 71" d="M424.668 1203.65L458.197 1131.86C458.998 1130.14 460.988 1129.33 462.772 1129.96C601.703 1179.14 728.091 1175.67 845.219 1143.07C846.693 1142.66 848.268 1143.2 849.171 1144.44L900.208 1214.23C901.61 1216.15 900.895 1218.85 898.683 1219.72C775.575 1268.06 544.572 1259.85 426.443 1208.49C424.569 1207.68 423.803 1205.5 424.668 1203.65Z" fill="white" stroke="black" stroke-width="14.6526"/>
</g>
</g>
</g>
</g>
<defs>
<clipPath id="clip0">
<rect width="732.632" height="1172.21" fill="white" transform="translate(329.685 157.516)"/>
</clipPath>
</defs>
</svg>
