<svg width="1403" height="1392" viewBox="0 0 1403 1392" fill="none" xmlns="http://www.w3.org/2000/svg">
<g id="Avatar2">
<g id="Background">
<circle id="Background/1" cx="696" cy="696" r="696" fill="#FFEDEF"/>
</g>
<mask id="mask0" mask-type="alpha" maskUnits="userSpaceOnUse" x="11" y="0" width="1392" height="1392">
<circle id="Mask" cx="707" cy="696" r="696" fill="#FFEDEF"/>
</mask>
<g mask="url(#mask0)">
<g id="Body">
<g id="Base/1" clip-path="url(#clip0)">
<g id="Neck">
<path id="Neck/1" d="M971.032 1338.38C918.283 1265.12 877.011 1123.48 872.127 1052.65L621.201 944.59L516.801 1338.38H971.032Z" fill="#F9C9B6" stroke="black" stroke-width="14.6526"/>
<mask id="mask1" mask-type="alpha" maskUnits="userSpaceOnUse" x="516" y="944" width="456" height="432">
<path id="Mask_2" d="M971.032 1375.01C918.283 1301.75 877.011 1123.48 872.127 1052.65L621.201 944.59L516.801 1375.01H971.032Z" fill="#AC6651"/>
</mask>
<g mask="url(#mask1)">
<g id="Ellipse 42" style="mix-blend-mode:multiply">
<ellipse cx="861.138" cy="937.264" rx="216.126" ry="197.811" fill="black"/>
</g>
</g>
</g>
<g id="Head">
<mask id="path-6-inside-1" fill="white">
<path fill-rule="evenodd" clip-rule="evenodd" d="M1080.47 720.641C1080.38 720.281 1080.3 719.922 1080.21 719.562C1080.12 719.203 1080.04 718.844 1079.95 718.485L1019.84 467.586C1019.78 467.34 1019.72 467.094 1019.66 466.847C1019.6 466.601 1019.54 466.355 1019.48 466.109L1019.21 464.991L1019.21 464.992C981.779 313.173 828.745 219.823 676.452 256.311C524.159 292.799 430.044 445.364 465.477 597.662L465.47 597.663L527.712 857.447L527.762 857.435C566.6 1007.28 718.502 1098.99 869.674 1062.77C1020.85 1026.55 1114.69 875.959 1081.41 724.785L1081.46 724.774L1080.47 720.641Z"/>
</mask>
<path fill-rule="evenodd" clip-rule="evenodd" d="M1080.47 720.641C1080.38 720.281 1080.3 719.922 1080.21 719.562C1080.12 719.203 1080.04 718.844 1079.95 718.485L1019.84 467.586C1019.78 467.34 1019.72 467.094 1019.66 466.847C1019.6 466.601 1019.54 466.355 1019.48 466.109L1019.21 464.991L1019.21 464.992C981.779 313.173 828.745 219.823 676.452 256.311C524.159 292.799 430.044 445.364 465.477 597.662L465.47 597.663L527.712 857.447L527.762 857.435C566.6 1007.28 718.502 1098.99 869.674 1062.77C1020.85 1026.55 1114.69 875.959 1081.41 724.785L1081.46 724.774L1080.47 720.641Z" fill="#F9C9B6"/>
<path d="M1080.47 720.641L1066.2 724L1066.21 724.027L1066.22 724.055L1080.47 720.641ZM1079.95 718.485L1065.7 721.899L1065.71 721.926L1065.71 721.953L1079.95 718.485ZM1019.84 467.586L1005.58 470.962L1005.58 470.981L1005.59 471L1019.84 467.586ZM1019.66 466.847L1005.41 470.26L1005.41 470.26L1019.66 466.847ZM1019.48 466.109L1005.23 469.524L1005.24 469.541L1005.24 469.559L1019.48 466.109ZM1019.21 464.991L1033.46 461.577L1030.05 447.308L1015.78 450.746L1019.21 464.991ZM1019.21 464.992L1004.98 468.5L1008.47 482.653L1022.64 479.237L1019.21 464.992ZM676.452 256.311L679.866 270.561L679.866 270.561L676.452 256.311ZM465.477 597.662L468.909 611.907L483.043 608.501L479.748 594.341L465.477 597.662ZM465.47 597.663L462.038 583.418L447.811 586.846L451.22 601.077L465.47 597.663ZM527.712 857.447L513.462 860.861L516.877 875.114L531.13 871.695L527.712 857.447ZM527.762 857.435L541.946 853.758L538.335 839.83L524.344 843.186L527.762 857.435ZM1081.41 724.785L1078 710.535L1064.01 713.885L1067.1 727.936L1081.41 724.785ZM1081.46 724.774L1084.87 739.024L1099.12 735.612L1095.71 721.36L1081.46 724.774ZM1094.73 717.282C1094.64 716.902 1094.55 716.525 1094.46 716.149L1065.96 722.976C1066.04 723.319 1066.12 723.66 1066.2 724L1094.73 717.282ZM1094.46 716.149C1094.37 715.77 1094.28 715.393 1094.19 715.017L1065.71 721.953C1065.8 722.295 1065.88 722.636 1065.96 722.976L1094.46 716.149ZM1005.59 471L1065.7 721.899L1094.2 715.071L1034.09 464.172L1005.59 471ZM1034.1 464.21C1034.03 463.949 1033.97 463.69 1033.91 463.435L1005.41 470.26C1005.47 470.497 1005.52 470.731 1005.58 470.962L1034.1 464.21ZM1033.91 463.435C1033.85 463.174 1033.79 462.916 1033.72 462.66L1005.24 469.559C1005.3 469.795 1005.36 470.028 1005.41 470.26L1033.91 463.435ZM1004.97 468.405L1005.23 469.524L1033.73 462.695L1033.46 461.577L1004.97 468.405ZM1022.64 479.237L1022.65 479.235L1015.78 450.746L1015.78 450.747L1022.64 479.237ZM1033.44 461.485C994.079 301.85 833.169 203.696 673.038 242.062L679.866 270.561C824.321 235.95 969.48 324.497 1004.98 468.5L1033.44 461.485ZM673.038 242.062C512.907 280.428 413.948 440.845 451.205 600.982L479.748 594.341C446.139 449.884 535.411 305.171 679.866 270.561L673.038 242.062ZM468.902 611.908L468.909 611.907L462.045 583.417L462.038 583.418L468.902 611.908ZM541.961 854.033L479.719 594.249L451.22 601.077L513.462 860.861L541.961 854.033ZM524.344 843.186L524.294 843.198L531.13 871.695L531.18 871.683L524.344 843.186ZM513.578 861.111C554.417 1018.67 714.135 1115.1 873.088 1077.02L866.26 1048.52C722.87 1082.88 578.784 995.883 541.946 853.758L513.578 861.111ZM873.088 1077.02C1032.04 1038.94 1130.72 880.594 1095.72 721.635L1067.1 727.936C1098.67 871.323 1009.65 1014.17 866.26 1048.52L873.088 1077.02ZM1078.05 710.524L1078 710.535L1084.82 739.035L1084.87 739.024L1078.05 710.524ZM1066.22 724.055L1067.21 728.188L1095.71 721.36L1094.72 717.227L1066.22 724.055Z" fill="black" mask="url(#path-6-inside-1)"/>
</g>
</g>
<g id="Mouth/Laughing">
<g id="Group 11">
<path id="Ellipse 43" d="M966.663 846.333C970.566 832.207 971.942 817.515 970.741 802.935C970.117 795.362 962.374 791.144 955.812 793.73C940.321 799.834 889.076 819.247 852.942 824.218C813.298 829.671 753.259 823.048 735.881 820.89C728.814 820.012 722.514 826.086 723.734 833.467C726.121 847.91 731.037 861.833 738.27 874.59C746.338 888.818 757.128 901.317 770.026 911.375C782.924 921.433 797.676 928.852 813.441 933.208C829.206 937.564 845.675 938.773 861.907 936.765C878.139 934.756 893.816 929.571 908.044 921.504C922.272 913.437 934.772 902.646 944.83 889.748C954.887 876.85 962.306 862.098 966.663 846.333Z" fill="black" stroke="black" stroke-width="14.6526"/>
<g id="Mask Group">
<mask id="mask2" mask-type="alpha" maskUnits="userSpaceOnUse" x="730" y="798" width="234" height="133">
<path id="Ellipse 45" d="M962.948 798.767C964.839 814.044 963.701 829.544 959.601 844.382C955.501 859.219 948.518 873.104 939.052 885.243C929.586 897.382 917.822 907.538 904.431 915.13C891.04 922.723 876.285 927.604 861.007 929.494C845.73 931.384 830.23 930.246 815.393 926.146C800.555 922.046 786.67 915.064 774.531 905.598C762.392 896.132 752.236 884.367 744.644 870.976C737.051 857.585 732.17 842.83 730.28 827.553L962.948 798.767Z" fill="#171921"/>
</mask>
<g mask="url(#mask2)">
<circle id="Ellipse 44" cx="863.051" cy="945.74" r="78.7579" transform="rotate(-7.05286 863.051 945.74)" fill="#FC909F"/>
</g>
</g>
</g>
</g>
<g id="Eyebrows/Up">
<g id="Group 13">
<path id="Vector 34" d="M879.453 494.807C900.211 485.038 949.053 476.124 978.358 518.617" stroke="black" stroke-width="14.6526" stroke-linecap="round"/>
<path id="Vector 35" d="M603.174 587.508C610.759 565.857 638.641 524.777 689.488 533.665" stroke="black" stroke-width="14.6526" stroke-linecap="round"/>
</g>
</g>
<g id="Nose/Round">
<path id="Vector 29" d="M810.871 665.919C829.994 658.643 863.342 660.841 861.289 697.836C859.464 730.716 825.73 737.244 814.983 729.578" stroke="black" stroke-width="14.6526"/>
</g>
<g id="Vector">
<path d="M1063.14 315.736C1030.87 462.398 649.523 482.993 572.668 482.993C370.964 504.78 467.779 734.307 504.817 848.755C475.737 852.431 479.614 885.515 367.174 622.681C277.222 412.414 531.98 284.259 721.251 240.757C910.523 197.254 982.966 136 982.966 136C1063.14 167.239 1082.29 228.696 1063.14 315.736Z" fill="black"/>
<path d="M1043.59 586.106L982.253 389.662L1021.17 356.054C1062.88 492.389 1064.78 571.556 1043.59 586.106Z" fill="black"/>
<path d="M558.409 751.722C536.696 651.735 482.156 669.625 445.969 674.526L407.196 512.782L564.552 481.557C567.467 480.675 570.586 480.049 573.918 479.698L564.552 481.557C494.175 502.853 542.731 673.774 601.058 744.37L558.409 751.722Z" fill="black"/>
<path d="M345.118 374.429C379.414 358.056 419.917 367.534 435.882 374.319L390.244 429.019C402.012 411.166 365.063 385.187 345.118 374.429Z" fill="black"/>
<path d="M287 437.424C331.976 412.428 375.53 420.882 391.686 428.234L374.238 485.214C369.585 454.335 314.141 440.488 287 437.424Z" fill="black"/>
</g>
<g id="Ear/Attached">
<path id="Ellipse 35" d="M533.285 670.496C524.75 667.685 515.536 666.189 506.104 666.189C467.665 666.189 436.505 690 440.168 733.958C443.983 779.747 471.329 796.232 509.768 796.232C514.045 796.232 518.232 795.856 522.296 795.137C526.73 794.352 531.018 793.158 535.117 791.597" stroke="#171921" stroke-width="29.3053"/>
<path id="Ellipse 36" d="M536.948 790.869C528.598 794.322 519.412 796.232 509.768 796.232C471.329 796.232 443.983 779.747 440.168 733.958C436.505 690 467.665 666.189 506.104 666.189C517.597 666.189 528.767 668.411 538.78 672.525L536.948 790.869Z" fill="#F9C9B6"/>
<path id="Vector 22" d="M522.296 697.326C507.643 690.611 475.407 687.07 463.685 726.632" stroke="#171921" stroke-width="14.6526"/>
<path id="Vector 23" d="M483.833 699.158C491.769 705.874 506.91 726.632 503.98 755.937" stroke="#171921" stroke-width="14.6526"/>
</g>
</g>
<g id="Shirt/Collared">
<path id="Vector 36" d="M775.423 1315.76C775.423 1315.76 775.424 1315.76 779.924 1309.98L775.424 1315.76L781.728 1320.67L786.071 1313.96L786.072 1313.96L786.079 1313.95L786.112 1313.9C786.143 1313.85 786.192 1313.78 786.258 1313.68C786.391 1313.48 786.593 1313.17 786.861 1312.77C787.399 1311.97 788.204 1310.78 789.256 1309.26C791.361 1306.22 794.452 1301.87 798.369 1296.66C806.214 1286.25 817.315 1272.49 830.386 1259.04C843.492 1245.55 858.367 1232.6 873.731 1223.58C889.156 1214.53 904.368 1209.86 918.468 1211.77C1070.11 1232.2 1181.73 1299.28 1254.23 1399.19H277.128C335.409 1294.48 418.282 1227.82 552.59 1197.21C558.285 1195.91 566.048 1196.3 575.778 1198.57C585.406 1200.8 596.387 1204.74 608.236 1209.94C631.932 1220.35 658.389 1235.53 683.255 1251.26C708.083 1266.97 731.138 1283.1 747.998 1295.32C756.424 1301.42 763.292 1306.54 768.049 1310.13C770.427 1311.93 772.277 1313.34 773.53 1314.3C774.156 1314.78 774.632 1315.15 774.951 1315.39L775.105 1315.51L775.309 1315.67L775.397 1315.74L775.418 1315.76L775.423 1315.76Z" fill="#6BD9E9" stroke="black" stroke-width="14.6526"/>
<path id="Vector 71" d="M510.233 1206.56L528.664 1137.99C529.431 1135.14 533.12 1134.33 535.115 1136.51C588.122 1194.38 654.921 1192.27 677.365 1189.62C680.461 1189.25 682.89 1192.64 681.435 1195.4L634.482 1284.39C633.744 1285.79 632.234 1286.56 630.684 1286.24C616.43 1283.27 546.209 1266.05 510.658 1209.42C510.124 1208.57 509.972 1207.53 510.233 1206.56Z" fill="#D2EFF3" stroke="black" stroke-width="14.6526"/>
<path id="Vector 87" d="M977.356 1206.18L936.029 1136.69C934.589 1134.27 931.041 1134.31 929.503 1136.67C909.028 1168.08 873.855 1182.61 861.393 1186.95C859.113 1187.75 858.066 1190.46 859.296 1192.54L907.515 1273.96C908.253 1275.21 909.644 1275.89 911.037 1275.49C918.735 1273.28 944.885 1262.27 977.309 1209.99C978.025 1208.83 978.051 1207.35 977.356 1206.18Z" fill="#D2EFF3" stroke="black" stroke-width="14.6526"/>
<path id="Vector 85" d="M713.739 1268.86L681.542 1191.99L656.499 1245.62L713.739 1268.86Z" fill="black" stroke="black" stroke-width="14.6526" stroke-linejoin="round"/>
<path id="Vector 88" d="M826.432 1265.29L858.63 1188.42L883.672 1242.05L826.432 1265.29Z" fill="black" stroke="black" stroke-width="14.6526" stroke-linejoin="round"/>
<path id="Vector 86" d="M574.217 1124.05L531.287 1134.78L567.062 1158.02L574.217 1124.05Z" fill="black" stroke="black" stroke-width="14.6526" stroke-linejoin="round"/>
<path id="Vector 89" d="M894.402 1124.05L933.754 1134.78L908.712 1158.02L894.402 1124.05Z" fill="black" stroke="black" stroke-width="14.6526" stroke-linejoin="round"/>
</g>
<g id="Vector_2">
<path d="M714.695 658.039C716.935 676.88 705 693.788 688.038 695.803C671.076 697.818 655.51 684.177 653.27 665.336C651.031 646.494 662.966 629.587 679.928 627.572C696.89 625.557 712.456 639.197 714.695 658.039Z" fill="black"/>
<path d="M934.768 623.939C936.843 642.799 924.76 659.602 907.781 661.469C890.802 663.335 875.356 649.559 873.282 630.699C871.207 611.839 883.289 595.036 900.268 593.169C917.247 591.303 932.693 605.079 934.768 623.939Z" fill="black"/>
</g>
</g>
</g>
<defs>
<clipPath id="clip0">
<rect width="732.632" height="1172.21" fill="white" transform="translate(406.906 168)"/>
</clipPath>
</defs>
</svg>
