<svg width="1392" height="1392" viewBox="0 0 1392 1392" fill="none" xmlns="http://www.w3.org/2000/svg">
<g id="Avatar4">
<g id="Background/2">
<circle id="Background/1" cx="696" cy="696" r="696" fill="#FFEDEF"/>
</g>
<mask id="mask0" mask-type="alpha" maskUnits="userSpaceOnUse" x="0" y="0" width="1392" height="1392">
<circle id="Mask" cx="696" cy="696" r="696" fill="#FFEDEF"/>
</mask>
<g mask="url(#mask0)">
<g id="Body">
<g id="Neck/2">
<path id="Neck/1" d="M931.772 1353.4C879.023 1280.14 837.751 1101.86 832.867 1031.04L581.941 922.979L477.541 1353.4H931.772Z" fill="#FC909F" stroke="black" stroke-width="14.6526"/>
<g id="Mask Group">
<mask id="mask1" mask-type="alpha" maskUnits="userSpaceOnUse" x="477" y="922" width="455" height="432">
<path id="Neck/1_2" d="M931.772 1353.4C879.023 1280.14 837.751 1101.86 832.867 1031.04L581.941 922.979L477.541 1353.4H931.772Z" fill="#FFEDEF"/>
</mask>
<g mask="url(#mask1)">
<ellipse id="Ellipse 42" cx="821.994" cy="915.781" rx="216.126" ry="197.811" fill="black"/>
</g>
</g>
</g>
<g id="Base/1" clip-path="url(#clip0)">
<g id="Neck">
<path id="Neck/1_3" d="M931.877 1316.9C879.127 1243.63 837.856 1101.99 832.972 1031.17L582.045 923.105L477.645 1316.9H931.877Z" fill="#F9C9B6" stroke="black" stroke-width="14.6526"/>
<mask id="mask2" mask-type="alpha" maskUnits="userSpaceOnUse" x="477" y="923" width="455" height="431">
<path id="Mask_2" d="M931.877 1353.53C879.127 1280.26 837.856 1101.99 832.972 1031.17L582.045 923.105L477.645 1353.53H931.877Z" fill="#AC6651"/>
</mask>
<g mask="url(#mask2)">
<g id="Ellipse 42_2" style="mix-blend-mode:multiply">
<ellipse cx="821.982" cy="915.779" rx="216.126" ry="197.811" fill="black"/>
</g>
</g>
</g>
<g id="Head">
<mask id="path-9-inside-1" fill="white">
<path fill-rule="evenodd" clip-rule="evenodd" d="M1041.31 699.156C1041.23 698.797 1041.14 698.438 1041.05 698.078C1040.97 697.719 1040.88 697.359 1040.79 697.001L980.681 446.102C980.623 445.856 980.564 445.609 980.505 445.363C980.446 445.117 980.387 444.871 980.328 444.625L980.06 443.506L980.054 443.508C942.624 291.689 789.59 198.339 637.297 234.827C485.004 271.315 390.889 423.88 426.322 576.177L426.315 576.179L488.556 835.962L488.606 835.95C527.445 985.792 679.347 1077.51 830.519 1041.29C981.69 1005.07 1075.54 854.474 1042.26 703.301L1042.3 703.29L1041.31 699.156Z"/>
</mask>
<path fill-rule="evenodd" clip-rule="evenodd" d="M1041.31 699.156C1041.23 698.797 1041.14 698.438 1041.05 698.078C1040.97 697.719 1040.88 697.359 1040.79 697.001L980.681 446.102C980.623 445.856 980.564 445.609 980.505 445.363C980.446 445.117 980.387 444.871 980.328 444.625L980.06 443.506L980.054 443.508C942.624 291.689 789.59 198.339 637.297 234.827C485.004 271.315 390.889 423.88 426.322 576.177L426.315 576.179L488.556 835.962L488.606 835.95C527.445 985.792 679.347 1077.51 830.519 1041.29C981.69 1005.07 1075.54 854.474 1042.26 703.301L1042.3 703.29L1041.31 699.156Z" fill="#F9C9B6"/>
<path d="M1041.31 699.156L1027.05 702.515L1027.06 702.543L1027.06 702.57L1041.31 699.156ZM1040.79 697.001L1026.55 700.415L1026.55 700.442L1026.56 700.469L1040.79 697.001ZM980.681 446.102L966.423 449.477L966.427 449.497L966.432 449.516L980.681 446.102ZM980.505 445.363L966.256 448.775L966.256 448.776L980.505 445.363ZM980.328 444.625L966.078 448.039L966.083 448.057L966.087 448.075L980.328 444.625ZM980.06 443.506L994.309 440.092L990.89 425.823L976.626 429.262L980.06 443.506ZM980.054 443.508L965.828 447.015L969.317 461.168L983.488 457.752L980.054 443.508ZM637.297 234.827L640.711 249.076L640.711 249.076L637.297 234.827ZM426.322 576.177L429.754 590.422L443.888 587.017L440.593 572.857L426.322 576.177ZM426.315 576.179L422.883 561.934L408.655 565.362L412.065 579.593L426.315 576.179ZM488.556 835.962L474.307 839.376L477.722 853.63L491.974 850.211L488.556 835.962ZM488.606 835.95L502.79 832.274L499.18 818.346L485.189 821.702L488.606 835.95ZM1042.26 703.301L1038.84 689.051L1024.85 692.4L1027.95 706.451L1042.26 703.301ZM1042.3 703.29L1045.71 717.54L1059.97 714.128L1056.55 699.876L1042.3 703.29ZM1055.57 695.798C1055.48 695.418 1055.39 695.04 1055.3 694.664L1026.81 701.492C1026.89 701.835 1026.97 702.176 1027.05 702.515L1055.57 695.798ZM1055.3 694.664C1055.21 694.286 1055.12 693.909 1055.03 693.533L1026.56 700.469C1026.64 700.81 1026.72 701.151 1026.81 701.492L1055.3 694.664ZM966.432 449.516L1026.55 700.415L1055.04 693.587L994.931 442.688L966.432 449.516ZM994.94 442.726C994.878 442.465 994.816 442.206 994.755 441.951L966.256 448.776C966.313 449.013 966.368 449.247 966.423 449.477L994.94 442.726ZM994.755 441.951C994.693 441.69 994.63 441.431 994.568 441.175L966.087 448.075C966.144 448.311 966.2 448.544 966.256 448.775L994.755 441.951ZM965.81 446.921L966.078 448.039L994.577 441.211L994.309 440.092L965.81 446.921ZM983.488 457.752L983.494 457.751L976.626 429.262L976.62 429.263L983.488 457.752ZM994.281 440C954.924 280.366 794.014 182.211 633.883 220.577L640.711 249.076C785.165 214.466 930.324 303.012 965.828 447.015L994.281 440ZM633.883 220.577C473.751 258.944 374.793 419.36 412.05 579.498L440.593 572.857C406.984 428.4 496.256 283.686 640.711 249.076L633.883 220.577ZM429.747 590.424L429.754 590.422L422.89 561.932L422.883 561.934L429.747 590.424ZM502.806 832.548L440.564 572.765L412.065 579.593L474.307 839.376L502.806 832.548ZM485.189 821.702L485.138 821.714L491.974 850.211L492.024 850.199L485.189 821.702ZM474.423 839.627C515.261 997.186 674.979 1093.62 833.933 1055.54L827.105 1027.04C683.715 1061.39 539.629 974.399 502.79 832.274L474.423 839.627ZM833.933 1055.54C992.886 1017.45 1091.56 859.109 1056.57 700.15L1027.95 706.451C1059.51 849.839 970.495 992.683 827.105 1027.04L833.933 1055.54ZM1038.89 689.04L1038.84 689.051L1045.67 717.551L1045.71 717.54L1038.89 689.04ZM1027.06 702.57L1028.05 706.704L1056.55 699.876L1055.56 695.743L1027.06 702.57Z" fill="black" mask="url(#path-9-inside-1)"/>
</g>
</g>
<g id="Hair/Doug Funny">
<path id="Vector 30" d="M769.842 348.137C823.568 345.695 917.834 315.902 865.084 216.264" stroke="black" stroke-width="14.6526"/>
<path id="Vector 31" d="M674.6 340.811C728.326 338.369 822.592 308.575 769.842 208.938" stroke="black" stroke-width="14.6526"/>
<path id="Vector 32" d="M542.726 381.106C596.453 378.664 690.718 348.87 637.968 249.232" stroke="black" stroke-width="14.6526"/>
</g>
<g id="Nose/Curve">
<path id="Vector 27" d="M784.554 622.618C785.299 636.693 790.773 666.873 806.711 674.991C826.633 685.138 811.015 718.776 773.72 716.619" stroke="black" stroke-width="14.6526"/>
</g>
<path id="Union" d="M203.495 1248.08C202.935 1246.64 202.166 1244.63 201.232 1242.08C199.155 1236.39 196.264 1228.03 193.047 1217.39C186.611 1196.1 178.878 1165.74 173.724 1129.55C163.404 1057.11 163.48 961.76 204.481 869.037C211.108 854.049 219.391 838.652 228.367 821.964C263.049 757.484 308.094 673.739 308.094 519.939C308.094 407.88 362.484 313.508 442.559 246.98C522.706 180.392 628.271 142 729.657 142C785.085 142 829.647 148.35 865.464 169.987C901.06 191.49 929.087 228.769 949.904 293C952.023 299.537 959.022 303.532 965.864 301.313C1007.32 287.865 1070.16 301.44 1123.21 336.072C1176.03 370.553 1217.05 424.556 1217.05 489.646C1217.05 546.153 1207.37 584.336 1197.93 621.521C1186.51 666.539 1175.48 710.021 1183.26 780.861C1185.86 804.486 1191.14 821.24 1198.52 835.13C1205.78 848.798 1214.93 859.379 1224.58 870.531L1224.8 870.785C1247.78 897.352 1258.24 919.206 1261.62 938.431C1264.98 957.607 1261.46 975 1254.9 993.046C1251.61 1002.11 1247.6 1011.21 1243.35 1020.81L1242.99 1021.64C1238.88 1030.91 1234.58 1040.63 1230.71 1050.85C1222.72 1071.99 1216.48 1095.56 1217.1 1123.51C1217.62 1147.23 1221.83 1163.48 1228.12 1175.78C1234.34 1187.94 1242.36 1195.72 1249.36 1202.51L1249.55 1202.69C1255.94 1208.87 1261.25 1214.08 1265.18 1221.38C1268.69 1227.91 1271.3 1236.52 1271.73 1249.45C1183.78 1301.76 1096.74 1323.38 1031.37 1331.88C998.27 1336.18 970.765 1337.12 951.576 1336.99C941.982 1336.92 934.471 1336.58 929.384 1336.27C927.594 1336.16 926.105 1336.05 924.93 1335.95C902.399 1301.56 881.871 1244.82 865.965 1186.54C850.5 1129.87 839.642 1072.65 835.56 1034.85C971.364 995.588 1056.49 855.424 1036.02 710.81C1036 710.598 1035.98 710.44 1035.97 710.382L1035.97 710.357C1035.94 710.138 1035.9 709.889 1035.85 709.63C1035.77 709.104 1035.65 708.403 1035.49 707.55C1035.18 705.837 1034.72 703.421 1034.13 700.395C1032.94 694.338 1031.19 685.787 1028.95 675.433C1024.49 654.73 1018.06 626.776 1010.21 597.124C1002.37 567.492 993.093 536.06 982.91 508.44C972.802 481.021 961.55 456.631 949.545 441.627L948.459 440.27L946.865 439.578C939.785 436.508 932.437 433.086 924.766 429.515C888.387 412.576 844.761 392.263 788.262 390.029C719.486 387.309 632.39 411.186 514.656 496.574L507.247 501.948L514.374 507.691C572.714 554.704 585.327 617.063 582.631 669.998C580.574 710.398 569.628 744.766 563.453 761.945C559.198 755.729 556.489 747.916 554.452 738.741C553.043 732.398 552.016 725.714 550.94 718.714L550.77 717.606C549.646 710.301 548.448 702.681 546.703 695.322C543.217 680.629 537.323 665.943 524.24 655.544C511.127 645.121 492.018 639.958 464.189 641.511L456.03 641.966L457.733 649.959L499.342 845.253L499.411 845.58L499.512 845.9C514.377 893.016 539.867 933.855 572.457 966.096C572.735 966.561 573.14 967.243 573.655 968.125C574.715 969.938 576.241 972.591 578.089 975.924C581.788 982.595 586.764 991.964 591.866 1002.75C602.174 1024.54 612.6 1051.29 614.609 1073.14C616.647 1095.31 611.073 1123.91 604.691 1147.54C601.533 1159.24 598.238 1169.5 595.734 1176.83C595.213 1178.36 594.726 1179.75 594.282 1181.01C575.847 1172.2 559.383 1172.86 545.273 1181.07C530.021 1189.95 518.851 1206.93 510.535 1225.82C495.339 1260.33 488.031 1305.09 484.659 1332.86C393.554 1311.96 323.208 1290.75 275.345 1274.63C250.752 1266.35 232.095 1259.42 219.608 1254.56C213.365 1252.13 208.664 1250.22 205.535 1248.93C204.758 1248.61 204.078 1248.32 203.495 1248.08Z" fill="#E8A084" stroke="black" stroke-width="14"/>
<g id="Ear/Attached">
<path id="Ellipse 35" d="M494.133 649.011C485.598 646.201 476.384 644.705 466.952 644.705C428.513 644.705 397.353 668.516 401.016 712.474C404.831 758.263 432.177 774.747 470.616 774.747C474.893 774.747 479.08 774.372 483.143 773.652C487.578 772.867 491.866 771.674 495.965 770.112" stroke="black" stroke-width="29.3053"/>
<path id="Ellipse 36" d="M497.796 769.385C489.445 772.837 480.26 774.747 470.616 774.747C432.177 774.747 404.831 758.263 401.016 712.474C397.353 668.516 428.513 644.705 466.952 644.705C478.445 644.705 489.615 646.926 499.628 651.041L497.796 769.385Z" fill="#F9C9B6"/>
<path id="Vector 22" d="M483.143 675.842C468.491 669.126 436.255 665.585 424.533 705.147" stroke="black" stroke-width="14.6526"/>
<path id="Vector 23" d="M444.68 677.674C452.617 684.39 467.758 705.148 464.828 734.453" stroke="black" stroke-width="14.6526"/>
</g>
<g id="Shirt/Open">
<path id="Vector 36" d="M1222.61 1401.49H222.895C223.021 1401.23 223.148 1400.97 223.276 1400.71C239.924 1366.81 270.639 1304.26 310.613 1248.29C333.302 1216.53 358.703 1187.28 385.851 1166.71C413.003 1146.14 441.238 1134.73 469.921 1137.24C525.067 1142.06 574.186 1172.26 623.499 1202.57C628.171 1205.44 632.846 1208.32 637.527 1211.17C690.587 1243.51 745.075 1273.53 805.001 1260.39C825.275 1255.95 838.938 1246.43 847.537 1234.15C856.013 1222.03 859.06 1207.95 859.587 1195.08C860.114 1182.2 858.14 1170.02 856.089 1161.16C855.13 1157.02 854.141 1153.55 853.351 1151.01C866.63 1137.64 880.689 1129.86 895.205 1126.35C910.936 1122.55 927.758 1123.65 945.455 1128.88C981.096 1139.43 1019.23 1166.44 1056.45 1201.17C1124.63 1264.81 1187.2 1351.89 1222.61 1401.49Z" fill="white" stroke="black" stroke-width="15.6575"/>
</g>
</g>
<path id="Vector 66" d="M674.153 833.703C716.688 870.866 777.591 909.301 854.435 882.506C931.28 855.712 955.674 794.494 936.578 752.637" stroke="black" stroke-width="22"/>
<g id="Vector">
<path d="M929.125 579.424C931.093 597.372 919.63 613.362 903.52 615.139C887.41 616.915 872.755 603.805 870.786 585.857C868.818 567.909 880.282 551.919 896.391 550.143C912.501 548.366 927.156 561.476 929.125 579.424Z" fill="black"/>
<path d="M720.32 611.875C722.445 629.805 711.121 645.895 695.027 647.812C678.934 649.73 664.165 636.749 662.04 618.819C659.915 600.889 671.239 584.799 687.333 582.881C703.426 580.964 718.195 593.945 720.32 611.875Z" fill="black"/>
<path d="M853.826 511.664C872.303 502.945 915.777 494.99 941.862 532.915M607.912 594.401C614.663 575.077 639.481 538.413 684.74 546.346M616.047 574.578L596 556.837M931.953 514.746L952 497.004M637.075 556.127L623.88 532.808M907.665 502.834L920.859 479.515M663.408 544.313L656.231 518.485M878.071 500.827L885.248 475M720.32 611.875C722.445 629.805 711.121 645.895 695.027 647.812C678.934 649.73 664.165 636.749 662.04 618.819C659.915 600.889 671.239 584.799 687.333 582.881C703.426 580.964 718.195 593.945 720.32 611.875ZM929.125 579.424C931.093 597.372 919.63 613.362 903.52 615.139C887.41 616.915 872.755 603.805 870.786 585.857C868.818 567.909 880.282 551.919 896.391 550.143C912.501 548.366 927.156 561.476 929.125 579.424Z" stroke="black" stroke-width="11" stroke-linecap="round"/>
</g>
</g>
</g>
<defs>
<clipPath id="clip0">
<rect width="732.632" height="1172.21" fill="white" transform="translate(367.75 146.516)"/>
</clipPath>
</defs>
</svg>
