<svg width="56" height="61" viewBox="0 0 56 61" fill="none" xmlns="http://www.w3.org/2000/svg">
<g clip-path="url(#clip0)">
<path d="M31 -1.09278e-06C44.8071 -4.89256e-07 56 11.1929 56 25L56 61L25 61C11.1929 61 1.63756e-06 49.8071 2.24109e-06 36L3.8147e-06 -2.44784e-06L31 -1.09278e-06Z" fill="black"/>
<path d="M11.44 14.15V29H9.94V12.8C9.94 11.96 9.73 11.3 9.31 10.82C8.91 10.34 8.22 10.1 7.24 10.1H7.09V9.2H9.19C10.31 9.2 11.22 9.35 11.92 9.65C12.64 9.93 13.24 10.38 13.72 11L24.04 23V9.2H25.54V29.09H24.16L11.44 14.15ZM39.8615 29.51C38.7415 29.51 37.6615 29.36 36.6215 29.06C35.5815 28.78 34.7315 28.37 34.0715 27.83C33.4115 27.27 33.0815 26.63 33.0815 25.91V22.4H33.9215C34.2215 24.44 34.8515 25.91 35.8115 26.81C36.7715 27.71 38.1115 28.16 39.8315 28.16C40.9915 28.16 41.9115 27.91 42.5915 27.41C43.2715 26.91 43.6115 26.19 43.6115 25.25C43.6115 24.45 43.3615 23.77 42.8615 23.21C42.3615 22.65 41.5815 22.04 40.5215 21.38L36.8315 19.16C35.4915 18.38 34.5315 17.57 33.9515 16.73C33.3915 15.89 33.1115 14.91 33.1115 13.79C33.1115 12.21 33.7115 10.96 34.9115 10.04C36.1315 9.12 37.7715 8.66 39.8315 8.66C40.9515 8.66 42.0315 8.81 43.0715 9.11C44.1115 9.39 44.9615 9.81 45.6215 10.37C46.2815 10.91 46.6115 11.54 46.6115 12.26V15.77H45.7715C45.4315 13.73 44.8015 12.26 43.8815 11.36C42.9615 10.46 41.7215 10.01 40.1615 10.01C39.0815 10.01 38.2215 10.27 37.5815 10.79C36.9615 11.31 36.6515 12.02 36.6515 12.92C36.6515 13.7 36.8915 14.35 37.3715 14.87C37.8715 15.37 38.6715 15.94 39.7715 16.58L43.4615 18.77C44.8615 19.59 45.8615 20.39 46.4615 21.17C47.0815 21.93 47.3915 22.85 47.3915 23.93C47.3915 25.67 46.7315 27.04 45.4115 28.04C44.1115 29.02 42.2615 29.51 39.8615 29.51ZM18.01 53.6C15.95 53.6 14.17 53.16 12.67 52.28C11.19 51.38 10.06 50.16 9.28 48.62C8.5 47.08 8.11 45.34 8.11 43.4C8.11 41.4 8.54 39.58 9.4 37.94C10.26 36.28 11.44 34.98 12.94 34.04C14.46 33.08 16.15 32.6 18.01 32.6C19.77 32.6 21.24 32.83 22.42 33.29C23.6 33.73 24.5 34.31 25.12 35.03C25.48 35.49 25.7 36.06 25.78 36.74C25.86 37.42 25.9 38.37 25.9 39.59H25C24.62 37.75 23.92 36.35 22.9 35.39C21.88 34.43 20.55 33.95 18.91 33.95C16.87 33.95 15.26 34.67 14.08 36.11C12.9 37.55 12.31 39.98 12.31 43.4C12.31 45.94 12.85 48.05 13.93 49.73C15.01 51.41 16.67 52.25 18.91 52.25C20.31 52.25 21.59 51.88 22.75 51.14C23.93 50.4 24.88 49.34 25.6 47.96L26.65 48.77C25.69 50.45 24.53 51.68 23.17 52.46C21.81 53.22 20.09 53.6 18.01 53.6ZM39.5713 53.6C37.5113 53.6 35.7313 53.16 34.2313 52.28C32.7513 51.38 31.6213 50.16 30.8413 48.62C30.0613 47.08 29.6713 45.34 29.6713 43.4C29.6713 41.4 30.1013 39.58 30.9613 37.94C31.8213 36.28 33.0013 34.98 34.5013 34.04C36.0213 33.08 37.7113 32.6 39.5713 32.6C41.3313 32.6 42.8013 32.83 43.9813 33.29C45.1613 33.73 46.0613 34.31 46.6813 35.03C47.0413 35.49 47.2613 36.06 47.3413 36.74C47.4213 37.42 47.4613 38.37 47.4613 39.59H46.5613C46.1813 37.75 45.4813 36.35 44.4613 35.39C43.4413 34.43 42.1113 33.95 40.4713 33.95C38.4313 33.95 36.8213 34.67 35.6413 36.11C34.4613 37.55 33.8713 39.98 33.8713 43.4C33.8713 45.94 34.4113 48.05 35.4913 49.73C36.5713 51.41 38.2313 52.25 40.4713 52.25C41.8713 52.25 43.1513 51.88 44.3113 51.14C45.4913 50.4 46.4413 49.34 47.1613 47.96L48.2113 48.77C47.2513 50.45 46.0913 51.68 44.7313 52.46C43.3713 53.22 41.6513 53.6 39.5713 53.6Z" fill="white"/>
</g>
<defs>
<clipPath id="clip0">
<rect width="56" height="61" fill="white"/>
</clipPath>
</defs>
</svg>
