<svg width="877" height="681" viewBox="0 0 877 681" fill="none" xmlns="http://www.w3.org/2000/svg">
<path fill-rule="evenodd" clip-rule="evenodd" d="M2.31684 2.40163C3.79801 0.866253 5.8062 0.00255393 7.90089 0H869.099C871.194 0.00255393 873.202 0.866253 874.683 2.40163C876.164 3.937 876.997 6.01869 877 8.19004V672.81C876.997 674.981 876.164 677.063 874.683 678.598C873.202 680.134 871.194 680.997 869.099 681H7.90089C5.8062 680.997 3.79801 680.134 2.31684 678.598C0.835666 677.063 0.00246112 674.981 0 672.81V8.19004C0.00246112 6.01869 0.835666 3.937 2.31684 2.40163ZM25.283 654.793V26.208H851.717V654.793H25.283Z" fill="#E6E6E6"/>
<path d="M436.624 624.514C463.269 624.514 484.868 602.102 484.868 574.454C484.868 546.807 463.269 524.395 436.624 524.395C409.98 524.395 388.381 546.807 388.381 574.454C388.381 602.102 409.98 624.514 436.624 624.514Z" fill="#E6E6E6"/>
<path d="M436.884 612.583C457.369 612.583 473.975 595.512 473.975 574.454C473.975 553.397 457.369 536.326 436.884 536.326C416.4 536.326 399.793 553.397 399.793 574.454C399.793 595.512 416.4 612.583 436.884 612.583Z" fill="white"/>
<path d="M455.169 595.464C454.948 595.464 454.728 595.419 454.524 595.331C454.319 595.243 454.133 595.113 453.977 594.95L416.857 556.404C416.554 556.073 416.388 555.631 416.393 555.175C416.399 554.718 416.576 554.281 416.888 553.958C417.199 553.635 417.619 553.451 418.059 553.445C418.499 553.439 418.924 553.612 419.243 553.927L456.362 592.473C456.598 592.718 456.758 593.03 456.824 593.37C456.889 593.71 456.855 594.062 456.728 594.382C456.6 594.702 456.384 594.976 456.106 595.168C455.829 595.361 455.503 595.464 455.169 595.464H455.169Z" fill="#4A4A4A"/>
<path d="M436.041 581.078L430.261 575.298C430.228 575.265 430.186 575.243 430.139 575.236C430.093 575.228 430.046 575.236 430.004 575.256C429.963 575.277 429.929 575.311 429.907 575.352C429.885 575.393 429.877 575.44 429.883 575.486C430.116 576.986 430.82 578.372 431.893 579.445C432.966 580.518 434.353 581.223 435.853 581.456C435.899 581.462 435.946 581.454 435.987 581.432C436.028 581.41 436.062 581.376 436.082 581.334C436.103 581.293 436.11 581.245 436.103 581.199C436.096 581.153 436.074 581.111 436.041 581.078L436.041 581.078Z" fill="#6C63FF"/>
<path d="M437.722 567.832L443.019 573.61C443.049 573.643 443.088 573.666 443.131 573.673C443.173 573.681 443.217 573.674 443.255 573.653C443.293 573.632 443.325 573.598 443.345 573.557C443.365 573.516 443.372 573.468 443.366 573.422C443.153 571.922 442.509 570.536 441.525 569.463C440.542 568.39 439.272 567.686 437.898 567.454C437.855 567.447 437.811 567.454 437.773 567.476C437.735 567.497 437.704 567.531 437.684 567.573C437.665 567.615 437.658 567.663 437.665 567.709C437.671 567.755 437.691 567.798 437.722 567.832V567.832Z" fill="#6C63FF"/>
<path d="M461.512 576.507C461.861 575.938 462.045 575.276 462.043 574.601C462.041 573.926 461.853 573.266 461.501 572.699C458.796 568.304 455.23 564.552 451.036 561.685C446.785 558.747 441.808 557.147 436.703 557.076C434.129 557.08 431.572 557.516 429.132 558.368C429.064 558.391 429.002 558.433 428.954 558.488C428.905 558.543 428.871 558.61 428.854 558.683C428.838 558.756 428.84 558.832 428.859 558.904C428.879 558.976 428.916 559.041 428.967 559.094L433.948 564.27C433.999 564.323 434.064 564.362 434.134 564.383C434.205 564.403 434.279 564.403 434.35 564.385C436.038 563.957 437.804 563.988 439.477 564.476C441.15 564.963 442.674 565.889 443.903 567.166C445.132 568.443 446.023 570.027 446.492 571.765C446.961 573.504 446.991 575.339 446.579 577.093C446.562 577.167 446.562 577.244 446.582 577.317C446.601 577.39 446.638 577.457 446.69 577.51L453.854 584.96C453.928 585.038 454.028 585.083 454.133 585.088C454.239 585.093 454.342 585.057 454.423 584.986C457.18 582.544 459.57 579.686 461.512 576.507V576.507Z" fill="#4A4A4A"/>
<path d="M437.012 584.918C435.48 584.918 433.969 584.562 432.592 583.876C431.215 583.19 430.007 582.192 429.061 580.958C428.114 579.724 427.453 578.286 427.127 576.752C426.802 575.217 426.82 573.628 427.181 572.102C427.199 572.029 427.198 571.953 427.179 571.881C427.16 571.809 427.122 571.743 427.071 571.69L420.028 564.466C419.954 564.389 419.854 564.344 419.748 564.339C419.642 564.335 419.539 564.371 419.458 564.441C416.752 566.846 414.356 569.595 412.328 572.621C411.947 573.182 411.737 573.847 411.725 574.531C411.713 575.214 411.9 575.886 412.261 576.461C414.921 580.798 418.451 584.505 422.616 587.335C426.87 590.244 431.864 591.808 436.978 591.833C439.577 591.826 442.159 591.405 444.631 590.585C444.7 590.562 444.762 590.522 444.812 590.468C444.861 590.413 444.896 590.347 444.913 590.275C444.93 590.203 444.929 590.128 444.909 590.056C444.889 589.985 444.852 589.92 444.801 589.867L439.8 584.74C439.748 584.687 439.684 584.649 439.613 584.629C439.543 584.609 439.469 584.608 439.398 584.627C438.617 584.821 437.816 584.919 437.012 584.918V584.918Z" fill="#4A4A4A"/>
<path d="M253.505 624.514C280.15 624.514 301.749 602.102 301.749 574.455C301.749 546.808 280.15 524.396 253.505 524.396C226.861 524.396 205.261 546.808 205.261 574.455C205.261 602.102 226.861 624.514 253.505 624.514Z" fill="#E6E6E6"/>
<path d="M253.505 612.583C273.847 612.583 290.337 595.512 290.337 574.454C290.337 553.397 273.847 536.326 253.505 536.326C233.164 536.326 216.674 553.397 216.674 574.454C216.674 595.512 233.164 612.583 253.505 612.583Z" fill="white"/>
<path d="M267.997 599.095C265.939 599.095 263.048 598.318 258.72 595.794C253.34 592.793 248.428 588.958 244.15 584.419C239.722 580.018 236.025 574.88 233.208 569.216C229.325 561.844 229.987 557.98 230.727 556.328C231.581 554.522 232.925 553.018 234.591 552.002C235.546 551.349 236.556 550.789 237.61 550.329C237.715 550.282 237.813 550.237 237.901 550.196C238.249 549.99 238.636 549.864 239.035 549.826C239.434 549.788 239.836 549.839 240.215 549.976C241.056 550.399 241.805 550.998 242.414 551.737C244.606 554.305 246.456 557.171 247.912 560.256C248.511 561.324 248.879 562.514 248.991 563.745C248.903 564.964 248.431 566.118 247.647 567.026C247.509 567.222 247.371 567.411 247.239 567.593C246.436 568.694 246.26 569.012 246.376 569.579C246.611 570.72 248.365 574.117 251.246 577.118C254.127 580.118 257.287 581.832 258.385 582.077C258.952 582.203 259.263 582.012 260.351 581.145C260.507 581.02 260.667 580.892 260.835 580.763C261.706 579.905 262.831 579.38 264.025 579.273H264.031C265.228 579.401 266.378 579.823 267.39 580.503C269.287 581.502 273.621 584.199 275.521 586.2C276.231 586.834 276.807 587.613 277.213 588.49C277.344 588.886 277.393 589.307 277.356 589.724C277.32 590.141 277.199 590.546 277.003 590.911C276.964 591.002 276.92 591.102 276.875 591.213C276.431 592.311 275.892 593.364 275.263 594.358C274.287 596.095 272.843 597.494 271.112 598.383C270.138 598.864 269.073 599.107 267.997 599.095V599.095Z" fill="#4A4A4A"/>
<path d="M621.3 624.514C647.945 624.514 669.544 602.102 669.544 574.454C669.544 546.807 647.945 524.395 621.3 524.395C594.656 524.395 573.056 546.807 573.056 574.454C573.056 602.102 594.656 624.514 621.3 624.514Z" fill="#E6E6E6"/>
<path d="M621.559 612.583C642.044 612.583 658.65 595.512 658.65 574.454C658.65 553.397 642.044 536.326 621.559 536.326C601.075 536.326 584.469 553.397 584.469 574.454C584.469 595.512 601.075 612.583 621.559 612.583Z" fill="white"/>
<path d="M627.94 597.02H614.66C614.22 597.02 613.798 596.856 613.486 596.564C613.175 596.273 613 595.877 613 595.464C613 595.051 613.175 594.655 613.486 594.364C613.798 594.072 614.22 593.908 614.66 593.908H627.94C628.381 593.908 628.803 594.072 629.114 594.364C629.425 594.655 629.6 595.051 629.6 595.464C629.6 595.877 629.425 596.273 629.114 596.564C628.803 596.856 628.381 597.02 627.94 597.02V597.02Z" fill="#4A4A4A"/>
<path d="M621.56 588.201C617.502 588.197 613.613 586.555 610.744 583.638C607.875 580.72 606.261 576.765 606.257 572.639V569.18C606.257 568.722 606.436 568.282 606.755 567.958C607.073 567.633 607.506 567.451 607.957 567.451C608.408 567.451 608.84 567.633 609.159 567.958C609.478 568.282 609.657 568.722 609.657 569.18V572.639C609.66 575.847 610.915 578.923 613.147 581.191C615.379 583.458 618.405 584.732 621.56 584.732C624.715 584.732 627.74 583.458 629.972 581.191C632.204 578.923 633.459 575.847 633.462 572.639V569.18C633.462 568.722 633.641 568.282 633.96 567.958C634.279 567.633 634.712 567.451 635.163 567.451C635.614 567.451 636.046 567.633 636.365 567.958C636.684 568.282 636.863 568.722 636.863 569.18V572.639C636.858 576.765 635.245 580.72 632.376 583.638C629.507 586.555 625.617 588.197 621.56 588.201V588.201Z" fill="#4A4A4A"/>
<path d="M621.559 581.458C620.43 581.455 619.312 581.222 618.273 580.772C617.233 580.322 616.294 579.664 615.509 578.838C613.903 577.193 613.002 574.97 613 572.653V560.586C612.996 559.449 613.212 558.321 613.637 557.269C614.061 556.216 614.685 555.258 615.474 554.451C616.263 553.643 617.2 553.001 618.233 552.562C619.266 552.123 620.373 551.894 621.493 551.89C621.515 551.89 621.537 551.89 621.559 551.89C622.687 551.877 623.805 552.094 624.849 552.526C625.893 552.959 626.842 553.599 627.639 554.409C628.436 555.219 629.066 556.183 629.492 557.244C629.918 558.304 630.131 559.441 630.119 560.586V572.653C630.13 574.973 629.235 577.203 627.631 578.853C626.026 580.504 623.843 581.441 621.559 581.458V581.458Z" fill="#4A4A4A"/>
<g clip-path="url(#clip0)">
<rect width="545" height="423.301" transform="translate(165 57)" fill="white"/>
<path d="M169.911 57C168.609 57.0016 167.361 57.5385 166.44 58.4928C165.519 59.4472 165.002 60.7412 165 62.0909V475.213C165.002 476.562 165.519 477.856 166.44 478.811C167.361 479.765 168.609 480.302 169.911 480.304H705.224C706.526 480.302 707.775 479.765 708.695 478.811C709.616 477.856 710.134 476.562 710.135 475.213V62.0909C710.134 60.7412 709.616 59.4472 708.695 58.4928C707.775 57.5385 706.526 57.0016 705.224 57H169.911Z" fill="#E6E6E6"/>
<path d="M180.716 73.2905V464.013H694.42V73.2905H180.716Z" fill="#B9B9B9"/>
<path d="M506.816 286.03L412.631 296.165C422.524 270.13 420.694 240.252 412.631 208.33H480.378C484.829 235.572 493.768 261.845 506.816 286.03V286.03Z" fill="#FFB9B9"/>
<path d="M412.631 272.826C412.631 272.826 479.013 257.486 515.524 285.61C552.034 313.733 469.056 377.65 469.056 377.65L412.631 272.826Z" fill="#2F2E41"/>
<path d="M457.078 265.475C491.56 265.475 519.514 237.285 519.514 202.509C519.514 167.734 491.56 139.543 457.078 139.543C422.595 139.543 394.641 167.734 394.641 202.509C394.641 237.285 422.595 265.475 457.078 265.475Z" fill="#FFB8B8"/>
<path d="M346.124 604.046C341.884 604.313 337.63 603.82 333.563 602.592L332.672 602.209L332.804 601.246C332.973 600.013 349.651 477.506 340.154 451.415C331.995 429 315.219 353.319 310.273 330.658C309.698 328.072 309.976 325.37 311.065 322.955C312.154 320.539 313.996 318.541 316.316 317.258L406.887 266.543C410.609 264.449 414.997 263.875 419.132 264.942C423.268 266.01 426.829 268.635 429.07 272.268L452.091 309.421L488.026 273.518C490.777 270.762 494.413 269.064 498.294 268.725C502.175 268.385 506.051 269.425 509.24 271.661L584.996 324.643C588.27 326.91 590.673 330.224 591.808 334.039C592.943 337.853 592.743 341.94 591.24 345.626C576.785 381.333 544.215 476.306 553.911 586.751L554.068 588.546L552.323 588.094C551.669 587.925 486.279 571.424 419.418 590.513C380.516 601.617 358.199 604.046 346.124 604.046Z" fill="#F5F5F5"/>
<path d="M318.695 318.5C316.036 318.118 313.329 318.723 311.08 320.2C308.832 321.678 307.197 323.928 306.48 326.529L265.534 475.058L275.209 564.961L321.168 557.672L316.33 494.496L350.194 414.312L327.84 326.734C327.297 324.607 326.138 322.69 324.511 321.224C322.883 319.758 320.859 318.81 318.695 318.5V318.5Z" fill="#DCDCDC"/>
<path d="M508.694 114.869C504.504 107.81 498.43 102.038 491.143 98.1894C483.856 94.3411 475.639 92.5666 467.399 93.0618C458.781 94.1345 450.371 96.4711 442.444 99.9953L401.367 115.899C390.738 120.014 379.097 125.055 374.484 135.413C370.204 145.026 373.398 156.128 376.631 166.137L391.999 213.711C393.701 202.944 396.623 192.401 400.708 182.284C405.172 172.337 412.232 163.166 421.994 158.195C432.664 152.762 445.239 152.875 457.217 153.447C474.181 154.257 492.625 156.4 504.678 168.275C511.076 175.02 515.414 183.428 517.187 192.523C518.932 201.57 519.81 210.76 519.81 219.971C526.767 208.102 532.626 195.633 537.318 182.716C541.177 173.098 543.376 162.903 543.823 152.56C544.226 142.128 540.739 131.915 534.029 123.876C527.089 116.178 515.782 112.022 505.838 115.07" fill="#2F2E41"/>
<path d="M583.084 323.903C586.747 324.519 590.091 326.38 592.562 329.178C595.032 331.975 596.48 335.541 596.666 339.283L610.524 618.932H559.728L542.796 470.064L564.344 337.446C564.691 335.314 565.451 333.272 566.581 331.437C567.71 329.602 569.188 328.01 570.929 326.752C572.67 325.493 574.639 324.594 576.725 324.105C578.811 323.617 580.972 323.548 583.084 323.903V323.903Z" fill="#DCDCDC"/>
<path d="M200.551 318.451C200.149 318.451 199.765 318.617 199.481 318.911C199.197 319.205 199.037 319.604 199.037 320.02V447.393C199.037 447.81 199.197 448.209 199.481 448.503C199.765 448.797 200.149 448.963 200.551 448.963H365.598C365.999 448.963 366.384 448.797 366.668 448.503C366.952 448.209 367.112 447.81 367.112 447.393V320.02C367.112 319.604 366.952 319.205 366.668 318.911C366.384 318.617 365.999 318.451 365.598 318.451H200.551Z" fill="#E6E6E6"/>
<path d="M203.882 323.473V443.94H362.267V323.473H203.882Z" fill="#D2D2D2"/>
<path d="M313.245 443.94L313.53 442.782L311.055 432.151L310.813 431.107L310.631 430.327L310.921 430.226L325.548 425.174L325.736 427.98L326.796 443.94H313.245Z" fill="#FFB9B9"/>
<path d="M255.094 432.151L252.618 442.782L252.903 443.94H239.352L240.413 427.98L240.6 425.174L255.518 430.327L255.094 432.151Z" fill="#FFB9B9"/>
<path d="M295.298 389.521L271.679 392.098C274.16 385.478 273.701 377.88 271.679 369.762H288.668C289.785 376.69 292.026 383.371 295.298 389.521V389.521Z" fill="#FFB9B9"/>
<path d="M280.381 380.071C287.475 380.071 293.226 374.109 293.226 366.755C293.226 359.401 287.475 353.439 280.381 353.439C273.286 353.439 267.535 359.401 267.535 366.755C267.535 374.109 273.286 380.071 280.381 380.071Z" fill="#FFB9B9"/>
<path d="M317.261 394.676C314.55 407.1 312.318 418.91 310.921 430.226C310.883 430.522 310.847 430.815 310.813 431.107C310.767 431.491 310.721 431.874 310.68 432.257C310.223 436.21 309.878 440.105 309.645 443.941H257.947C258.001 440.323 257.885 436.623 257.626 432.872C256.735 420.007 254.118 406.554 250.546 393.817L250.572 393.806L273.172 385.714L273.337 385.655C279.851 388.772 286.338 388.916 292.773 384.186C292.794 384.172 292.812 384.156 292.832 384.143L313.9 393.228L313.908 393.231L317.261 394.676Z" fill="#5AA9E6"/>
<path d="M332.592 426.032L306.901 433.334L313.117 392.957L317.081 394.327C318.535 394.829 319.845 395.701 320.891 396.862C321.937 398.023 322.687 399.436 323.072 400.974L332.592 426.032Z" fill="#5AA9E6"/>
<path d="M233.556 426.032L259.248 433.334L253.032 392.957L249.067 394.327C247.613 394.829 246.304 395.701 245.257 396.862C244.211 398.023 243.462 399.436 243.077 400.974L233.556 426.032Z" fill="#5AA9E6"/>
<path d="M279.555 344.23C277.37 344.334 275.242 344.984 273.351 346.124C272.916 346.386 273.117 347.332 272.715 347.641C272.209 348.029 271.11 347.793 270.662 348.249C269.215 349.713 268.101 351.492 267.401 353.459C266.701 355.425 266.432 357.528 266.614 359.615L267.328 366.97L269.012 365.062C272.03 361.592 276.22 359.46 280.714 359.106C280.905 359.093 281.096 359.082 281.288 359.074L279.993 356.725L282.244 359.058C283.27 359.07 284.295 359.156 285.31 359.317L283.588 356.193L286.893 359.618L286.893 359.618C288.244 359.927 289.507 360.559 290.58 361.466C291.652 362.373 292.504 363.528 293.067 364.838L293.434 365.682L293.845 358.665C293.885 356.725 293.541 354.798 292.832 353.003C292.124 351.207 291.067 349.582 289.726 348.228C288.386 346.875 286.792 345.821 285.042 345.133C283.292 344.445 281.424 344.138 279.555 344.23V344.23Z" fill="#2F2E41"/>
<path d="M267.667 368.97C268.234 368.97 268.694 367.838 268.694 366.441C268.694 365.044 268.234 363.912 267.667 363.912C267.099 363.912 266.639 365.044 266.639 366.441C266.639 367.838 267.099 368.97 267.667 368.97Z" fill="#FFB9B9"/>
<path d="M293.346 368.171C293.914 368.171 294.373 367.039 294.373 365.643C294.373 364.246 293.914 363.114 293.346 363.114C292.779 363.114 292.319 364.246 292.319 365.643C292.319 367.039 292.779 368.171 293.346 368.171Z" fill="#FFB9B9"/>
</g>
<defs>
<clipPath id="clip0">
<rect width="545" height="423.301" fill="white" transform="translate(165 57)"/>
</clipPath>
</defs>
</svg>
