<svg width="888" height="678" viewBox="0 0 888 678" fill="none" xmlns="http://www.w3.org/2000/svg">
<g clip-path="url(#clip0)">
<path d="M887.675 396.659C887.667 382.038 884.407 367.601 878.13 354.395C871.854 341.189 862.719 329.545 851.386 320.306C840.054 311.067 826.808 304.465 812.609 300.977C798.409 297.49 783.612 297.204 769.289 300.142C754.965 303.08 741.475 309.167 729.795 317.962C718.115 326.758 708.538 338.041 701.757 350.995C694.976 363.949 691.162 378.25 690.591 392.86C690.02 407.47 692.706 422.024 698.454 435.468C698.358 435.361 698.258 435.257 698.162 435.149C702.541 445.355 708.611 454.748 716.116 462.932C716.139 462.957 716.162 462.981 716.184 463.005C716.79 463.665 717.399 464.322 718.022 464.965C727.031 474.361 737.816 481.874 749.752 487.068C761.687 492.261 774.536 495.032 787.551 495.219L784.22 676.148H794.512L792.429 556.733L807.316 548.895L805.045 544.582L792.334 551.274L791.356 495.21C817.102 494.62 841.595 483.978 859.596 465.56C877.596 447.142 887.674 422.412 887.675 396.659Z" fill="#9AC2C9"/>
<path d="M595.087 348.612C595.078 331.477 591.257 314.558 583.902 299.082C576.547 283.606 565.841 269.96 552.56 259.133C539.28 248.306 523.757 240.568 507.116 236.481C490.476 232.394 473.135 232.06 456.349 235.502C439.564 238.945 423.754 246.079 410.066 256.386C396.378 266.694 385.154 279.917 377.208 295.098C369.262 310.279 364.792 327.038 364.122 344.159C363.453 361.281 366.601 378.338 373.337 394.093C373.224 393.967 373.108 393.845 372.995 393.719C378.127 405.679 385.24 416.686 394.036 426.278C394.062 426.307 394.089 426.335 394.116 426.364C394.825 427.137 395.539 427.907 396.269 428.661C406.826 439.672 419.466 448.476 433.454 454.563C447.441 460.649 462.499 463.896 477.752 464.115L473.848 676.148H485.908L483.467 536.204L500.913 527.019L498.252 521.964L483.356 529.806L482.21 464.105C512.382 463.413 541.086 450.941 562.181 429.358C583.276 407.774 595.087 378.792 595.087 348.612Z" fill="#B9D8C2"/>
<path d="M263.259 303.418C263.248 283.919 258.901 264.666 250.53 247.055C242.16 229.444 229.977 213.915 214.864 201.593C199.751 189.272 182.086 180.467 163.15 175.816C144.213 171.165 124.479 170.785 105.378 174.702C86.2762 178.62 68.2853 186.738 52.7086 198.468C37.1318 210.197 24.3594 225.245 15.3167 242.521C6.27397 259.797 1.18742 278.868 0.425582 298.352C-0.336254 317.836 3.2457 337.246 10.9119 355.175C10.7834 355.032 10.6505 354.893 10.5226 354.75C16.362 368.36 24.457 380.886 34.4666 391.801C34.4965 391.834 34.5272 391.866 34.5572 391.899C35.3648 392.779 36.1771 393.655 37.0081 394.513C49.0219 407.043 63.4052 417.062 79.3229 423.988C95.2407 430.915 112.376 434.61 129.733 434.859L125.291 676.148H139.015L136.238 516.895L156.091 506.442L153.062 500.69L136.111 509.614L134.807 434.847C169.142 434.06 201.807 419.868 225.812 395.306C249.818 370.744 263.258 337.763 263.259 303.418Z" fill="#9AC2C9"/>
<path d="M245.559 359.928C340.724 359.928 417.87 282.781 417.87 187.616C417.87 92.4513 340.724 15.3047 245.559 15.3047C150.394 15.3047 73.2471 92.4513 73.2471 187.616C73.2471 282.781 150.394 359.928 245.559 359.928Z" fill="#B9D8C2"/>
<path opacity="0.2" d="M118.329 72.5254C102.257 110.123 100.076 152.21 112.178 191.267C124.28 230.324 149.875 263.805 184.39 285.727C218.905 307.65 260.09 316.586 300.587 310.937C341.084 305.289 378.252 285.425 405.452 254.895C395.633 277.865 380.938 298.426 362.384 315.154C343.831 331.881 321.862 344.374 298.001 351.768C274.139 359.162 248.956 361.28 224.195 357.975C199.433 354.67 175.687 346.021 154.6 332.628C133.513 319.234 115.591 301.416 102.074 280.409C88.5568 259.401 79.7688 235.705 76.3187 210.964C72.8686 186.223 74.8388 161.027 82.0928 137.123C89.3468 113.218 101.711 91.1768 118.329 72.5254Z" fill="black"/>
<path d="M246.032 187.616H246.506L255.027 676.148H237.038L246.032 187.616Z" fill="#B9D8C2"/>
<path d="M509.115 671.578C509.115 671.578 509.737 658.552 522.482 660.066L509.115 671.578Z" fill="#3F3D56"/>
<path d="M505.514 659.182C509.037 659.182 511.893 656.326 511.893 652.803C511.893 649.281 509.037 646.425 505.514 646.425C501.991 646.425 499.135 649.281 499.135 652.803C499.135 656.326 501.991 659.182 505.514 659.182Z" fill="#6C63FF"/>
<path d="M506.277 663.545H504.476V676.149H506.277V663.545Z" fill="#3F3D56"/>
<path d="M67.083 669.778C67.083 669.778 67.7047 656.751 80.4494 658.265L67.083 669.778Z" fill="#3F3D56"/>
<path d="M63.4819 657.381C67.0047 657.381 69.8606 654.526 69.8606 651.003C69.8606 647.48 67.0047 644.624 63.4819 644.624C59.9591 644.624 57.1033 647.48 57.1033 651.003C57.1033 654.526 59.9591 657.381 63.4819 657.381Z" fill="#6C63FF"/>
<path d="M64.2444 661.744H62.4438V674.348H64.2444V661.744Z" fill="#3F3D56"/>
<path d="M171.514 670.678C171.514 670.678 172.136 657.651 184.881 659.165L171.514 670.678Z" fill="#3F3D56"/>
<path d="M167.913 658.282C171.436 658.282 174.292 655.426 174.292 651.903C174.292 648.38 171.436 645.524 167.913 645.524C164.39 645.524 161.534 648.38 161.534 651.903C161.534 655.426 164.39 658.282 167.913 658.282Z" fill="#6C63FF"/>
<path d="M168.676 662.645H166.875V675.248H168.676V662.645Z" fill="#3F3D56"/>
<path d="M449.243 83.2986L462.038 73.0652C452.098 71.9686 448.014 77.3895 446.343 81.6802C438.578 78.4557 430.124 82.6816 430.124 82.6816L455.724 91.9753C454.433 88.5257 452.184 85.5159 449.243 83.2986Z" fill="#3F3D56"/>
<path d="M643.827 187.54L656.622 177.306C646.682 176.21 642.598 181.631 640.927 185.921C633.161 182.697 624.708 186.923 624.708 186.923L650.308 196.216C649.016 192.767 646.768 189.757 643.827 187.54Z" fill="#3F3D56"/>
<path d="M433.955 276.492L446.749 266.259C436.81 265.162 432.726 270.583 431.054 274.874C423.289 271.649 414.835 275.875 414.835 275.875L440.436 285.169C439.144 281.719 436.896 278.709 433.955 276.492Z" fill="#3F3D56"/>
<path d="M359.255 617.879C359.255 617.879 369.277 647.227 364.982 657.964L377.866 669.416L385.74 659.395C385.74 659.395 377.15 650.806 377.866 644.363C378.582 637.921 379.298 615.016 379.298 615.016L359.255 617.879Z" fill="#FFB9B9"/>
<path d="M407.21 675.139C406.625 675.482 406.067 675.806 405.553 676.103H361.125C360.713 675.867 360.383 675.512 360.177 675.084C359.971 674.657 359.9 674.177 359.973 673.708C360.18 672.646 360.711 670.485 361.368 668C362.926 662.121 365.212 654.424 365.708 655.243C365.709 655.243 365.71 655.244 365.711 655.244C365.712 655.244 365.713 655.245 365.714 655.246C365.715 655.247 365.715 655.248 365.716 655.249C365.716 655.25 365.717 655.251 365.716 655.252C366.41 656.531 367.841 662.257 371.424 661.545C375.007 660.825 380.733 659.394 380.733 659.394C380.733 659.394 378.689 654.802 380.643 652.948C381.063 652.557 381.595 652.308 382.164 652.237C386.459 651.525 386.459 657.962 386.459 657.962L402.204 666.551C403.562 666.926 404.886 667.411 406.166 668C409.362 669.495 412.522 672.051 407.21 675.139Z" fill="#2F2E41"/>
<path d="M330.623 607.143L312.013 629.332L307.002 640.785L313.444 645.796L319.171 643.648C319.171 643.648 324.181 630.764 329.192 628.617C334.202 626.469 346.371 612.153 346.371 612.153L330.623 607.143Z" fill="#FFB9B9"/>
<path d="M369.634 590.113L360.143 607.708L353.343 620.306C351.167 621.601 348.268 621.58 345.147 620.814C343.693 620.442 342.267 619.966 340.881 619.39C332.363 615.904 323.723 608.982 323.723 608.982L340.072 588.553L345.412 581.889L346.679 580.3L352.785 582.912L363.557 587.515L369.634 590.113Z" fill="#2F2E41"/>
<path d="M327.274 438.185L319.692 469.285L327.497 509.185C327.497 509.185 327.689 525.495 334.84 524.258C341.992 523.02 334.497 506.57 334.497 506.57L330.999 473.854L342.184 441.533C342.602 440.211 342.545 438.784 342.023 437.5C341.5 436.215 340.544 435.155 339.321 434.501C334.893 431.796 328.6 433.721 327.274 438.185Z" fill="#FFB9B9"/>
<path d="M353.887 411.372L347.445 431.414L335.276 424.972C335.276 424.972 340.287 410.656 340.287 408.509C340.287 406.361 353.887 411.372 353.887 411.372Z" fill="#FFB9B9"/>
<path d="M348.876 419.245C357.178 419.245 363.908 412.515 363.908 404.213C363.908 395.912 357.178 389.182 348.876 389.182C340.574 389.182 333.844 395.912 333.844 404.213C333.844 412.515 340.574 419.245 348.876 419.245Z" fill="#FFB9B9"/>
<path d="M352.813 436.066L349.95 433.203L349.234 429.624C349.234 429.624 339.929 417.455 332.055 421.75C329.594 423.092 327.763 426.182 326.408 429.796C322.956 439.241 323.278 449.654 327.307 458.868L339.929 488.319L368.561 485.456L363.55 466.845C363.55 466.845 368.561 455.393 359.255 447.519L352.813 436.066Z" fill="#F9F9F9"/>
<path opacity="0.3" d="M369.634 590.113L360.143 607.708L353.343 620.306C351.167 621.601 348.268 621.58 345.147 620.814C344.603 617.192 347.853 598.052 345.297 582.447L345.412 581.889L346.679 580.3L352.785 582.912L363.557 587.515L369.634 590.113Z" fill="black"/>
<path d="M369.634 483.667C369.634 483.667 351.024 472.214 338.139 486.53L338.855 490.825C338.855 490.825 328.118 502.994 334.56 528.762C341.002 554.531 351.024 621.816 351.024 621.816C351.024 621.816 374.645 623.248 385.382 615.374C385.382 615.374 381.803 526.615 369.634 518.026V483.667Z" fill="#2F2E41"/>
<path d="M330.827 443.799L351.024 468.635L387.529 486.53C387.529 486.53 400.641 496.234 403.977 489.788C407.312 483.342 389.677 479.372 389.677 479.372L361.497 462.388L342.505 433.944C341.705 432.811 340.534 431.994 339.194 431.635C337.855 431.275 336.433 431.396 335.173 431.975C330.342 433.869 328.071 440.046 330.827 443.799Z" fill="#FFB9B9"/>
<path d="M317.446 642.075C317.446 642.075 321.834 636.557 324.455 640.034C327.076 643.51 321.364 646.49 321.364 646.49L321.031 664.425C321.031 664.425 324.148 678.138 315.733 672.84C307.318 667.542 306.987 666.907 305.332 663.734C303.676 660.561 300.256 647.813 297.304 643.701C294.352 639.59 291.648 631.312 295.153 630.292C298.657 629.271 314.991 625.637 314.177 626.848C313.364 628.058 308.949 631.976 311.238 634.818C313.528 637.66 317.446 642.075 317.446 642.075Z" fill="#2F2E41"/>
<path d="M356.749 391.384C356.749 391.366 356.75 391.348 356.75 391.329C356.75 387.224 355.533 383.211 353.252 379.797C350.971 376.383 347.729 373.723 343.936 372.151C340.143 370.58 335.969 370.169 331.942 370.97C327.916 371.771 324.217 373.748 321.314 376.651C318.411 379.554 316.434 383.253 315.633 387.28C314.832 391.306 315.243 395.48 316.814 399.273C318.385 403.066 321.046 406.308 324.459 408.589C327.873 410.87 331.886 412.088 335.992 412.088C336.474 412.088 338.381 415.699 338.855 415.667C338.884 404.709 345.972 392.12 356.749 391.384Z" fill="#2F2E41"/>
<path d="M313.802 389.182C321.313 389.182 327.402 383.093 327.402 375.582C327.402 368.07 321.313 361.981 313.802 361.981C306.291 361.981 300.202 368.07 300.202 375.582C300.202 383.093 306.291 389.182 313.802 389.182Z" fill="#2F2E41"/>
<path d="M313.178 354.979C316.455 354.958 319.63 356.124 322.115 358.26C324.601 360.396 326.23 363.358 326.703 366.601C327.176 369.844 326.46 373.149 324.687 375.906C322.915 378.662 320.205 380.685 317.058 381.601C319.007 381.598 320.932 381.175 322.703 380.363C324.474 379.55 326.05 378.367 327.323 376.892C328.596 375.417 329.538 373.686 330.083 371.815C330.629 369.944 330.766 367.978 330.485 366.05C330.204 364.122 329.511 362.277 328.454 360.64C327.398 359.003 326.001 357.612 324.36 356.562C322.719 355.512 320.871 354.827 318.941 354.554C317.012 354.281 315.047 354.426 313.178 354.979Z" fill="#2F2E41"/>
<path d="M345.297 387.034H352.455C355.872 387.034 359.15 388.392 361.566 390.808C363.982 393.224 365.34 396.501 365.34 399.919H345.297V387.034Z" fill="#2F2E41"/>
<path d="M683.655 676.307C683.655 676.307 684.277 663.28 697.022 664.794L683.655 676.307Z" fill="#3F3D56"/>
<path d="M563.919 676.307C563.919 676.307 564.541 663.28 577.286 664.794L563.919 676.307Z" fill="#3F3D56"/>
<path d="M127.289 676.307C127.289 676.307 127.91 663.28 140.655 664.794L127.289 676.307Z" fill="#3F3D56"/>
<path d="M737.671 676.307C737.671 676.307 738.293 663.28 751.038 664.794L737.671 676.307Z" fill="#3F3D56"/>
<path d="M712.464 676.307C712.464 676.307 713.086 663.28 725.83 664.794L712.464 676.307Z" fill="#3F3D56"/>
<path d="M660.465 676.307C660.465 676.307 659.843 663.28 647.099 664.794L660.465 676.307Z" fill="#3F3D56"/>
<path d="M453.403 676.307C453.403 676.307 452.781 663.28 440.037 664.794L453.403 676.307Z" fill="#3F3D56"/>
<path d="M281.452 676.307C281.452 676.307 280.83 663.28 268.085 664.794L281.452 676.307Z" fill="#3F3D56"/>
<path d="M98.697 676.307C98.697 676.307 98.0753 663.28 85.3306 664.794L98.697 676.307Z" fill="#3F3D56"/>
<path d="M791.904 676.307C791.904 676.307 791.283 663.28 778.538 664.794L791.904 676.307Z" fill="#3F3D56"/>
<path d="M714.481 677.207C714.481 677.207 713.859 664.181 701.115 665.695L714.481 677.207Z" fill="#3F3D56"/>
<path d="M888 674.604H0V676.604H888V674.604Z" fill="#3F3D56"/>
</g>
<defs>
<clipPath id="clip0">
<rect width="888" height="677.207" fill="white"/>
</clipPath>
</defs>
</svg>
