<svg width="887" height="543" viewBox="0 0 887 543" fill="none" xmlns="http://www.w3.org/2000/svg">
<path d="M558 40.3662H7V383.48H558V40.3662Z" fill="#E6E6E6"/>
<path d="M144.865 106.466H43.9492V172.061H144.865V106.466Z" fill="white"/>
<path d="M270.26 106.466H169.345V172.061H270.26V106.466Z" fill="white"/>
<path d="M395.656 106.466H294.74V172.061H395.656V106.466Z" fill="white"/>
<path d="M521.051 106.466H420.135V172.061H521.051V106.466Z" fill="white"/>
<path d="M144.865 199.309H43.9492V264.904H144.865V199.309Z" fill="white"/>
<path d="M270.26 199.309H169.345V264.904H270.26V199.309Z" fill="white"/>
<path d="M395.656 199.309H294.74V264.904H395.656V199.309Z" fill="white"/>
<path d="M521.051 199.309H420.135V264.904H521.051V199.309Z" fill="white"/>
<path d="M144.865 292.151H43.9492V357.746H144.865V292.151Z" fill="white"/>
<path d="M270.26 292.151H169.345V357.746H270.26V292.151Z" fill="white"/>
<path d="M395.656 292.151H294.74V357.746H395.656V292.151Z" fill="white"/>
<path d="M521.051 292.151H420.135V357.746H521.051V292.151Z" fill="white"/>
<path d="M151.309 80.7327C159.669 80.7327 166.447 73.9555 166.447 65.5954C166.447 57.2352 159.669 50.458 151.309 50.458C142.949 50.458 136.172 57.2352 136.172 65.5954C136.172 73.9555 142.949 80.7327 151.309 80.7327Z" fill="white"/>
<path d="M401.581 80.7327C409.941 80.7327 416.718 73.9555 416.718 65.5954C416.718 57.2352 409.941 50.458 401.581 50.458C393.221 50.458 386.443 57.2352 386.443 65.5954C386.443 73.9555 393.221 80.7327 401.581 80.7327Z" fill="white"/>
<path d="M157.365 0H145.255V69.6319H157.365V0Z" fill="#E6E6E6"/>
<path d="M407.635 0H395.525V69.6319H407.635V0Z" fill="#E6E6E6"/>
<path d="M493.414 139.264C493.409 144.744 491.426 150.038 487.83 154.174C484.234 158.309 479.267 161.008 473.841 161.775C468.414 162.542 462.894 161.324 458.293 158.347C453.692 155.369 450.32 150.831 448.797 145.567C447.274 140.302 447.702 134.665 450.002 129.691C452.302 124.717 456.32 120.74 461.318 118.49C466.315 116.241 471.957 115.871 477.205 117.448C482.454 119.025 486.957 122.442 489.887 127.073C492.192 130.722 493.415 134.949 493.414 139.264V139.264Z" fill="#5AA9E6"/>
<path d="M489.887 127.073L467.423 149.533C466.011 147.347 458.146 137.189 458.146 137.189C459.154 136.17 460.229 135.221 461.365 134.347L467.888 143.044L487.256 123.675C488.239 124.722 489.12 125.86 489.887 127.073V127.073Z" fill="white"/>
<path d="M242.623 232.106C242.618 237.587 240.635 242.881 237.039 247.016C233.443 251.152 228.476 253.851 223.05 254.618C217.623 255.384 212.102 254.167 207.502 251.189C202.901 248.211 199.529 243.673 198.006 238.409C196.483 233.145 196.911 227.508 199.211 222.533C201.511 217.559 205.529 213.582 210.527 211.333C215.524 209.084 221.165 208.714 226.414 210.29C231.662 211.867 236.166 215.285 239.096 219.916C241.401 223.564 242.624 227.791 242.623 232.106V232.106Z" fill="#5AA9E6"/>
<path d="M239.096 219.916L216.632 242.376C215.22 240.19 207.354 230.032 207.354 230.032C208.363 229.013 209.438 228.063 210.574 227.189L217.097 235.886L236.465 216.518C237.448 217.565 238.328 218.702 239.096 219.916V219.916Z" fill="white"/>
<path d="M117.227 232.106C117.222 237.586 115.239 242.881 111.643 247.016C108.048 251.152 103.08 253.851 97.6537 254.618C92.2273 255.384 86.7065 254.167 82.1058 251.189C77.5051 248.211 74.1334 243.673 72.6104 238.409C71.0873 233.145 71.5152 227.507 73.8153 222.533C76.1155 217.559 80.1334 213.582 85.1309 211.333C90.1283 209.084 95.7696 208.713 101.018 210.29C106.267 211.867 110.77 215.285 113.7 219.916C116.005 223.564 117.228 227.791 117.227 232.106Z" fill="#5AA9E6"/>
<path d="M113.701 219.916L91.2366 242.376C89.8248 240.19 81.959 230.032 81.959 230.032C82.967 229.013 84.0427 228.063 85.1788 227.189L91.7013 235.886L111.07 216.518C112.052 217.565 112.933 218.702 113.701 219.916Z" fill="white"/>
<path d="M624.116 383.614V347.579C624.117 346.581 624.514 345.626 625.219 344.921C625.924 344.216 626.88 343.819 627.877 343.818H658.414C659.411 343.819 660.367 344.216 661.072 344.921C661.777 345.626 662.174 346.581 662.175 347.579V383.614C662.174 384.611 661.777 385.567 661.072 386.272C660.367 386.977 659.411 387.374 658.414 387.375H627.877C626.88 387.374 625.924 386.977 625.219 386.272C624.514 385.567 624.117 384.611 624.116 383.614V383.614Z" fill="#E6E6E6"/>
<path d="M635.116 371.614V335.579C635.117 334.581 635.514 333.626 636.219 332.921C636.924 332.216 637.88 331.819 638.877 331.818H669.414C670.411 331.819 671.367 332.216 672.072 332.921C672.777 333.626 673.174 334.581 673.175 335.579V371.614C673.174 372.611 672.777 373.567 672.072 374.272C671.367 374.977 670.411 375.374 669.414 375.375H638.877C637.88 375.374 636.924 374.977 636.219 374.272C635.514 373.567 635.117 372.611 635.116 371.614V371.614Z" fill="#8AA1B1"/>
<path d="M772.005 360.084C770.856 359.42 769.867 358.512 769.107 357.424C768.346 356.336 767.834 355.095 767.605 353.788C767.377 352.481 767.437 351.139 767.783 349.858C768.129 348.577 768.752 347.387 769.607 346.372L760.142 277.185L779.859 278.152L782.955 345.638C784.564 347.188 785.549 349.275 785.722 351.502C785.896 353.73 785.246 355.944 783.897 357.724C782.547 359.505 780.591 360.729 778.399 361.164C776.208 361.599 773.933 361.214 772.005 360.084V360.084Z" fill="#FFB8B8"/>
<path d="M782.565 279.074C782.161 279.55 781.644 279.916 781.06 280.139L763.341 286.902C762.451 287.241 761.464 287.227 760.585 286.861C759.705 286.496 758.999 285.807 758.612 284.937L742.915 249.662C741.408 246.39 741.152 242.679 742.194 239.23C742.965 236.769 744.385 234.561 746.306 232.84C748.226 231.118 750.575 229.947 753.106 229.448C755.052 229.048 757.062 229.076 758.996 229.531C761.313 230.048 763.465 231.134 765.257 232.692C767.049 234.25 768.425 236.23 769.259 238.453L783.215 275.343C783.449 275.966 783.513 276.641 783.399 277.297C783.285 277.953 782.997 278.567 782.565 279.074V279.074Z" fill="white"/>
<path d="M690.228 528.956H677.968L673.523 481.445L690.23 481.669L690.228 528.956Z" fill="#FFB8B8"/>
<path d="M669.211 525.452H692.855V540.339H654.324C654.324 538.384 654.709 536.448 655.457 534.642C656.206 532.836 657.302 531.195 658.684 529.812C660.067 528.43 661.708 527.334 663.514 526.585C665.32 525.837 667.256 525.452 669.211 525.452V525.452Z" fill="#2F2E41"/>
<path d="M747.228 528.956H734.968L729.136 481.667L747.23 481.669L747.228 528.956Z" fill="#FFB8B8"/>
<path d="M726.211 525.452H749.855V540.339H711.324C711.324 538.384 711.709 536.448 712.457 534.642C713.206 532.836 714.302 531.195 715.684 529.812C717.067 528.43 718.708 527.334 720.514 526.585C722.32 525.837 724.256 525.452 726.211 525.452V525.452Z" fill="#2F2E41"/>
<path d="M748.861 524.825L729.606 523.399C728.511 523.316 727.484 522.837 726.717 522.051C725.951 521.264 725.498 520.225 725.443 519.128L721.15 430.398C721.109 429.546 720.758 428.739 720.164 428.128C719.57 427.516 718.773 427.143 717.923 427.077C717.073 427.012 716.228 427.259 715.547 427.772C714.866 428.285 714.396 429.029 714.225 429.865L696.314 517.272C696.092 518.347 695.486 519.305 694.608 519.964C693.73 520.624 692.642 520.94 691.547 520.854L674.141 519.461C673.545 519.414 672.964 519.247 672.432 518.972C671.901 518.697 671.429 518.319 671.046 517.86C670.662 517.401 670.374 516.869 670.198 516.297C670.023 515.725 669.963 515.124 670.022 514.529L686.17 353.052C686.233 352.421 686.429 351.81 686.745 351.26C687.06 350.71 687.489 350.233 688.002 349.86C688.515 349.487 689.101 349.227 689.722 349.096C690.343 348.966 690.984 348.968 691.604 349.103L753.01 362.451C754.027 362.675 754.935 363.243 755.581 364.06C756.227 364.877 756.57 365.892 756.553 366.933L753.693 520.421C753.67 521.598 753.188 522.719 752.349 523.545C751.51 524.37 750.381 524.834 749.204 524.837C749.09 524.837 748.976 524.832 748.861 524.825Z" fill="white"/>
<path d="M731.924 205.344C745.489 205.344 756.485 194.348 756.485 180.783C756.485 167.219 745.489 156.222 731.924 156.222C718.36 156.222 707.363 167.219 707.363 180.783C707.363 194.348 718.36 205.344 731.924 205.344Z" fill="#FFB8B8"/>
<path d="M693.816 352.811C691.455 350.693 689.58 348.089 688.321 345.177C687.062 342.266 686.448 339.116 686.523 335.944C686.523 300.644 717.078 221.776 718.036 219.316C718.13 218.723 718.936 218.467 723.166 215.609C727.398 212.75 733.501 212.311 741.305 214.304C742.098 214.507 742.821 214.924 743.394 215.509C743.967 216.094 744.369 216.825 744.555 217.622L746.007 219.72C746.133 220.252 746.383 220.747 746.735 221.165C747.087 221.582 747.533 221.912 748.036 222.126C754.329 224.777 774.334 237.004 767.517 283.018C761.185 325.761 758.615 350.899 757.805 359.723C757.709 360.77 757.249 361.75 756.505 362.493C755.761 363.236 754.78 363.694 753.733 363.788C750.647 364.065 745.351 364.432 739.044 364.432C724.423 364.432 704.367 362.459 693.816 352.811Z" fill="#2F2E41"/>
<path d="M664.469 339.733C663.885 338.541 663.569 337.236 663.544 335.909C663.518 334.582 663.785 333.266 664.323 332.053C664.862 330.84 665.66 329.76 666.661 328.889C667.662 328.018 668.842 327.377 670.118 327.011L700.811 264.286L716.644 276.076L681.61 333.839C682.083 336.023 681.738 338.304 680.641 340.25C679.543 342.197 677.77 343.673 675.657 344.4C673.545 345.126 671.238 345.052 669.176 344.192C667.114 343.332 665.439 341.746 664.469 339.733L664.469 339.733Z" fill="#FFB8B8"/>
<path d="M718.377 278.35C717.777 278.52 717.143 278.535 716.534 278.395L698.052 274.137C697.124 273.923 696.313 273.361 695.786 272.568C695.259 271.774 695.057 270.809 695.22 269.87L701.843 231.833C702.415 228.276 704.269 225.051 707.056 222.769C709.068 221.155 711.478 220.113 714.031 219.753C716.585 219.394 719.189 219.73 721.568 220.726C723.407 221.478 725.06 222.622 726.412 224.077C728.049 225.798 729.231 227.899 729.851 230.191C730.471 232.483 730.509 234.894 729.963 237.204L720.996 275.613C720.843 276.261 720.52 276.857 720.06 277.338C719.599 277.82 719.018 278.169 718.377 278.35Z" fill="white"/>
<path d="M726.174 202.974C724.978 201.755 724.096 200.264 723.602 198.63C723.107 196.995 723.016 195.265 723.335 193.588C724.191 189.108 724.694 186.177 724.789 185.111C725.115 181.464 721.428 178.511 717.779 178.041C717.638 178.022 717.519 178.01 717.421 178.002C717.514 178.093 717.613 178.187 717.701 178.269C718.394 178.92 719.257 179.731 719.052 180.567C718.928 181.07 718.468 181.428 717.645 181.658C711.939 183.254 707.544 181.789 703.814 177.041C702.766 175.692 702.045 174.118 701.709 172.443C700.373 165.888 703.933 160.3 707.155 156.768C709.812 153.855 714.119 150.319 719.549 150.016C723.773 149.78 728.795 152.21 730.298 156.59C731.007 155.539 731.951 154.668 733.055 154.045C734.159 153.423 735.393 153.066 736.659 153.004C739.543 152.941 742.381 153.731 744.818 155.273C756.727 162.095 761.845 178.346 755.995 190.761C752.314 198.57 744.34 204.383 735.185 205.933C734.612 206.03 734.031 206.079 733.45 206.079C732.091 206.077 730.746 205.801 729.496 205.268C728.246 204.734 727.116 203.954 726.174 202.974V202.974Z" fill="#2F2E41"/>
<path d="M611 540.896H806C806.265 540.896 806.52 540.79 806.707 540.603C806.895 540.415 807 540.161 807 539.896C807 539.63 806.895 539.376 806.707 539.188C806.52 539.001 806.265 538.896 806 538.896H611C610.735 538.896 610.48 539.001 610.293 539.188C610.105 539.376 610 539.63 610 539.896C610 540.161 610.105 540.415 610.293 540.603C610.48 540.79 610.735 540.896 611 540.896V540.896Z" fill="#3F3D56"/>
<path d="M527.298 277.557H496.761C495.764 277.556 494.808 277.159 494.103 276.454C493.398 275.749 493.001 274.793 493 273.796V237.761C493.001 236.764 493.398 235.808 494.103 235.103C494.808 234.398 495.764 234.001 496.761 234H527.298C528.295 234.001 529.251 234.398 529.956 235.103C530.661 235.808 531.057 236.764 531.058 237.761V273.796C531.057 274.793 530.661 275.749 529.956 276.454C529.251 277.159 528.295 277.556 527.298 277.557Z" fill="#8AA1B1"/>
<path d="M282.298 285.557H251.761C250.764 285.556 249.808 285.159 249.103 284.454C248.398 283.749 248.001 282.793 248 281.796V245.761C248.001 244.764 248.398 243.808 249.103 243.103C249.808 242.398 250.764 242.001 251.761 242H282.298C283.295 242.001 284.251 242.398 284.956 243.103C285.661 243.808 286.057 244.764 286.058 245.761V281.796C286.057 282.793 285.661 283.749 284.956 284.454C284.251 285.159 283.295 285.556 282.298 285.557V285.557Z" fill="#8AA1B1"/>
<path d="M153.298 286.557H122.761C121.764 286.556 120.808 286.159 120.103 285.454C119.398 284.749 119.001 283.793 119 282.796V246.761C119.001 245.764 119.398 244.808 120.103 244.103C120.808 243.398 121.764 243.001 122.761 243H153.298C154.295 243.001 155.251 243.398 155.956 244.103C156.661 244.808 157.057 245.764 157.058 246.761V282.796C157.057 283.793 156.661 284.749 155.956 285.454C155.251 286.159 154.295 286.556 153.298 286.557V286.557Z" fill="#CCCCCC"/>
</svg>
