<svg width="1392" height="1392" viewBox="0 0 1392 1392" fill="none" xmlns="http://www.w3.org/2000/svg">
<g id="Avatar5">
<g id="Background/3">
<circle id="Background/1" cx="696" cy="696" r="696" fill="#FFEDEF"/>
</g>
<mask id="mask0" mask-type="alpha" maskUnits="userSpaceOnUse" x="0" y="0" width="1392" height="1392">
<circle id="Mask" cx="696" cy="696" r="696" fill="#FFEDEF"/>
</mask>
<g mask="url(#mask0)">
<g id="Body">
<g id="Base/1" clip-path="url(#clip0)">
<g id="Neck">
<path id="Neck/1" d="M893.684 1330.34C840.934 1257.08 799.663 1115.43 794.779 1044.61L543.852 936.549L439.452 1330.34H893.684Z" fill="#F9C9B6" stroke="black" stroke-width="14.6526"/>
<mask id="mask1" mask-type="alpha" maskUnits="userSpaceOnUse" x="439" y="936" width="455" height="431">
<path id="Mask_2" d="M893.684 1366.97C840.934 1293.71 799.663 1115.43 794.779 1044.61L543.852 936.549L439.452 1366.97H893.684Z" fill="#F9C9B6"/>
</mask>
<g mask="url(#mask1)">
<g id="Ellipse 42" style="mix-blend-mode:multiply">
<ellipse cx="783.789" cy="929.223" rx="216.126" ry="197.811" fill="black"/>
</g>
</g>
</g>
<g id="Head">
<mask id="path-6-inside-1" fill="white">
<path fill-rule="evenodd" clip-rule="evenodd" d="M1003.12 712.6C1003.03 712.24 1002.95 711.881 1002.86 711.521C1002.78 711.162 1002.69 710.803 1002.6 710.444L942.488 459.545C942.43 459.299 942.371 459.053 942.312 458.806C942.253 458.56 942.194 458.314 942.135 458.068L941.867 456.95L941.861 456.951C904.431 305.132 751.397 211.782 599.104 248.27C446.811 284.758 352.696 437.323 388.129 589.621L388.122 589.622L450.363 849.406L450.413 849.394C489.252 999.236 641.154 1090.95 792.326 1054.73C943.497 1018.51 1037.34 867.918 1004.06 716.744L1004.11 716.733L1003.12 712.6Z"/>
</mask>
<path fill-rule="evenodd" clip-rule="evenodd" d="M1003.12 712.6C1003.03 712.24 1002.95 711.881 1002.86 711.521C1002.78 711.162 1002.69 710.803 1002.6 710.444L942.488 459.545C942.43 459.299 942.371 459.053 942.312 458.806C942.253 458.56 942.194 458.314 942.135 458.068L941.867 456.95L941.861 456.951C904.431 305.132 751.397 211.782 599.104 248.27C446.811 284.758 352.696 437.323 388.129 589.621L388.122 589.622L450.363 849.406L450.413 849.394C489.252 999.236 641.154 1090.95 792.326 1054.73C943.497 1018.51 1037.34 867.918 1004.06 716.744L1004.11 716.733L1003.12 712.6Z" fill="#F9C9B6"/>
<path d="M1003.12 712.6L988.856 715.959L988.862 715.986L988.869 716.014L1003.12 712.6ZM1002.6 710.444L988.352 713.858L988.359 713.885L988.365 713.912L1002.6 710.444ZM942.488 459.545L928.23 462.921L928.234 462.94L928.239 462.959L942.488 459.545ZM942.312 458.806L928.063 462.219L928.063 462.219L942.312 458.806ZM942.135 458.068L927.885 461.483L927.89 461.5L927.894 461.518L942.135 458.068ZM941.867 456.95L956.116 453.536L952.697 439.267L938.433 442.705L941.867 456.95ZM941.861 456.951L927.635 460.459L931.124 474.612L945.295 471.196L941.861 456.951ZM599.104 248.27L602.518 262.52L602.518 262.52L599.104 248.27ZM388.129 589.621L391.561 603.866L405.695 600.46L402.4 586.3L388.129 589.621ZM388.122 589.622L384.69 575.377L370.462 578.805L373.872 593.036L388.122 589.622ZM450.363 849.406L436.114 852.82L439.529 867.073L453.781 863.654L450.363 849.406ZM450.413 849.394L464.597 845.717L460.987 831.789L446.996 835.145L450.413 849.394ZM1004.06 716.744L1000.65 702.494L986.659 705.844L989.752 719.895L1004.06 716.744ZM1004.11 716.733L1007.52 730.983L1021.77 727.571L1018.36 713.319L1004.11 716.733ZM1017.38 709.241C1017.29 708.861 1017.2 708.484 1017.11 708.108L988.612 714.935C988.695 715.278 988.776 715.619 988.856 715.959L1017.38 709.241ZM1017.11 708.108C1017.02 707.729 1016.93 707.352 1016.84 706.976L988.365 713.912C988.448 714.254 988.531 714.595 988.612 714.935L1017.11 708.108ZM928.239 462.959L988.352 713.858L1016.85 707.03L956.738 456.131L928.239 462.959ZM956.747 456.169C956.685 455.908 956.623 455.649 956.562 455.394L928.063 462.219C928.12 462.456 928.175 462.69 928.23 462.921L956.747 456.169ZM956.562 455.394C956.5 455.133 956.437 454.874 956.375 454.619L927.894 461.518C927.951 461.754 928.007 461.987 928.063 462.219L956.562 455.394ZM927.617 460.364L927.885 461.483L956.384 454.654L956.116 453.536L927.617 460.364ZM945.295 471.196L945.301 471.194L938.433 442.705L938.428 442.706L945.295 471.196ZM956.088 453.444C916.731 293.809 755.821 195.655 595.69 234.021L602.518 262.52C746.972 227.909 892.131 316.456 927.635 460.459L956.088 453.444ZM595.69 234.021C435.558 272.387 336.6 432.804 373.857 592.941L402.4 586.3C368.791 441.843 458.063 297.13 602.518 262.52L595.69 234.021ZM391.554 603.867L391.561 603.866L384.697 575.376L384.69 575.377L391.554 603.867ZM464.613 845.992L402.371 586.208L373.872 593.036L436.114 852.82L464.613 845.992ZM446.996 835.145L446.945 835.157L453.781 863.654L453.831 863.642L446.996 835.145ZM436.23 853.07C477.068 1010.63 636.786 1107.06 795.74 1068.98L788.912 1040.48C645.522 1074.84 501.436 987.842 464.597 845.717L436.23 853.07ZM795.74 1068.98C954.693 1030.9 1053.37 872.553 1018.37 713.594L989.752 719.895C1021.32 863.282 932.302 1006.13 788.912 1040.48L795.74 1068.98ZM1000.7 702.483L1000.65 702.494L1007.47 730.994L1007.52 730.983L1000.7 702.483ZM988.869 716.014L989.859 720.147L1018.36 713.319L1017.37 709.186L988.869 716.014Z" fill="black" mask="url(#path-6-inside-1)"/>
</g>
</g>
<g id="Eyes/Eyeshadow">
<g id="Group 9">
<circle id="Ellipse 43" cx="612.994" cy="582.219" r="43.9579" transform="rotate(-6.27568 612.994 582.219)" fill="#D2EFF3"/>
<ellipse id="Ellipse 40" cx="617.721" cy="615.791" rx="32.9684" ry="49.4526" transform="rotate(-6.77646 617.721 615.791)" fill="black"/>
<circle id="Ellipse 42_2" cx="846.628" cy="550.616" r="43.9579" transform="rotate(-6.27568 846.628 550.616)" fill="#D2EFF3"/>
<ellipse id="Ellipse 41" cx="852.163" cy="579.158" rx="32.9684" ry="49.4526" transform="rotate(-6.27568 852.163 579.158)" fill="black"/>
</g>
</g>
<g id="Eyebrows/Eyelashes Up">
<g id="Group 13">
<path id="Vector 34" d="M802.105 486.767C822.863 476.999 871.705 468.085 901.01 510.578" stroke="black" stroke-width="14.6526" stroke-linecap="round"/>
<path id="Vector 35" d="M525.826 579.469C533.411 557.818 561.293 516.737 612.14 525.626" stroke="black" stroke-width="14.6526" stroke-linecap="round"/>
<path id="Vector 76" d="M534.966 557.259L512.443 537.381" stroke="black" stroke-width="14.6526" stroke-linecap="round"/>
<path id="Vector 79" d="M889.878 490.22L912.4 470.342" stroke="black" stroke-width="14.6526" stroke-linecap="round"/>
<path id="Vector 77" d="M558.59 536.587L543.766 510.459" stroke="black" stroke-width="14.6526" stroke-linecap="round"/>
<path id="Vector 80" d="M862.59 476.874L877.414 450.746" stroke="black" stroke-width="14.6526" stroke-linecap="round"/>
<path id="Vector 78" d="M588.174 523.348L580.112 494.41" stroke="black" stroke-width="14.6526" stroke-linecap="round"/>
<path id="Vector 81" d="M829.343 474.625L837.406 445.688" stroke="black" stroke-width="14.6526" stroke-linecap="round"/>
</g>
</g>
<g id="Hair/Pixie">
<path id="Union" d="M604.117 441.046C611.031 442.136 611.031 442.142 611.03 442.147L611.028 442.159L611.023 442.187L611.012 442.254C611.004 442.304 610.993 442.366 610.979 442.439C610.953 442.585 610.916 442.775 610.867 443.01C610.77 443.48 610.623 444.126 610.411 444.945C609.987 446.582 609.299 448.906 608.21 451.882C606.032 457.835 602.254 466.382 595.781 477.242C584.17 496.721 563.907 523.611 528.688 556.326C638.474 559.064 730.176 523.696 795.444 486.606C829.733 467.12 856.662 447.195 874.996 432.162C884.16 424.648 891.169 418.362 895.869 413.974C898.218 411.78 899.99 410.062 901.164 408.901C901.751 408.321 902.189 407.881 902.475 407.591C902.618 407.446 902.723 407.338 902.79 407.27L902.861 407.196L902.875 407.182L902.877 407.18L911.235 398.486L914.638 410.058L907.922 412.033C914.638 410.058 914.638 410.059 914.638 410.061L914.641 410.069L914.65 410.1L914.686 410.224L914.829 410.711C914.955 411.141 915.142 411.779 915.387 412.616C915.876 414.288 916.595 416.751 917.516 419.917C919.356 426.248 922.002 435.388 925.224 446.632C931.667 469.118 940.418 500.021 949.644 533.69C968.06 600.896 988.487 679.533 996.141 724.063C1008.93 798.491 989.152 855.001 977.451 888.427C975.176 894.925 973.206 900.551 971.841 905.266C972.036 905.431 972.293 905.631 972.628 905.868C974.815 907.419 978.693 909.206 984.299 910.988C995.346 914.499 1011.11 917.379 1027.97 919.002C1044.8 920.622 1062.32 920.951 1076.83 919.535C1084.09 918.827 1090.4 917.699 1095.42 916.166C1100.24 914.694 1103.26 913.027 1104.89 911.522C1104.94 911.208 1105 910.454 1104.82 909.002C1104.46 906.16 1103.33 902.159 1101.39 896.864C1098.48 888.963 1094.17 879.29 1089.14 867.979C1087.43 864.144 1085.64 860.12 1083.79 855.914C1069.4 823.168 1052.08 780.584 1048.31 737.198C1044.12 688.99 1053.64 647.759 1062.21 610.698L1062.61 608.932C1071.36 571.056 1078.64 538.164 1071.16 504.831C1059.82 454.241 1044.36 412.123 1020.6 381.859C997.093 351.916 965.212 333.228 919.877 329.792L915.195 329.437L913.747 324.97C892.887 260.607 864.725 218.551 828.813 192.472C792.914 166.402 748.387 155.654 693.5 155.654C592.076 155.654 482.857 194.188 400.896 260.853C319.019 327.45 264.833 421.65 271.923 533.149C279.747 656.199 270.83 749.501 250.72 817.822C232.382 880.121 204.589 922.096 171.275 946.58C175.646 948.813 181.473 951.647 188.752 954.892C207.166 963.1 234.873 973.935 271.809 984.298C342.635 1004.17 447.441 1022.32 585.783 1016.85C555.288 990.658 524.521 958.872 500.16 925.274C472.199 886.712 452.044 844.894 451.454 805.944C450.753 759.691 453.886 638.658 454.855 613.604C457.107 555.373 494.495 510.488 530.088 480.631C547.989 465.616 565.722 454.156 578.969 446.45C585.6 442.593 591.126 439.665 595.013 437.694C596.956 436.708 598.491 435.96 599.551 435.455C600.08 435.202 600.492 435.009 600.776 434.878C600.851 434.842 600.918 434.812 600.975 434.785C601.026 434.762 601.069 434.742 601.105 434.726L601.197 434.684L601.224 434.672L601.233 434.668C601.236 434.666 601.238 434.665 604.117 441.046ZM604.117 441.046L611.031 442.136L613.05 429.336L601.238 434.665L604.117 441.046ZM971.278 904.687C971.287 904.687 971.331 904.736 971.383 904.833C971.296 904.736 971.27 904.688 971.278 904.687Z" fill="#FFEBA4" stroke="black" stroke-width="14"/>
<path id="Vector 75" d="M915.663 328.463C917.495 344.947 914.564 377.916 910.168 399.894" stroke="black" stroke-width="14.6526"/>
</g>
<g id="Nose/Curve">
<path id="Vector 27" d="M746.358 636.061C747.103 650.137 752.578 680.317 768.515 688.435C788.437 698.582 772.819 732.22 735.525 730.063" stroke="black" stroke-width="14.6526"/>
</g>
<g id="Ear/Detached">
<path id="Union_2" d="M479.747 670.052V665.952L476.253 663.807C462.575 655.414 445.942 650.822 428.756 650.822C408.094 650.822 388.751 657.223 374.972 670.219C361.039 683.36 353.522 702.573 355.518 726.525C357.463 749.866 365.299 767.044 378.295 778.458C377.228 782.119 376.912 786.065 377.407 790.217C378.833 802.19 384.886 810.816 394.239 816.132C403.155 821.199 414.565 822.99 426.72 822.99C446.791 822.99 464.39 812.195 477.791 797.756L479.747 795.648V792.772V670.052Z" stroke="black" stroke-width="14.6526"/>
<path id="Union_3" fill-rule="evenodd" clip-rule="evenodd" d="M501.623 727.696C501.885 725.306 502.019 722.88 502.019 720.422C502.019 682.995 467.195 658.148 428.756 658.148C390.317 658.148 359.156 681.959 362.819 725.917C364.857 750.376 373.609 766.474 387.18 776.163C385.026 779.913 384.083 784.318 384.682 789.347C386.986 808.694 403.503 815.659 426.72 815.659C467.395 815.659 499.58 764.215 501.623 727.696Z" fill="#F9C9B6"/>
<path id="Vector 22" d="M444.947 689.285C430.294 682.57 398.059 679.029 386.337 718.591" stroke="black" stroke-width="14.6526"/>
<path id="Vector 23" d="M406.484 691.117C414.421 697.833 429.562 718.591 426.631 747.896" stroke="black" stroke-width="14.6526"/>
<g id="Ear Ring/Stud">
<circle id="Ellipse 107" cx="421.137" cy="793.684" r="14.6526" fill="white"/>
<circle id="Ellipse 108" cx="424.8" cy="790.021" r="3.66316" fill="#FFEDEF"/>
</g>
</g>
<g id="Shirt/Collared">
<path id="Vector 36" d="M695.034 1319.63C695.034 1319.63 695.034 1319.63 699.536 1313.85L695.034 1319.63L701.341 1324.55L705.685 1317.84L705.686 1317.84L705.693 1317.83L705.727 1317.77C705.759 1317.72 705.809 1317.65 705.877 1317.54C705.937 1317.45 706.01 1317.34 706.097 1317.21C706.208 1317.04 706.341 1316.84 706.495 1316.61C707.046 1315.79 707.871 1314.57 708.949 1313.01C711.105 1309.89 714.272 1305.44 718.284 1300.1C726.32 1289.43 737.692 1275.33 751.082 1261.54C764.508 1247.71 779.751 1234.43 795.502 1225.18C811.314 1215.9 826.929 1211.1 841.42 1213.05C996.88 1234.01 1111.28 1302.87 1185.54 1405.44H184.403C244.111 1297.95 329.036 1229.54 466.723 1198.15C472.59 1196.81 480.568 1197.21 490.542 1199.53C500.414 1201.83 511.669 1205.86 523.808 1211.2C548.083 1221.87 575.181 1237.43 600.646 1253.55C626.072 1269.64 649.682 1286.17 666.948 1298.69C675.576 1304.94 682.61 1310.19 687.481 1313.87C689.917 1315.71 691.811 1317.15 693.094 1318.14C693.35 1318.33 693.581 1318.51 693.787 1318.67C694.099 1318.91 694.354 1319.11 694.55 1319.26C694.713 1319.39 694.836 1319.48 694.917 1319.54L695.007 1319.61L695.029 1319.63L695.034 1319.63Z" fill="#9287FF" stroke="black" stroke-width="14.6526"/>
<path id="Vector 71" d="M423.38 1207.93L442.307 1137.48C443.073 1134.63 446.764 1133.83 448.757 1136.01C503.203 1195.58 571.911 1193.25 594.716 1190.52C597.811 1190.14 600.235 1193.53 598.781 1196.29L550.585 1287.7C549.846 1289.1 548.334 1289.87 546.784 1289.54C532.319 1286.53 460.249 1268.92 423.805 1210.8C423.272 1209.95 423.12 1208.9 423.38 1207.93Z" fill="#E0DDFF" stroke="black" stroke-width="14.6526"/>
<path id="Vector 87" d="M901.724 1207.55L859.302 1136.19C857.862 1133.76 854.314 1133.8 852.779 1136.17C831.763 1168.54 795.517 1183.45 782.843 1187.85C780.563 1188.64 779.52 1191.35 780.749 1193.43L830.211 1277C830.949 1278.25 832.344 1278.93 833.737 1278.53C841.557 1276.3 868.391 1265.08 901.676 1211.36C902.391 1210.21 902.418 1208.72 901.724 1207.55Z" fill="#E0DDFF" stroke="black" stroke-width="14.6526"/>
<path id="Vector 85" d="M631.768 1271.73L598.799 1192.97L573.157 1247.92L631.768 1271.73Z" fill="black" stroke="black" stroke-width="14.6526" stroke-linejoin="round"/>
<path id="Vector 88" d="M747.157 1268.06L780.125 1189.31L805.768 1244.25L747.157 1268.06Z" fill="black" stroke="black" stroke-width="14.6526" stroke-linejoin="round"/>
<path id="Vector 86" d="M488.904 1123.37L444.947 1134.36L481.578 1158.17L488.904 1123.37Z" fill="black" stroke="black" stroke-width="14.6526" stroke-linejoin="round"/>
<path id="Vector 89" d="M816.757 1123.37L857.052 1134.36L831.41 1158.17L816.757 1123.37Z" fill="black" stroke="black" stroke-width="14.6526" stroke-linejoin="round"/>
</g>
</g>
<path id="Vector 66" d="M607 834.878C645.487 885.162 703.811 940.87 793.782 928.167C883.753 915.463 923.784 853.323 911.982 803" stroke="black" stroke-width="24"/>
</g>
</g>
<defs>
<clipPath id="clip0">
<rect width="732.632" height="1172.21" fill="white" transform="translate(329.557 159.959)"/>
</clipPath>
</defs>
</svg>
