<svg width="739" height="702" viewBox="0 0 739 702" fill="none" xmlns="http://www.w3.org/2000/svg">
<g clip-path="url(#clip0)">
<path d="M161.447 678H139.447C127.939 678 117.659 678.814 110.873 683.175C107.681 677.367 102.988 672.523 97.284 669.15C91.5798 665.777 85.0741 663.998 78.4471 664H56.447C51.5881 664 46.7767 664.957 42.2877 666.816C37.7986 668.676 33.7198 671.401 30.2841 674.837C26.8483 678.273 24.1229 682.352 22.2635 686.841C20.4041 691.33 19.447 696.141 19.447 701V701H198.447V701C198.447 680.565 181.882 678 161.447 678Z" fill="#54545A"/>
<path d="M617.461 702H711.433C710.959 684.468 697.828 681 675.447 681H653.447C631.066 681 617.935 684.468 617.461 702Z" fill="#54545A"/>
<path d="M738.222 699.61H0V701.61H738.222V699.61Z" fill="#3F3D56"/>
<path d="M410.178 442.277C406.919 442.272 403.758 441.158 401.216 439.119C398.674 437.079 396.902 434.235 396.191 431.055L394.487 423.383L422.464 417.168L424.167 424.839C424.991 428.549 424.308 432.434 422.267 435.64C420.227 438.846 416.997 441.11 413.287 441.935V441.935C412.266 442.162 411.223 442.277 410.178 442.277V442.277ZM396.693 424.787L397.996 430.654C398.351 432.254 399.019 433.768 399.959 435.11C400.9 436.452 402.096 437.595 403.478 438.475C404.861 439.355 406.403 439.954 408.018 440.238C409.632 440.522 411.286 440.485 412.886 440.129C414.486 439.774 416 439.107 417.342 438.166C418.684 437.226 419.827 436.03 420.707 434.647C421.587 433.264 422.186 431.722 422.47 430.108C422.754 428.494 422.717 426.84 422.362 425.24L421.059 419.374L396.693 424.787Z" fill="#3F3D56"/>
<path d="M50.5 681.5C50.5 681.5 68.5 485.5 50.5 454.5C50.5 454.5 126.5 575.5 83.5 687.5L50.5 681.5Z" fill="#B9D8C2"/>
<path d="M65.2056 680.5C65.2056 680.5 122.945 577.772 120.67 556.425C120.67 556.425 132.692 641.152 81.7968 691.852L65.2056 680.5Z" fill="#B9D8C2"/>
<path d="M645.5 689.531C645.5 689.531 658.23 550.918 645.5 528.995C645.5 528.995 699.248 614.567 668.838 693.774L645.5 689.531Z" fill="#B9D8C2"/>
<path d="M655.9 688.824C655.9 688.824 696.734 616.174 695.125 601.077C695.125 601.077 703.627 660.996 667.633 696.852L655.9 688.824Z" fill="#B9D8C2"/>
<path d="M342.644 258.9C360.088 249.231 377.807 238.871 390.133 223.192C403.006 206.818 408.501 182.327 396.571 165.253C386.55 150.911 366.595 145.868 349.597 150.013C332.598 154.158 318.368 165.966 307.316 179.53C310.932 162.859 293.35 146.762 276.356 148.239C259.361 149.715 245.725 164.569 241.188 181.013C236.65 197.457 239.602 215.055 244.471 231.404C252.67 258.817 266.069 284.395 283.936 306.743C286.676 301.78 289.987 297.154 293.801 292.959C307.219 278.203 325.199 268.568 342.644 258.9Z" fill="#7FC8F8"/>
<path d="M282.344 307.541C259.516 282.372 242.797 252.28 233.484 219.602C228.698 202.626 225.894 183.326 233.067 166.579C238.615 153.626 250.439 141.906 265.096 140.821C280.565 139.676 297.736 154 294.423 170.379C294.175 171.602 295.786 172.893 296.74 171.728C309.122 156.616 326.141 142.695 346.423 141.331C364.487 140.115 383.463 149.142 388.725 167.493C394.206 186.607 384.75 206.828 371.507 220.344C356.817 235.337 337.694 244.689 319.645 254.901C301.887 264.948 283.825 276.549 272.902 294.309C267.712 302.523 264.505 311.832 263.535 321.5C262.677 331.479 265.173 340.914 270.004 349.615C275.135 358.858 281.48 367.283 286.114 376.826C290.671 386.258 294.137 396.179 296.445 406.397C301.108 426.763 301.138 447.917 296.535 468.297C288.021 505.44 263.177 538.13 230.113 556.936C226.118 559.204 222.011 561.269 217.808 563.123C216.179 563.843 217.589 566.234 219.208 565.518C236.722 557.657 252.467 546.338 265.496 532.239C278.525 518.141 288.57 501.554 295.028 483.476C309.016 443.766 303.654 398.012 281.276 362.414C275.42 353.097 268.654 344.063 266.726 332.963C264.959 322.792 267.135 312.182 271.43 302.903C280.627 283.032 298.857 270.115 317.271 259.454C335.68 248.796 355.345 239.566 370.946 224.783C384.835 211.623 395.08 192.845 392.675 173.174C391.683 164.184 387.498 155.849 380.881 149.683C374.211 143.817 365.935 140.085 357.123 138.967C337.463 136.196 319.034 145.523 305.021 158.709C301.372 162.17 297.951 165.864 294.779 169.767L297.097 171.116C300.088 156.332 288.335 142.75 274.574 139.01C259.609 134.944 244.774 143.693 236.151 155.553C225.38 170.368 224.499 189.367 227.647 206.834C230.913 224.955 237.675 242.695 245.888 259.123C255.045 277.405 266.65 294.354 280.383 309.502C281.584 310.828 283.54 308.862 282.344 307.541L282.344 307.541Z" fill="#3F3D56"/>
<path d="M397.313 520.491C398.123 519.264 398.653 517.874 398.868 516.42C399.082 514.965 398.975 513.482 398.553 512.073C398.132 510.665 397.407 509.366 396.43 508.268C395.452 507.17 394.246 506.3 392.896 505.718L395.486 470.077L379.284 479.15L379.308 511.604C378.481 513.937 378.54 516.492 379.471 518.785C380.403 521.078 382.143 522.95 384.363 524.045C386.582 525.141 389.127 525.384 391.513 524.729C393.9 524.074 395.964 522.566 397.313 520.491V520.491Z" fill="#FFB8B8"/>
<path d="M393.283 381.945L397.713 495.363L379.713 494.363L375.713 375.363L379.509 373.577C380.953 372.897 382.543 372.586 384.137 372.67C385.731 372.755 387.279 373.233 388.643 374.062C390.007 374.891 391.145 376.044 391.954 377.42C392.764 378.795 393.22 380.35 393.283 381.945Z" fill="#F9F9F9"/>
<path d="M337.615 688.201H325.356L319.523 640.913H337.617L337.615 688.201Z" fill="#FFB8B8"/>
<path d="M316.598 684.698H340.242V699.585H301.711C301.711 697.63 302.096 695.694 302.845 693.888C303.593 692.081 304.689 690.44 306.072 689.058C307.454 687.676 309.095 686.579 310.901 685.831C312.707 685.083 314.643 684.698 316.598 684.698V684.698Z" fill="#2F2E41"/>
<path d="M439.618 673.55L428.493 678.7L403.332 638.239L419.753 630.637L439.618 673.55Z" fill="#FFB8B8"/>
<path d="M419.074 679.2L440.531 669.267L446.785 682.777L411.819 698.964C410.998 697.19 410.534 695.271 410.454 693.318C410.374 691.364 410.68 689.414 411.354 687.579C412.027 685.744 413.056 684.059 414.381 682.622C415.705 681.184 417.3 680.021 419.074 679.2V679.2Z" fill="#2F2E41"/>
<path d="M308.505 533.874L321.149 678.163L338.149 676.163L350.713 544.363L420.149 670.163L438.149 665.163C438.149 665.163 380.213 491.863 375.713 477.363C370.78 461.468 331.713 455.363 331.713 455.363L330.213 453.863C313.426 476.461 306.703 505.782 308.505 533.874Z" fill="#132451"/>
<path d="M375.862 361.059C389.427 361.059 400.423 350.062 400.423 336.498C400.423 322.933 389.427 311.937 375.862 311.937C362.298 311.937 351.301 322.933 351.301 336.498C351.301 350.062 362.298 361.059 375.862 361.059Z" fill="#FFB8B8"/>
<path d="M393.149 374.163L374.213 472.863C374.213 472.863 348.273 467.683 339.033 461.443C335.373 458.963 332.053 456.403 329.253 454.083C326.103 451.497 323.086 448.753 320.213 445.863C320.213 445.863 326.853 413.253 329.223 404.523C331.975 394.411 341.416 382.632 348.769 374.606C351.435 371.698 354.842 369.57 358.625 368.451C362.408 367.331 366.424 367.261 370.243 368.25L393.149 374.163Z" fill="#F9F9F9"/>
<path opacity="0.2" d="M339.033 461.443C335.373 458.963 332.053 456.403 329.253 454.083C330.263 439.143 352.273 407.863 361.193 407.863C361.193 407.863 363.303 456.073 339.033 461.443Z" fill="black"/>
<path d="M293.729 500.68C295.111 500.179 296.366 499.381 297.407 498.343C298.447 497.304 299.247 496.05 299.75 494.668C300.253 493.287 300.447 491.812 300.318 490.348C300.19 488.883 299.742 487.465 299.006 486.192L322.365 459.149L303.95 456.752L284.591 482.8C282.536 484.178 281.057 486.263 280.435 488.659C279.813 491.054 280.092 493.595 281.218 495.799C282.345 498.003 284.24 499.717 286.546 500.617C288.852 501.517 291.408 501.539 293.729 500.68V500.68Z" fill="#FFB8B8"/>
<path d="M359.035 369.388C358.018 369.409 357.004 369.525 356.009 369.735C353.993 370.195 352.123 371.149 350.567 372.51C349.01 373.872 347.816 375.598 347.091 377.534L318.213 437.863L287.213 470.863L302.713 483.363L351.713 439.363L371.289 386.082C371.914 384.158 372.072 382.112 371.751 380.115C371.429 378.117 370.637 376.225 369.44 374.594C368.243 372.963 366.675 371.641 364.866 370.735C363.057 369.83 361.058 369.368 359.035 369.388Z" fill="#F9F9F9"/>
<path d="M377.316 360.833C380.812 355.601 383.571 348.345 379.722 343.367C375.923 338.453 368.43 339.177 362.611 337.002C354.507 333.974 349.807 324.453 351.273 315.927C352.739 307.4 359.583 300.332 367.737 297.44C375.891 294.548 385.085 295.489 393.07 298.819C402.9 302.919 411.331 310.849 414.867 320.895C418.403 330.941 416.513 343.003 409.178 350.725C401.314 359.003 388.972 361.209 377.555 361.076" fill="#C98A2E"/>
<path d="M415.885 331.873C416.885 337.464 423.019 340.639 428.655 341.337C434.292 342.035 440.123 341.14 445.611 342.606C455.285 345.191 461.666 354.495 465.178 363.872C468.69 373.249 470.247 383.37 474.81 392.283C479.373 401.197 488.221 409.055 498.199 408.221C496.244 413.143 492.819 417.341 488.39 420.244C483.96 423.147 478.744 424.612 473.451 424.441C468.158 424.269 463.047 422.469 458.815 419.285C454.583 416.101 451.437 411.69 449.805 406.652C446.139 395.335 450.347 381.839 443.937 371.818C440.389 366.273 434.264 363.012 428.357 360.105C422.451 357.199 416.251 354.216 412.291 348.958C408.331 343.699 407.54 335.395 412.42 330.977" fill="#C98A2E"/>
</g>
<defs>
<clipPath id="clip0">
<rect width="738.222" height="702" fill="white"/>
</clipPath>
</defs>
</svg>
