<svg width="115" height="31" viewBox="0 0 115 31" fill="none" xmlns="http://www.w3.org/2000/svg">
<path d="M1 25C1 11.1929 12.1929 0 26 0H114V6C114 19.8071 102.807 31 89 31H1V25Z" fill="black"/>
<path d="M16.8826 14.0786V30.3429H15.199V12.6C15.199 11.68 14.9633 10.9571 14.4918 10.4314C14.0429 9.90571 13.2684 9.64286 12.1684 9.64286H12V8.65714H14.3571C15.6143 8.65714 16.6357 8.82143 17.4214 9.15C18.2296 9.45667 18.903 9.94952 19.4418 10.6286L31.0255 23.7714V8.65714H32.7091V30.4414H31.1602L16.8826 14.0786Z" fill="white"/>
<path d="M44.4067 30.9014C43.1496 30.9014 41.9373 30.7371 40.77 30.4086C39.6026 30.1019 38.6486 29.6529 37.9077 29.0614C37.1669 28.4481 36.7965 27.7471 36.7965 26.9586V23.1143H37.7394C38.0761 25.3486 38.7833 26.9586 39.8608 27.9443C40.9383 28.93 42.4424 29.4229 44.373 29.4229C45.6751 29.4229 46.7077 29.149 47.471 28.6014C48.2343 28.0538 48.6159 27.2652 48.6159 26.2357C48.6159 25.3595 48.3353 24.6148 47.7741 24.0014C47.2128 23.3881 46.3373 22.72 45.1475 21.9971L41.0057 19.5657C39.5016 18.7114 38.4241 17.8243 37.7731 16.9043C37.1445 15.9843 36.8302 14.911 36.8302 13.6843C36.8302 11.9538 37.5037 10.5848 38.8506 9.57714C40.22 8.56952 42.0608 8.06571 44.373 8.06571C45.6302 8.06571 46.8424 8.23 48.0098 8.55857C49.1771 8.86524 50.1312 9.32524 50.872 9.93857C51.6128 10.53 51.9832 11.22 51.9832 12.0086V15.8529H51.0404C50.6587 13.6186 49.9516 12.0086 48.9189 11.0229C47.8863 10.0371 46.4945 9.54429 44.7434 9.54429C43.5312 9.54429 42.5659 9.82905 41.8475 10.3986C41.1516 10.9681 40.8037 11.7457 40.8037 12.7314C40.8037 13.5857 41.073 14.2976 41.6118 14.8671C42.173 15.4148 43.071 16.039 44.3057 16.74L48.4475 19.1386C50.0189 20.0367 51.1414 20.9129 51.8149 21.7671C52.5108 22.5995 52.8587 23.6071 52.8587 24.79C52.8587 26.6957 52.1179 28.1962 50.6363 29.2914C49.1771 30.3648 47.1006 30.9014 44.4067 30.9014Z" fill="white"/>
<path d="M66.4475 31C64.1353 31 62.1373 30.5181 60.4537 29.5543C58.7925 28.5686 57.5241 27.2324 56.6486 25.5457C55.7731 23.859 55.3353 21.9533 55.3353 19.8286C55.3353 17.6381 55.818 15.6448 56.7833 13.8486C57.7486 12.0305 59.0731 10.6067 60.7567 9.57714C62.4628 8.52571 64.3598 8 66.4475 8C68.423 8 70.073 8.25191 71.3975 8.75571C72.722 9.23762 73.7322 9.87286 74.4281 10.6614C74.8322 11.1652 75.0792 11.7895 75.169 12.5343C75.2587 13.279 75.3036 14.3195 75.3036 15.6557H74.2934C73.8669 13.6405 73.0812 12.1071 71.9363 11.0557C70.7914 10.0043 69.2986 9.47857 67.4577 9.47857C65.1679 9.47857 63.3608 10.2671 62.0363 11.8443C60.7118 13.4214 60.0496 16.0829 60.0496 19.8286C60.0496 22.6105 60.6557 24.9214 61.868 26.7614C63.0802 28.6014 64.9435 29.5214 67.4577 29.5214C69.0292 29.5214 70.4659 29.1162 71.7679 28.3057C73.0924 27.4952 74.1587 26.3343 74.9669 24.8229L76.1455 25.71C75.0679 27.55 73.7659 28.8971 72.2394 29.7514C70.7128 30.5838 68.7822 31 66.4475 31Z" fill="white"/>
<path d="M89.3021 31C86.9898 31 84.9919 30.5181 83.3082 29.5543C81.647 28.5686 80.3786 27.2324 79.5031 25.5457C78.6276 23.859 78.1898 21.9533 78.1898 19.8286C78.1898 17.6381 78.6725 15.6448 79.6378 13.8486C80.6031 12.0305 81.9276 10.6067 83.6112 9.57714C85.3174 8.52571 87.2143 8 89.3021 8C91.2776 8 92.9276 8.25191 94.252 8.75571C95.5765 9.23762 96.5867 9.87286 97.2827 10.6614C97.6867 11.1652 97.9337 11.7895 98.0235 12.5343C98.1133 13.279 98.1582 14.3195 98.1582 15.6557H97.148C96.7214 13.6405 95.9357 12.1071 94.7908 11.0557C93.6459 10.0043 92.1531 9.47857 90.3123 9.47857C88.0225 9.47857 86.2153 10.2671 84.8908 11.8443C83.5664 13.4214 82.9041 16.0829 82.9041 19.8286C82.9041 22.6105 83.5102 24.9214 84.7225 26.7614C85.9347 28.6014 87.798 29.5214 90.3123 29.5214C91.8837 29.5214 93.3204 29.1162 94.6225 28.3057C95.9469 27.4952 97.0133 26.3343 97.8214 24.8229L99 25.71C97.9224 27.55 96.6204 28.8971 95.0939 29.7514C93.5673 30.5838 91.6367 31 89.3021 31Z" fill="white"/>
</svg>
