<svg width="762" height="545" viewBox="0 0 762 545" fill="none" xmlns="http://www.w3.org/2000/svg">
<path d="M536.5 43.3672H45.5C28.9315 43.3672 15.5 56.7987 15.5 73.3672V356.481C15.5 373.049 28.9315 386.481 45.5 386.481H536.5C553.069 386.481 566.5 373.049 566.5 356.481V73.3672C566.5 56.7986 553.069 43.3672 536.5 43.3672Z" stroke="black" stroke-width="3"/>
<path opacity="0.7" d="M153.365 109.467H52.449V175.062H153.365V109.467Z" fill="white"/>
<path opacity="0.7" d="M278.76 109.467H177.844V175.062H278.76V109.467Z" fill="white"/>
<path opacity="0.7" d="M404.156 109.467H303.24V175.062H404.156V109.467Z" fill="white"/>
<path opacity="0.7" d="M529.551 109.467H428.635V175.062H529.551V109.467Z" fill="white"/>
<path opacity="0.7" d="M153.365 202.309H52.449V267.904H153.365V202.309Z" fill="white"/>
<path opacity="0.7" d="M278.76 202.309H177.844V267.904H278.76V202.309Z" fill="white"/>
<path opacity="0.7" d="M404.156 202.309H303.24V267.904H404.156V202.309Z" fill="white"/>
<path opacity="0.7" d="M529.551 202.309H428.635V267.904H529.551V202.309Z" fill="white"/>
<path opacity="0.7" d="M153.365 295.15H52.449V360.746H153.365V295.15Z" fill="white"/>
<path opacity="0.7" d="M278.76 295.15H177.844V360.746H278.76V295.15Z" fill="white"/>
<path opacity="0.7" d="M404.156 295.15H303.24V360.746H404.156V295.15Z" fill="white"/>
<path opacity="0.7" d="M529.551 295.15H428.635V360.746H529.551V295.15Z" fill="white"/>
<path d="M159.809 83.7318C168.17 83.7318 174.947 76.9545 174.947 68.5944C174.947 60.2343 168.17 53.457 159.809 53.457C151.449 53.457 144.672 60.2343 144.672 68.5944C144.672 76.9545 151.449 83.7318 159.809 83.7318Z" fill="white"/>
<path d="M410.081 83.7318C418.441 83.7318 425.218 76.9545 425.218 68.5944C425.218 60.2343 418.441 53.457 410.081 53.457C401.721 53.457 394.943 60.2343 394.943 68.5944C394.943 76.9545 401.721 83.7318 410.081 83.7318Z" fill="white"/>
<path d="M165.865 3H153.755V72.6319H165.865V3Z" fill="#E6E6E6"/>
<path d="M416.136 3H404.026V72.6319H416.136V3Z" fill="#E6E6E6"/>
<path fill-rule="evenodd" clip-rule="evenodd" d="M496.33 157.175C499.926 153.039 501.909 147.745 501.914 142.265C501.915 137.949 500.692 133.722 498.387 130.074L475.923 152.534C474.511 150.348 466.646 140.19 466.646 140.19C467.654 139.171 468.729 138.221 469.865 137.348L476.388 146.044L495.756 126.676C493.03 123.769 489.57 121.61 485.705 120.449C480.457 118.872 474.815 119.242 469.818 121.491C464.82 123.74 460.802 127.717 458.502 132.692C456.202 137.666 455.774 143.303 457.297 148.567C458.82 153.832 462.192 158.37 466.793 161.347C471.394 164.325 476.914 165.542 482.341 164.776C487.767 164.009 492.734 161.31 496.33 157.175Z" fill="#00CE46"/>
<path fill-rule="evenodd" clip-rule="evenodd" d="M245.539 250.016C249.135 245.881 251.118 240.587 251.123 235.106C251.124 230.791 249.901 226.564 247.596 222.916C247.505 222.771 247.411 222.628 247.317 222.485C247.411 222.628 247.505 222.771 247.596 222.916L225.132 245.376C223.72 243.19 215.854 233.032 215.854 233.032C216.863 232.013 217.938 231.063 219.074 230.189L225.597 238.886L244.965 219.518C242.239 216.611 238.779 214.451 234.914 213.29C229.665 211.714 224.024 212.084 219.027 214.333C214.029 216.582 210.011 220.559 207.711 225.533C205.411 230.508 204.983 236.145 206.506 241.409C208.029 246.673 211.401 251.211 216.002 254.189C220.602 257.167 226.123 258.384 231.55 257.618C236.976 256.851 241.943 254.152 245.539 250.016Z" fill="#00CE46"/>
<path fill-rule="evenodd" clip-rule="evenodd" d="M120.144 250.017C123.74 245.881 125.722 240.587 125.727 235.106C125.728 230.791 124.505 226.564 122.201 222.916L99.7369 245.376C98.325 243.19 90.4592 233.032 90.4592 233.032C91.4673 232.013 92.543 231.063 93.679 230.189L100.202 238.886L119.57 219.518C116.844 216.611 113.383 214.451 109.518 213.29C104.27 211.714 98.6286 212.084 93.6311 214.333C88.6337 216.582 84.6157 220.559 82.3156 225.533C80.0154 230.508 79.5876 236.145 81.1106 241.409C82.6337 246.674 86.0053 251.212 90.606 254.189C95.2068 257.167 100.728 258.384 106.154 257.618C111.58 256.851 116.548 254.152 120.144 250.017Z" fill="#00CE46"/>
<path d="M650 378.796V342.761C650.001 341.764 650.398 340.808 651.103 340.103C651.808 339.398 652.764 339.001 653.761 339H684.298C685.295 339.001 686.251 339.398 686.956 340.103C687.661 340.808 688.057 341.764 688.058 342.761V378.796C688.057 379.793 687.661 380.749 686.956 381.454C686.251 382.159 685.295 382.556 684.298 382.557H653.761C652.764 382.556 651.808 382.159 651.103 381.454C650.398 380.749 650.001 379.793 650 378.796V378.796Z" fill="#65A3B7"/>
<path d="M661 366.796V330.761C661.001 329.764 661.398 328.808 662.103 328.103C662.808 327.398 663.764 327.001 664.761 327H695.298C696.295 327.001 697.251 327.398 697.956 328.103C698.661 328.808 699.057 329.764 699.058 330.761V366.796C699.057 367.793 698.661 368.749 697.956 369.454C697.251 370.159 696.295 370.556 695.298 370.557H664.761C663.764 370.556 662.808 370.159 662.103 369.454C661.398 368.749 661.001 367.793 661 366.796V366.796Z" fill="#5ACEF2"/>
<path d="M540.298 289.557H509.761C508.764 289.556 507.808 289.159 507.103 288.454C506.398 287.749 506.001 286.793 506 285.796V249.761C506.001 248.764 506.398 247.808 507.103 247.103C507.808 246.398 508.764 246.001 509.761 246H540.298C541.295 246.001 542.251 246.398 542.956 247.103C543.661 247.808 544.057 248.764 544.058 249.761V285.796C544.057 286.793 543.661 287.749 542.956 288.454C542.251 289.159 541.295 289.556 540.298 289.557Z" fill="#5ACEF2"/>
<path d="M290.798 288.557H260.261C259.264 288.556 258.308 288.159 257.603 287.454C256.898 286.749 256.501 285.793 256.5 284.796V248.761C256.501 247.764 256.898 246.808 257.603 246.103C258.308 245.398 259.264 245.001 260.261 245H290.798C291.795 245.001 292.751 245.398 293.456 246.103C294.161 246.808 294.557 247.764 294.558 248.761V284.796C294.557 285.793 294.161 286.749 293.456 287.454C292.751 288.159 291.795 288.556 290.798 288.557V288.557Z" fill="url(#paint0_linear)"/>
<path d="M593.23 362.968C595.498 362.974 597.688 362.138 599.375 360.622C600.32 359.78 601.082 358.754 601.616 357.606C602.149 356.459 602.442 355.215 602.477 353.95L638.595 327.682C639.684 326.89 640.589 325.87 641.247 324.694C641.905 323.518 642.301 322.214 642.406 320.871C642.512 319.527 642.325 318.177 641.858 316.913C641.391 315.649 640.656 314.501 639.704 313.548L612.814 286.658C611.706 285.55 610.294 284.796 608.758 284.49C607.221 284.184 605.628 284.341 604.18 284.941C602.732 285.541 601.495 286.556 600.624 287.859C599.754 289.162 599.289 290.694 599.289 292.261C599.509 296.371 601.129 300.283 603.88 303.345L622.138 321.603L593.482 344.444C593.394 344.438 593.305 344.434 593.216 344.434C590.85 344.433 588.573 345.338 586.853 346.962C585.133 348.587 584.098 350.807 583.963 353.169C583.827 355.532 584.6 357.856 586.123 359.667C587.646 361.477 589.804 362.637 592.154 362.908C592.511 362.947 592.871 362.967 593.23 362.968V362.968Z" fill="#F9C9B6"/>
<path d="M550.312 518.118L540.621 514.5L549.964 475.398L564.267 480.738L550.312 518.118Z" fill="#F9C9B6"/>
<path d="M518.572 516.521L549.029 527.892L553.423 516.124L534.316 508.991C531.305 507.867 527.972 507.985 525.048 509.32C522.125 510.654 519.851 513.094 518.727 516.105L518.572 516.521V516.521Z" fill="#2F2E41"/>
<path d="M637.498 519.892H627.153L622.232 479.992L637.499 479.993L637.498 519.892Z" fill="#F9C9B6"/>
<path d="M607.203 529.496L639.714 529.498L639.715 516.936L619.32 516.936C616.106 516.935 613.024 518.212 610.752 520.484C608.48 522.756 607.203 525.838 607.203 529.051L607.203 529.496V529.496Z" fill="#2F2E41"/>
<path d="M626.333 509.004C626.449 509.004 626.565 508.998 626.682 508.987L637.648 507.943C638.537 507.858 639.365 507.451 639.975 506.798C640.585 506.146 640.936 505.293 640.962 504.4C641.594 480.653 643.188 360.805 612.347 333.341C611.813 332.871 611.15 332.572 610.444 332.481C604.857 331.715 586.01 329.837 578.033 337.861C577.527 338.366 577.176 339.006 577.023 339.705L542.1 501.171C541.993 501.668 541.99 502.181 542.092 502.679C542.194 503.177 542.398 503.649 542.692 504.063C542.986 504.478 543.363 504.827 543.799 505.088C544.236 505.349 544.721 505.516 545.226 505.579L558.615 507.253C559.099 507.314 559.59 507.278 560.059 507.146C560.528 507.015 560.967 506.791 561.348 506.488C561.73 506.185 562.047 505.809 562.281 505.381C562.516 504.954 562.662 504.484 562.712 503.999C564.044 491.02 572.05 425.092 598.878 401.723C599.241 401.404 599.678 401.181 600.15 401.075C600.622 400.969 601.112 400.983 601.577 401.116C602.032 401.243 602.448 401.483 602.785 401.814C603.121 402.145 603.368 402.557 603.501 403.01C608.468 419.261 624.529 474.65 622.683 505.122C622.652 505.62 622.724 506.12 622.893 506.589C623.063 507.059 623.327 507.489 623.668 507.852C624.01 508.216 624.423 508.506 624.881 508.704C625.34 508.902 625.834 509.004 626.333 509.004Z" fill="#2F2E41"/>
<path d="M605.229 267.275C594.189 267.275 585.239 258.325 585.239 247.285C585.239 236.245 594.189 227.295 605.229 227.295C616.269 227.295 625.219 236.245 625.219 247.285C625.219 258.325 616.269 267.275 605.229 267.275Z" fill="#F9C9B6"/>
<path d="M624.857 284.932C624.857 284.932 606.294 262.994 591.106 280.714C581.334 292.115 576.166 306.751 576.611 321.76L577.184 341.043L612.201 335.559L624.857 284.932Z" fill="#F9F9F9"/>
<path d="M576.075 327.442C576.221 327.442 576.367 327.439 576.513 327.432C578.009 327.37 579.474 326.985 580.806 326.301C582.138 325.618 583.307 324.654 584.23 323.475L606.95 294.506C607.917 293.273 608.497 291.781 608.616 290.219C608.735 288.656 608.388 287.094 607.619 285.729C606.85 284.363 605.693 283.257 604.295 282.549C602.897 281.841 601.321 281.563 599.765 281.751L596.567 282.138C594.524 282.496 592.665 283.543 591.3 285.104L573.378 307.956L547.262 282.249C547.257 282.16 547.251 282.072 547.24 281.983C547.022 280.174 546.275 278.469 545.093 277.082C543.911 275.695 542.347 274.688 540.595 274.185C538.843 273.683 536.982 273.708 535.245 274.258C533.507 274.808 531.971 275.857 530.827 277.276C529.683 278.694 528.982 280.419 528.813 282.233C528.644 284.048 529.014 285.872 529.876 287.477C530.738 289.083 532.054 290.398 533.66 291.26C535.266 292.121 537.09 292.49 538.905 292.32L568.492 324.136C569.46 325.179 570.634 326.011 571.939 326.58C573.244 327.149 574.652 327.442 576.075 327.442V327.442Z" fill="#F9C9B6"/>
<path d="M601.989 250.744L593.4 240.626C591.187 238.019 588.872 235.178 588.559 231.772C588.216 228.039 590.487 224.41 593.591 222.308C596.696 220.206 600.508 219.415 604.246 219.125C611.179 218.586 618.474 219.732 624.174 223.716C629.873 227.7 633.602 234.893 632.212 241.707C631.118 247.071 627.086 252.211 628.653 257.457C630.368 263.197 637.4 264.959 643.141 266.67C652.778 269.544 661.979 275.2 667.03 283.896C672.08 292.592 672.058 304.582 665.326 312.052C660.967 316.889 654.392 319.335 647.891 319.703C641.389 320.072 634.919 318.54 628.753 316.446C623.075 314.517 617.458 312.037 612.988 308.039C608.517 304.042 605.297 298.322 605.436 292.327C605.569 286.613 608.63 281.409 609.887 275.834C610.879 271.165 610.618 266.318 609.133 261.783C607.647 257.247 604.988 253.185 601.426 250.009" fill="#271E0F"/>
<defs>
<linearGradient id="paint0_linear" x1="295" y1="297.5" x2="256" y2="245" gradientUnits="userSpaceOnUse">
<stop stop-color="#5ACEF2"/>
<stop offset="0.916667" stop-color="#5ACEF2"/>
</linearGradient>
</defs>
</svg>
