<svg width="525" height="441" viewBox="0 0 525 441" fill="none" xmlns="http://www.w3.org/2000/svg">
<g clip-path="url(#clip0)">
<path opacity="0.5" d="M277.804 8.51311e-06H13.1957C10.9165 -0.00258838 8.67599 0.588987 6.69484 1.71645C6.22031 1.98594 5.76338 2.28534 5.32684 2.61288C3.67385 3.83908 2.33099 5.43576 1.40594 7.2749C0.48088 9.11404 -0.000632068 11.1445 6.22694e-07 13.2034V150.797C0.00311037 154.297 1.39437 157.654 3.86837 160.129C6.34237 162.605 9.69694 163.997 13.1957 164H277.804C281.303 163.997 284.658 162.605 287.132 160.129C289.606 157.654 290.997 154.297 291 150.797V13.2034C290.997 9.70261 289.606 6.34612 287.132 3.87069C284.658 1.39526 281.303 0.00317702 277.804 8.51311e-06V8.51311e-06Z" fill="white"/>
<path d="M277.804 8.51311e-06H13.1957C10.9165 -0.00258838 8.67599 0.588987 6.69484 1.71645C6.22031 1.98594 5.76338 2.28534 5.32684 2.61288C3.67385 3.83908 2.33099 5.43576 1.40594 7.2749C0.48088 9.11404 -0.000632068 11.1445 6.22694e-07 13.2034V150.797C0.00311037 154.297 1.39437 157.654 3.86837 160.129C6.34237 162.605 9.69694 163.997 13.1957 164H277.804C281.303 163.997 284.658 162.605 287.132 160.129C289.606 157.654 290.997 154.297 291 150.797V13.2034C290.997 9.70261 289.606 6.34612 287.132 3.87069C284.658 1.39526 281.303 0.00317702 277.804 8.51311e-06V8.51311e-06ZM289.611 150.797C289.606 153.928 288.361 156.931 286.148 159.145C283.935 161.36 280.934 162.606 277.804 162.61H13.1957C10.0657 162.606 7.06524 161.36 4.85202 159.145C2.63879 156.931 1.39345 153.928 1.38902 150.797V13.2034C1.39889 10.7068 2.19463 8.27674 3.66324 6.25836C5.13186 4.23998 7.19869 2.73587 9.57021 1.95965C9.66754 1.93186 9.75772 1.89713 9.85507 1.86933C10.9399 1.55023 12.065 1.38875 13.1957 1.38984H277.804C280.934 1.39433 283.935 2.64039 286.148 4.85489C288.361 7.06939 289.606 10.0716 289.611 13.2034V150.797Z" fill="#3F3D56" stroke="black" stroke-width="1.5"/>
<path d="M144.902 82C143.846 81.9996 142.807 81.7329 141.883 81.2247L3.36032 5.30012C3.19863 5.21149 3.07894 5.06252 3.02754 4.886C2.97614 4.70948 2.99724 4.51985 3.08624 4.35884C3.17524 4.19782 3.32483 4.0786 3.50209 4.02742C3.67935 3.97623 3.86977 3.99727 4.03146 4.0859L142.554 80.0105C143.26 80.399 144.053 80.6061 144.86 80.6132C145.667 80.6203 146.463 80.4271 147.176 80.0512L287.978 6.08317C288.059 6.04049 288.148 6.01411 288.239 6.00553C288.33 5.99695 288.422 6.00634 288.509 6.03317C288.597 6.06 288.678 6.10373 288.748 6.16187C288.819 6.22001 288.877 6.29143 288.92 6.37202C288.962 6.4526 288.989 6.54078 288.997 6.63151C289.005 6.72223 288.996 6.81373 288.969 6.90074C288.942 6.98776 288.898 7.06861 288.839 7.13864C288.78 7.20867 288.709 7.2665 288.628 7.30885L147.825 81.2768C146.924 81.7512 145.921 81.9995 144.902 82V82Z" fill="#3F3D56" stroke="black" stroke-width="1.5"/>
<path opacity="0.5" d="M44.3636 129H24.6364C23.1415 129 21.7079 128.421 20.6509 127.389C19.5938 126.358 19 124.959 19 123.5C19 122.041 19.5938 120.642 20.6509 119.611C21.7079 118.579 23.1415 118 24.6364 118H44.3636C45.8585 118 47.2921 118.579 48.3492 119.611C49.4062 120.642 50 122.041 50 123.5C50 124.959 49.4062 126.358 48.3492 127.389C47.2921 128.421 45.8585 129 44.3636 129Z" fill="#F2F2F2"/>
<path opacity="0.5" d="M66.4935 148H24.5065C23.0461 148 21.6455 147.421 20.6128 146.389C19.5802 145.358 19 143.959 19 142.5C19 141.041 19.5802 139.642 20.6128 138.611C21.6455 137.579 23.0461 137 24.5065 137H66.4935C67.9539 137 69.3545 137.579 70.3872 138.611C71.4199 139.642 72 141.041 72 142.5C72 143.959 71.4199 145.358 70.3872 146.389C69.3545 147.421 67.9539 148 66.4935 148Z" fill="#F2F2F2"/>
<path d="M146 104C158.15 104 168 94.1503 168 82C168 69.8497 158.15 60 146 60C133.85 60 124 69.8497 124 82C124 94.1503 133.85 104 146 104Z" fill="#313131"/>
<path opacity="0.5" d="M43.8555 12.6929L141.945 53.892C142.283 54.034 142.663 54.036 143.003 53.8977L244.131 12.6986C244.43 12.5767 244.678 12.3538 244.832 12.0681C244.986 11.7825 245.036 11.4518 244.974 11.1328C244.913 10.8138 244.743 10.5264 244.494 10.3197C244.244 10.113 243.932 10 243.609 10H44.3911C44.0696 10 43.758 10.1121 43.5093 10.3173C43.2606 10.5225 43.0902 10.8081 43.0271 11.1255C42.964 11.4428 43.012 11.7724 43.163 12.0582C43.314 12.344 43.5587 12.5683 43.8555 12.6929Z" fill="#F2F2F2"/>
<path d="M415.313 252.491C416.123 251.264 416.653 249.874 416.868 248.42C417.082 246.965 416.975 245.482 416.553 244.073C416.132 242.665 415.407 241.366 414.43 240.268C413.452 239.17 412.246 238.299 410.896 237.718L413.486 202.077L397.284 211.149L397.308 243.604C396.481 245.937 396.54 248.492 397.471 250.785C398.403 253.078 400.143 254.949 402.363 256.045C404.582 257.14 407.127 257.384 409.513 256.729C411.9 256.074 413.964 254.566 415.313 252.491V252.491Z" fill="#F9C9B6"/>
<path d="M411.283 113.944L415.713 227.363L397.713 226.363L393.713 107.363L397.509 105.576C398.953 104.897 400.543 104.585 402.137 104.67C403.731 104.754 405.279 105.233 406.643 106.061C408.007 106.89 409.145 108.044 409.954 109.419C410.764 110.795 411.22 112.35 411.283 113.944Z" fill="#F9F9F9"/>
<path d="M355.615 420.201H343.356L337.523 372.913H355.617L355.615 420.201Z" fill="#F9C9B6"/>
<path d="M334.598 416.697H358.242V431.584H319.711C319.711 429.629 320.096 427.693 320.845 425.887C321.593 424.081 322.689 422.44 324.072 421.058C325.454 419.675 327.095 418.579 328.901 417.83C330.707 417.082 332.643 416.697 334.598 416.697V416.697Z" fill="#2F2E41"/>
<path d="M457.618 405.55L446.493 410.7L421.332 370.239L437.753 362.637L457.618 405.55Z" fill="#F9C9B6"/>
<path d="M437.074 411.2L458.531 401.267L464.785 414.777L429.819 430.964C428.998 429.19 428.534 427.271 428.454 425.318C428.374 423.364 428.68 421.414 429.354 419.579C430.027 417.744 431.056 416.059 432.381 414.622C433.705 413.184 435.3 412.021 437.074 411.2V411.2Z" fill="#2F2E41"/>
<path d="M326.505 265.874L339.149 410.163L356.149 408.163L368.713 276.363L438.149 402.163L456.149 397.163C456.149 397.163 398.213 223.863 393.713 209.363C388.78 193.468 349.713 187.363 349.713 187.363L348.213 185.863C331.426 208.461 324.703 237.782 326.505 265.874Z" fill="#132451"/>
<path d="M393.862 93.0586C407.427 93.0586 418.423 82.0622 418.423 68.4976C418.423 54.9329 407.427 43.9365 393.862 43.9365C380.298 43.9365 369.301 54.9329 369.301 68.4976C369.301 82.0622 380.298 93.0586 393.862 93.0586Z" fill="#F9C9B6"/>
<path d="M411.149 106.163L392.213 204.863C392.213 204.863 366.273 199.683 357.033 193.444C353.373 190.964 350.053 188.404 347.253 186.083C344.103 183.497 341.086 180.754 338.213 177.863C338.213 177.863 344.853 145.254 347.223 136.524C349.975 126.411 359.416 114.633 366.769 106.606C369.435 103.698 372.842 101.571 376.625 100.451C380.408 99.3312 384.424 99.2617 388.243 100.25L411.149 106.163Z" fill="#F9F9F9"/>
<path opacity="0.2" d="M357.033 193.443C353.373 190.963 350.053 188.403 347.253 186.083C348.263 171.143 370.273 139.863 379.193 139.863C379.193 139.863 381.303 188.073 357.033 193.443Z" fill="black"/>
<path d="M311.729 232.68C313.111 232.179 314.366 231.381 315.407 230.343C316.447 229.304 317.247 228.05 317.75 226.668C318.253 225.287 318.447 223.812 318.318 222.348C318.19 220.883 317.742 219.465 317.006 218.192L340.365 191.149L321.95 188.752L302.591 214.8C300.536 216.178 299.057 218.263 298.435 220.659C297.813 223.054 298.092 225.595 299.218 227.799C300.345 230.003 302.24 231.717 304.546 232.617C306.852 233.517 309.408 233.539 311.729 232.68V232.68Z" fill="#F9C9B6"/>
<path d="M377.035 101.388C376.018 101.409 375.004 101.525 374.009 101.735C371.993 102.196 370.123 103.149 368.567 104.511C367.01 105.872 365.816 107.598 365.091 109.535L336.213 169.863L305.213 202.863L320.713 215.363L369.713 171.363L389.289 118.082C389.914 116.158 390.072 114.113 389.751 112.115C389.429 110.118 388.637 108.225 387.44 106.595C386.243 104.964 384.675 103.641 382.866 102.736C381.057 101.83 379.058 101.369 377.035 101.388Z" fill="#F9F9F9"/>
<path d="M395.316 92.8333C398.812 87.601 401.571 80.3457 397.722 75.3674C393.923 70.4532 386.43 71.1772 380.611 69.0027C372.507 65.9741 367.807 56.4534 369.273 47.9271C370.739 39.4008 377.583 32.3327 385.737 29.4407C393.891 26.5487 403.085 27.4892 411.07 30.8195C420.9 34.9192 429.331 42.8498 432.867 52.8958C436.403 62.9418 434.513 75.0039 427.178 82.7254C419.314 91.0037 406.972 93.2099 395.555 93.0761" fill="#472F0B"/>
<path d="M433.885 63.8725C434.885 69.4635 441.019 72.639 446.655 73.3369C452.292 74.0349 458.123 73.1399 463.611 74.6059C473.285 77.1903 479.666 86.494 483.178 95.8714C486.69 105.249 488.247 115.37 492.81 124.283C497.373 133.196 506.221 141.054 516.199 140.221C514.244 145.142 510.819 149.341 506.39 152.244C501.96 155.146 496.744 156.612 491.451 156.44C486.158 156.269 481.047 154.468 476.815 151.285C472.583 148.101 469.437 143.689 467.805 138.651C464.139 127.334 468.347 113.838 461.937 103.818C458.389 98.2728 452.264 95.0111 446.357 92.1049C440.451 89.1987 434.251 86.2157 430.291 80.9573C426.331 75.699 425.54 67.3944 430.42 62.9766" fill="#472F0B"/>
</g>
<defs>
<clipPath id="clip0">
<rect width="525" height="441" fill="white"/>
</clipPath>
</defs>
</svg>
