<svg width="1200" height="1000" viewBox="0 0 1200 1000" fill="none" xmlns="http://www.w3.org/2000/svg">
<path fill-rule="evenodd" clip-rule="evenodd" d="M1200 0H0V1000H1200V0ZM455.528 554.168C455.528 542.36 453.944 533.432 450.776 527.384C445.592 530.264 434.792 531.704 418.376 531.704H408.44C419.96 468.056 432.488 408.584 446.024 353.288L385.976 346.808L385.544 347.24V346.808L223.976 527.816V582.248L323.336 592.616L320.312 609.032C319.736 613.64 319.448 617.96 319.448 621.992C319.448 625.448 320.6 629.192 322.904 633.224C328.664 644.168 340.472 649.64 358.328 649.64C372.152 649.64 382.952 646.76 390.728 641L397.64 596.504H400.232C419.528 596.504 433.496 592.472 442.136 584.408C451.064 576.056 455.528 565.976 455.528 554.168ZM335.432 530.84L270.2 528.68L363.944 419.384C354.44 451.352 344.936 488.504 335.432 530.84ZM524.452 399.08C497.092 433.64 483.412 480.008 483.412 538.184C483.412 576.2 490.468 604.424 504.58 622.856C518.98 641 541.012 650.072 570.676 650.072C614.74 650.072 650.02 632.072 676.516 596.072C689.188 578.792 698.98 558.056 705.892 533.864C713.092 509.384 716.692 481.592 716.692 450.488C716.692 419.096 709.492 394.04 695.092 375.32C680.692 356.6 660.964 347.24 635.908 347.24C588.964 347.24 551.812 364.52 524.452 399.08ZM574.132 611.192C564.628 611.192 559.876 596.648 559.876 567.56C559.876 526.664 567.076 486.2 581.476 446.168C587.812 428.6 594.724 414.2 602.212 402.968C609.988 391.736 617.044 386.12 623.38 386.12C630.004 386.12 634.468 389.72 636.772 396.92C639.364 403.832 640.66 415.064 640.66 430.616C640.66 476.696 633.892 518.312 620.356 555.464C614.02 572.456 606.82 585.992 598.756 596.072C590.98 606.152 582.772 611.192 574.132 611.192ZM958.403 554.168C958.403 542.36 956.819 533.432 953.651 527.384C948.467 530.264 937.667 531.704 921.251 531.704H911.315C922.835 468.056 935.363 408.584 948.899 353.288L888.851 346.808L888.419 347.24V346.808L726.851 527.816V582.248L826.211 592.616L823.187 609.032C822.611 613.64 822.323 617.96 822.323 621.992C822.323 625.448 823.475 629.192 825.779 633.224C831.539 644.168 843.347 649.64 861.203 649.64C875.027 649.64 885.827 646.76 893.603 641L900.515 596.504H903.107C922.403 596.504 936.371 592.472 945.011 584.408C953.939 576.056 958.403 565.976 958.403 554.168ZM838.307 530.84L773.075 528.68L866.819 419.384C857.315 451.352 847.811 488.504 838.307 530.84Z" fill="#F8F9FA"/>
</svg>
