<svg width="360" height="640" viewBox="0 0 360 640" fill="none" xmlns="http://www.w3.org/2000/svg">
<g clip-path="url(#clip0)">
<path fill-rule="evenodd" clip-rule="evenodd" d="M383.703 0H-24.4131V640H383.703V0ZM133.138 337.83C133.138 334 132.624 331.103 131.597 329.141C129.915 330.075 126.411 330.543 121.086 330.543H117.862C121.6 309.894 125.664 290.6 130.055 272.661L110.575 270.559L110.434 270.699V270.559L58.019 329.281V346.94L90.253 350.303L89.272 355.629C89.0851 357.124 88.9917 358.525 88.9917 359.833C88.9917 360.955 89.3654 362.169 90.1129 363.477C91.9815 367.028 95.8122 368.803 101.605 368.803C106.09 368.803 109.593 367.869 112.116 366L114.359 351.565H115.199C121.459 351.565 125.991 350.257 128.794 347.641C131.69 344.931 133.138 341.661 133.138 337.83ZM94.1772 330.262L73.0148 329.561L103.427 294.104C100.344 304.475 97.2604 316.528 94.1772 330.262ZM155.499 287.517C146.623 298.729 142.184 313.771 142.184 332.645C142.184 344.978 144.474 354.134 149.052 360.114C153.723 366 160.871 368.943 170.494 368.943C184.79 368.943 196.235 363.104 204.831 351.425C208.942 345.819 212.118 339.092 214.361 331.243C216.697 323.302 217.865 314.285 217.865 304.195C217.865 294.011 215.529 285.882 210.857 279.809C206.185 273.736 199.785 270.699 191.657 270.699C176.427 270.699 164.375 276.305 155.499 287.517ZM171.616 356.33C168.532 356.33 166.991 351.611 166.991 342.175C166.991 328.907 169.327 315.78 173.998 302.793C176.054 297.094 178.296 292.422 180.725 288.778C183.248 285.135 185.537 283.313 187.592 283.313C189.741 283.313 191.19 284.48 191.937 286.816C192.778 289.059 193.198 292.703 193.198 297.748C193.198 312.697 191.003 326.198 186.611 338.251C184.556 343.763 182.22 348.154 179.604 351.425C177.081 354.695 174.419 356.33 171.616 356.33ZM296.28 337.83C296.28 334 295.766 331.103 294.738 329.141C293.056 330.075 289.552 330.543 284.227 330.543H281.003C284.741 309.894 288.805 290.6 293.196 272.661L273.716 270.559L273.576 270.699V270.559L221.16 329.281V346.94L253.394 350.303L252.413 355.629C252.226 357.124 252.133 358.525 252.133 359.833C252.133 360.955 252.507 362.169 253.254 363.477C255.123 367.028 258.953 368.803 264.746 368.803C269.231 368.803 272.735 367.869 275.257 366L277.5 351.565H278.341C284.601 351.565 289.132 350.257 291.935 347.641C294.831 344.931 296.28 341.661 296.28 337.83ZM257.318 330.262L236.156 329.561L266.568 294.104C263.485 304.475 260.402 316.528 257.318 330.262Z" fill="#F8F9FA"/>
</g>
<defs>
<clipPath id="clip0">
<rect width="360" height="640" fill="white"/>
</clipPath>
</defs>
</svg>
