<svg width="834" height="1194" viewBox="0 0 834 1194" fill="none" xmlns="http://www.w3.org/2000/svg">
<path fill-rule="evenodd" clip-rule="evenodd" d="M834 0H0V1194H834V0ZM292.788 643.228C292.788 633.06 291.424 625.372 288.696 620.164C284.232 622.644 274.932 623.884 260.796 623.884H252.24C262.16 569.076 272.948 517.864 284.604 470.248L232.896 464.668L232.524 465.04V464.668L93.396 620.536V667.408L178.956 676.336L176.352 690.472C175.856 694.44 175.608 698.16 175.608 701.632C175.608 704.608 176.6 707.832 178.584 711.304C183.544 720.728 193.712 725.44 209.088 725.44C220.992 725.44 230.292 722.96 236.988 718L242.94 679.684H245.172C261.788 679.684 273.816 676.212 281.256 669.268C288.944 662.076 292.788 653.396 292.788 643.228ZM189.372 623.14L133.2 621.28L213.924 527.164C205.74 554.692 197.556 586.684 189.372 623.14ZM352.139 509.68C328.579 539.44 316.799 579.368 316.799 629.464C316.799 662.2 322.875 686.504 335.027 702.376C347.427 718 366.399 725.812 391.943 725.812C429.887 725.812 460.267 710.312 483.083 679.312C493.995 664.432 502.427 646.576 508.379 625.744C514.579 604.664 517.679 580.732 517.679 553.948C517.679 526.916 511.479 505.34 499.079 489.22C486.679 473.1 469.691 465.04 448.115 465.04C407.691 465.04 375.699 479.92 352.139 509.68ZM394.919 692.332C386.735 692.332 382.643 679.808 382.643 654.76C382.643 619.544 388.843 584.7 401.243 550.228C406.699 535.1 412.651 522.7 419.099 513.028C425.795 503.356 431.871 498.52 437.327 498.52C443.031 498.52 446.875 501.62 448.859 507.82C451.091 513.772 452.207 523.444 452.207 536.836C452.207 576.516 446.379 612.352 434.723 644.344C429.267 658.976 423.067 670.632 416.123 679.312C409.427 687.992 402.359 692.332 394.919 692.332ZM725.819 643.228C725.819 633.06 724.455 625.372 721.727 620.164C717.263 622.644 707.963 623.884 693.827 623.884H685.271C695.191 569.076 705.979 517.864 717.635 470.248L665.927 464.668L665.555 465.04V464.668L526.427 620.536V667.408L611.987 676.336L609.383 690.472C608.887 694.44 608.639 698.16 608.639 701.632C608.639 704.608 609.631 707.832 611.615 711.304C616.575 720.728 626.743 725.44 642.119 725.44C654.023 725.44 663.323 722.96 670.019 718L675.971 679.684H678.203C694.819 679.684 706.847 676.212 714.287 669.268C721.975 662.076 725.819 653.396 725.819 643.228ZM622.403 623.14L566.231 621.28L646.955 527.164C638.771 554.692 630.587 586.684 622.403 623.14Z" fill="#F8F9FA"/>
</svg>
